<svg width="24" height="24" viewBox="0 0 24 24" fill="none" xmlns="http://www.w3.org/2000/svg">
<path d="M12 24C18.6274 24 24 18.6274 24 12C24 5.37258 18.6274 0 12 0C5.37258 0 0 5.37258 0 12C0 18.6274 5.37258 24 12 24Z" fill="#F7931A"/>
<path fill-rule="evenodd" clip-rule="evenodd" d="M17.3912 10.515C17.6267 8.943 16.4289 8.09775 14.7924 7.53375L15.3234 5.40375L14.0274 5.08125L13.5099 7.155C13.1765 7.07128 12.8345 6.99331 12.493 6.91546L12.4929 6.91546L12.4712 6.9105L12.9924 4.82325L11.6964 4.5L11.1654 6.62925L11.1088 6.61629C10.8463 6.55628 10.5879 6.49722 10.3374 6.43425L10.3389 6.4275L8.55094 5.98125L8.20594 7.36575C8.20594 7.36575 9.16819 7.58625 9.14794 7.59975C9.67294 7.731 9.76744 8.07825 9.75169 8.35425L9.14719 10.7805C9.18319 10.7895 9.22969 10.803 9.28219 10.8232L9.14494 10.7895L8.29744 14.1885C8.23294 14.3475 8.07019 14.5868 7.70269 14.496C7.71619 14.5148 6.76069 14.2613 6.76069 14.2613L6.11719 15.7448L7.80469 16.1655C7.98592 16.211 8.16515 16.2578 8.34252 16.3041L8.34262 16.3041C8.47203 16.3379 8.60045 16.3714 8.72794 16.404L8.19169 18.558L9.48694 18.8805L10.0179 16.7505C10.3719 16.8457 10.7154 16.9343 11.0514 17.0183L10.5219 19.1393L11.8179 19.4617L12.3542 17.3123C14.5652 17.7308 16.2272 17.562 16.9269 15.5625C17.4909 13.953 16.8992 13.0238 15.7359 12.4185C16.5834 12.2235 17.2209 11.6663 17.3912 10.515ZM10.6926 15.2554L10.6926 15.2554C10.5973 15.2302 10.5121 15.2077 10.4395 15.1897L11.152 12.3359C11.2406 12.3581 11.3489 12.3824 11.4716 12.41L11.4716 12.41C12.5662 12.6559 14.8064 13.1592 14.4295 14.6684C14.0627 16.1456 11.7509 15.5349 10.6926 15.2554ZM11.6898 11.0847C12.5716 11.3202 14.4943 11.8335 14.8291 10.4912C15.1715 9.11818 13.3023 8.70469 12.3893 8.50272C12.2864 8.47995 12.1956 8.45987 12.1216 8.44141L11.4766 11.0289C11.5377 11.0441 11.6094 11.0633 11.6898 11.0847Z" fill="white"/>
</svg>
