<svg width="76" height="76" viewBox="0 0 76 76" fill="none" xmlns="http://www.w3.org/2000/svg">
<rect x="0.633333" y="0.633333" width="74.7333" height="74.7333" rx="4.43333" fill="#E3F2FF"/>
<rect x="0.633333" y="0.633333" width="74.7333" height="74.7333" rx="4.43333" stroke="#E3F2FF" stroke-width="1.26667"/>
<path d="M12.5 32H23M7 38.6398H23M12.5 45H23" stroke="#4C9DE8" stroke-width="1.23" stroke-linecap="round"/>
<path d="M27.9265 38.9995C27.9265 34.2388 29.7993 29.6742 33.131 26.3097C36.4625 22.9454 40.9797 21.0564 45.6886 21.0564C50.3974 21.0564 54.9146 22.9454 58.2461 26.3097C61.5778 29.6742 63.4506 34.2388 63.4506 38.9995C63.4506 43.7603 61.5778 48.3249 58.2461 51.6894C54.9146 55.0537 50.3974 56.9427 45.6886 56.9427C40.9797 56.9427 36.4625 55.0537 33.131 51.6894C29.7993 48.3249 27.9265 43.7603 27.9265 38.9995Z" stroke="#4C9DE8" stroke-width="1.23"/>
</svg>
