<svg width="24" height="24" viewBox="0 0 24 24" fill="none" xmlns="http://www.w3.org/2000/svg">
<g clip-path="url(#clip0_2001_233)">
<path d="M12 24C18.6274 24 24 18.6274 24 12C24 5.37258 18.6274 0 12 0C5.37258 0 0 5.37258 0 12C0 18.6274 5.37258 24 12 24Z" fill="#0052B4"/>
<path d="M12 4.6958L12.3886 5.89153H13.6458L12.6286 6.63052L13.0172 7.82625L12 7.08722L10.9828 7.82625L11.3714 6.63052L10.3542 5.89153H11.6115L12 4.6958Z" fill="#FFDA44"/>
<path d="M6.83523 6.83528L7.95554 7.40603L8.84453 6.51709L8.64779 7.75881L9.76806 8.32961L8.52629 8.52629L8.32961 9.76811L7.75881 8.64784L6.51709 8.84457L7.40607 7.95559L6.83523 6.83528Z" fill="#FFDA44"/>
<path d="M4.6958 12.0003L5.89153 11.6117V10.3545L6.63047 11.3717L7.82625 10.9831L7.08717 12.0003L7.82625 13.0174L6.63047 12.6289L5.89153 13.6461V12.3888L4.6958 12.0003Z" fill="#FFDA44"/>
<path d="M6.83523 17.1652L7.40603 16.0449L6.51709 15.1559L7.75886 15.3527L8.32956 14.2324L8.52629 15.4742L9.76801 15.6709L8.64789 16.2417L8.84453 17.4834L7.95554 16.5944L6.83523 17.1652Z" fill="#FFDA44"/>
<path d="M12 19.3047L11.6114 18.1089H10.3542L11.3714 17.37L10.9828 16.1743L12 16.9133L13.0172 16.1743L12.6286 17.37L13.6458 18.1089H12.3885L12 19.3047Z" fill="#FFDA44"/>
<path d="M17.1652 17.1652L16.0449 16.5945L15.1559 17.4834L15.3526 16.2416L14.2324 15.6709L15.4741 15.4742L15.6708 14.2324L16.2416 15.3527L17.4833 15.1559L16.5943 16.045L17.1652 17.1652Z" fill="#FFDA44"/>
<path d="M19.3044 12.0003L18.1087 12.3888V13.6461L17.3697 12.6289L16.1741 13.0174L16.9131 12.0003L16.1741 10.9831L17.3698 11.3717L18.1087 10.3545V11.6118L19.3044 12.0003Z" fill="#FFDA44"/>
<path d="M17.1652 6.83523L16.5944 7.95554L17.4833 8.84453L16.2415 8.64775L15.6708 9.76801L15.4741 8.52625L14.2324 8.32951L15.3526 7.75876L15.1559 6.51709L16.0449 7.40603L17.1652 6.83523Z" fill="#FFDA44"/>
</g>
<defs>
<clipPath id="clip0_2001_233">
<rect width="24" height="24" fill="white"/>
</clipPath>
</defs>
</svg>
