<svg width="76" height="66" viewBox="0 0 76 66" fill="none" xmlns="http://www.w3.org/2000/svg">
<path d="M45.521 16.731C43.8619 15.1164 41.6333 14.2123 39.3125 14.2123C36.9918 14.2123 34.7632 15.1164 33.1041 16.731C32.291 17.5392 31.6465 18.4995 31.2078 19.5565C30.7692 20.6136 30.5449 21.7465 30.5481 22.8901C30.5512 24.0337 30.7816 25.1654 31.226 26.22C31.6705 27.2747 32.3202 28.2314 33.1377 29.0353C34.792 30.6695 37.0265 31.5898 39.3577 31.5971C41.6889 31.6044 43.9292 30.6981 45.5938 29.0742C45.6553 29.013 45.8961 28.7512 46.3215 28.2833L42.1788 24.1893C41.7534 24.6795 41.5294 24.9357 41.5015 24.958C40.9392 25.5144 40.1784 25.8268 39.3853 25.8268C38.5923 25.8268 37.8315 25.5144 37.2692 24.958C36.7112 24.4127 36.3936 23.6693 36.3862 22.8912C36.3789 22.1131 36.6824 21.3639 37.23 20.8083C37.7952 20.2664 38.5513 19.9664 39.3362 19.9726C40.1211 19.9789 40.8723 20.2909 41.4287 20.8417L52.502 31.7757C50.9723 33.9528 48.939 35.7319 46.5733 36.963C44.2077 38.1942 41.5792 38.8413 38.9095 38.8497C36.105 38.8506 33.3469 38.1373 30.8979 36.7776C28.4488 35.4179 26.3903 33.4571 24.9184 31.0819C23.4464 28.7068 22.61 25.9963 22.4887 23.2085C22.3674 20.4207 22.9654 17.6484 24.2256 15.1556C25.4858 12.6628 27.3663 10.5324 29.6881 8.96724C32.0099 7.40211 34.6958 6.45433 37.4899 6.21415C40.284 5.97396 43.0934 6.44936 45.6506 7.59509C48.2078 8.74082 50.4277 10.5187 52.0989 12.7596C51.6137 13.324 50.3653 14.7295 48.3537 16.9761L52.4572 20.9921L59.2198 13.4447C57.5849 9.80558 54.9933 6.67285 51.7184 4.3768C48.4435 2.08074 44.6066 0.706455 40.6122 0.398835C36.6179 0.0912143 32.6141 0.861661 29.0231 2.62894C25.4321 4.39622 22.3868 7.09484 20.2085 10.4403C18.0302 13.7857 16.7995 17.6539 16.6462 21.6371C16.4929 25.6204 17.4226 29.5709 19.3374 33.0723C21.2522 36.5737 24.081 39.4961 27.5257 41.5315C30.9704 43.5669 34.9032 44.6397 38.9095 44.637C44.5077 44.637 49.1374 42.9047 53.6664 39.0669C56.2705 36.7846 58.3417 33.9634 59.7349 30.801L45.521 16.731Z" fill="url(#paint0_linear_1_8376)"/>
<path d="M47.7624 58.6563V65.647H44.8706V58.5055C44.7108 57.6824 44.267 56.9414 43.6166 56.4114C42.9662 55.8813 42.1503 55.5959 41.3109 55.6046C40.4715 55.6134 39.6618 55.9158 39.0226 56.4593C38.3834 57.0027 37.9553 57.7528 37.8126 58.5791V65.6618H34.9209V52.9497L37.1311 54.3405C38.308 53.3465 39.8004 52.8027 41.3416 52.8062C42.9534 52.7923 44.5109 53.3875 45.7017 54.4725C46.8925 55.5575 47.6286 57.052 47.7624 58.6563ZM17.4268 51.3382C16.4714 51.829 15.6128 52.4884 14.8924 53.2845C14.3158 52.4594 13.5358 51.7967 12.6279 51.3606C11.72 50.9245 10.7148 50.7297 9.70942 50.7949C8.70408 50.8602 7.73259 51.1834 6.88884 51.7332C6.04508 52.2831 5.35759 53.041 4.89279 53.9338C4.428 54.8265 4.20162 55.8239 4.23553 56.8296C4.26943 57.8353 4.56248 58.8152 5.08636 59.6748C5.61023 60.5343 6.34722 61.2443 7.2261 61.7362C8.10498 62.2281 9.09603 62.4853 10.1035 62.4828C11.1184 62.4913 12.1183 62.2378 13.0063 61.747C13.3214 62.7671 13.8208 63.7211 14.4798 64.5616C13.134 65.29 11.6268 65.6695 10.0961 65.6654C8.9002 65.6896 7.71148 65.4752 6.59954 65.0348C5.48761 64.5944 4.47482 63.9369 3.62049 63.1007C2.76616 62.2645 2.08745 61.2664 1.62411 60.165C1.16077 59.0635 0.922119 57.8808 0.922119 56.6861C0.922119 55.4913 1.16077 54.3086 1.62411 53.2071C2.08745 52.1057 2.76616 51.1076 3.62049 50.2714C4.47482 49.4352 5.48761 48.7777 6.59954 48.3373C7.71148 47.8969 8.9002 47.6825 10.0961 47.7067C11.5129 47.7035 12.9108 48.0305 14.1789 48.6615C15.447 49.2926 16.5502 50.2103 17.401 51.3418L17.4268 51.3382ZM21.7257 65.6618C20.4736 65.6472 19.2538 65.2631 18.2197 64.5578C17.1857 63.8524 16.3837 62.8573 15.9145 61.6977C15.4454 60.5382 15.3302 59.2659 15.5834 58.041C15.8365 56.8162 16.4468 55.6935 17.3373 54.8142C18.2278 53.935 19.3588 53.3385 20.588 53.0998C21.8171 52.8611 23.0895 52.9908 24.245 53.4728C25.4005 53.9547 26.3875 54.7672 27.0817 55.808C27.7759 56.8489 28.1464 58.0716 28.1465 59.3223C28.1416 60.1596 27.9717 60.9878 27.6464 61.7596C27.3212 62.5314 26.8469 63.2316 26.2506 63.8202C25.6544 64.4089 24.9479 64.8745 24.1715 65.1905C23.3952 65.5065 22.5641 65.6666 21.7257 65.6618ZM21.7257 62.8434C22.421 62.8347 23.0982 62.6208 23.6721 62.2286C24.246 61.8365 24.6909 61.2836 24.951 60.6394C25.2111 59.9953 25.2746 59.2888 25.1336 58.6087C24.9926 57.9286 24.6534 57.3053 24.1587 56.8173C23.664 56.3293 23.0358 55.9983 22.3532 55.866C21.6705 55.7336 20.964 55.8059 20.3224 56.0736C19.6808 56.3414 19.1328 56.7927 18.7473 57.3707C18.3619 57.9488 18.1562 58.6278 18.1562 59.3223C18.1586 59.7877 18.2529 60.2481 18.4336 60.6771C18.6144 61.1061 18.8781 61.4953 19.2097 61.8223C19.5413 62.1494 19.9342 62.4079 20.3659 62.5831C20.7976 62.7584 21.2597 62.8468 21.7257 62.8434ZM29.9331 52.9865H32.788V65.6618H29.9331V52.9865ZM60.9723 50.7421H52.8091V55.3486H60.7365V58.2075H52.8091V62.7992H60.9723V65.6618H49.7332V47.8796H60.9723V50.7421ZM66.9768 59.2965L62.5821 52.9865H66.2142C66.3211 53.1631 66.4795 53.4059 66.6858 53.7224L68.1851 55.9778C68.4245 56.3457 68.5939 56.6033 68.6934 56.7762L68.8408 57.0264L71.4525 52.9975H74.9116L70.6016 59.1898L75.0773 65.6618H71.4894L68.7229 61.5188L68.5718 61.7359C68.4503 61.9125 68.2698 62.1885 68.0267 62.5601C67.7835 62.9317 67.5294 63.3254 67.2531 63.7375L66.4758 64.9222C66.2695 65.2386 66.1074 65.4852 66.008 65.6581H62.5784L66.9768 59.2965Z" fill="#1B2125"/>
<path d="M29.6561 50.3568C29.6545 50.105 29.7047 49.8555 29.8035 49.6239C29.9024 49.3923 30.0478 49.1834 30.2307 49.0101C30.5998 48.645 31.0982 48.4402 31.6177 48.4402C32.1371 48.4402 32.6356 48.645 33.0046 49.0101C33.1917 49.1835 33.34 49.3944 33.4396 49.629C33.5393 49.8636 33.5882 50.1167 33.583 50.3715C33.58 50.8877 33.3727 51.3818 33.0061 51.7458C32.6396 52.1098 32.1438 52.3142 31.6269 52.3142C31.368 52.3185 31.1108 52.2705 30.8709 52.1731C30.631 52.0758 30.4133 51.931 30.2307 51.7475C30.0446 51.5675 29.8975 51.3511 29.7987 51.1118C29.6998 50.8726 29.6513 50.6155 29.6561 50.3568Z" fill="url(#paint1_linear_1_8376)"/>
<defs>
<linearGradient id="paint0_linear_1_8376" x1="59.0815" y1="23.7691" x2="16.0024" y2="23.7691" gradientUnits="userSpaceOnUse">
<stop stop-color="#22E6B8"/>
<stop offset="1" stop-color="#00C1CE"/>
</linearGradient>
<linearGradient id="paint1_linear_1_8376" x1="33.2935" y1="49.6293" x2="29.3695" y2="49.6293" gradientUnits="userSpaceOnUse">
<stop stop-color="#22E6B8"/>
<stop offset="1" stop-color="#00C1CE"/>
</linearGradient>
</defs>
</svg>
