<svg width="32" height="40" viewBox="0 0 32 40" fill="none" xmlns="http://www.w3.org/2000/svg">
<g clip-path="url(#clip0_2001_513)">
<path d="M31.3455 3.76601C28.419 2.31393 25.339 1.41659 22.0389 0.866548C19.9593 0.467525 17.8665 0.296059 15.7899 0.313748C13.7135 0.29597 11.6207 0.467525 9.54104 0.866548C6.24095 1.41659 3.16086 2.31393 0.234375 3.76601L0.237753 3.77446C0.236686 3.77499 0.235619 3.77544 0.234464 3.77588V16.4834C0.380064 17.9002 0.646375 24.7809 5.04913 31.0328C6.47091 33.0518 8.65535 35.5921 10.915 37.2354C13.2837 38.9579 15.5791 39.7369 15.7897 39.7568C15.7897 39.7568 15.79 39.7568 15.7901 39.7568C16.0008 39.7368 18.296 38.9579 20.6648 37.2354C22.9245 35.5921 25.1088 33.0518 26.5306 31.0328C30.9333 24.7809 31.1996 17.9002 31.3451 16.4834V3.77588C31.3436 3.77526 31.3421 3.77455 31.3405 3.77393L31.3455 3.76601Z" fill="#017DC3"/>
<path d="M29.7614 6.98457C29.2656 6.29497 28.5971 5.58342 27.627 5.64804C26.9805 5.75577 26.2471 6.1876 25.7945 6.72644C23.4232 9.67951 23.4957 14.537 24.8755 18.029C24.5949 18.3524 24.164 18.1152 23.8621 18.029C22.8275 17.5333 22.3096 16.5633 22.0722 15.5717C21.6629 16.6494 22.1302 17.8277 22.6044 18.69C23.3863 20.0632 24.8474 20.1303 25.7137 20.7325C25.8214 20.9263 25.9621 21.3571 25.6158 21.3492C25.3141 20.9679 25.0454 20.6733 24.4633 20.7811C24.2046 20.8832 23.9461 21.0718 23.8599 21.374C23.6875 21.8268 23.8599 22.279 24.0973 22.6026L24.4204 22.0641C24.7222 21.8267 25.0889 21.6543 25.4982 21.8267C25.8213 21.956 25.9402 22.3493 25.8752 22.7586C25.746 23.3408 25.1915 23.7616 24.7277 23.988C23.6598 24.3009 22.9777 23.9736 22.5035 23.3913C21.1765 20.7722 19.0401 19.9965 20.1534 16.8723C19.6362 16.3765 19.3964 15.7548 19.1808 15.0436C18.9868 15.4531 18.8998 16.0491 18.909 16.5278C18.5618 16.5175 18.4242 16.4056 18.2951 16.3491C17.4112 15.8318 17.1801 14.9828 17.1157 14.0343C15.9921 15.8528 13.7358 14.8158 12.8831 14.8149C13.2153 14.3149 13.9631 13.4676 14.0604 13.1937C13.1981 13.6034 12.2754 13.9308 11.1761 13.8232C10.0339 15.5048 7.75335 14.8818 6.41664 16.1753C5.85619 15.6364 5.29557 15.0328 4.60908 14.7791C3.91939 14.585 3.25779 14.9714 2.89122 15.4672L3.55122 15.3245C3.9609 15.5616 3.47646 15.8433 3.6921 16.1021C4.14482 16.5117 5.01548 15.7904 5.01548 16.5664C4.4153 17.1336 3.82704 16.1478 2.86802 16.7739C2.58953 17.0954 2.41202 17.6079 2.56304 18.0604L3.22473 17.5464C4.10899 18.8342 4.60064 17.3687 5.5577 17.2944C5.93575 17.1651 5.9921 17.4372 5.9257 17.6544C5.55735 17.9164 4.65548 17.9776 4.3257 18.5316C4.10535 18.9593 4.58446 19.6856 4.97246 20.0091C4.92944 19.6641 5.01566 19.4055 5.29575 19.2114C5.46802 19.1585 5.79975 19.1616 6.03673 19.248C6.80126 19.2415 6.2969 18.364 6.82633 18.1717C7.6305 18.4885 7.52046 16.8337 8.3729 17.1024C8.73442 17.656 7.42784 18.109 7.49397 19.1851C7.51077 19.3472 8.02704 19.0847 8.23637 19.0448C8.47388 18.9999 8.65033 18.9511 8.69424 18.8555C9.09148 18.2475 9.27353 17.2196 9.90357 16.736C9.99646 16.751 10.0539 16.8015 10.0759 16.8868C9.90357 17.5552 9.27495 18.0856 9.27495 18.7757C9.59833 18.7325 9.89993 18.6464 10.1803 18.4953C10.3013 17.7606 10.8058 16.9 11.3476 16.3048C11.4575 16.2818 11.6086 16.3118 11.6543 16.4192C11.5421 16.7831 10.6552 17.4952 10.6379 18.4172C11.0313 18.269 11.4309 18.2504 11.6249 18.0507C12.1845 17.4748 11.9504 16.4637 12.7327 16.0056C12.9374 15.8513 13.0371 16.0117 13.0815 16.0953C13.1004 16.7018 12.1913 17.0528 12.1294 17.9495C12.388 17.8633 12.9704 18.0352 13.272 17.8197C13.5956 17.1085 13.6924 16.2469 14.339 15.6647C15.1428 15.809 13.9405 16.4677 14.0486 17.0284L15.2035 16.8003C15.3108 16.3009 15.2127 15.713 15.7455 15.5132L15.992 15.6021C16.1643 16.0979 15.7979 16.4643 15.6254 16.8956C15.2805 17.3481 14.6129 17.1863 14.1818 17.4448C14.5914 18.377 15.7089 19.8671 16.7784 20.4989C18.5675 22.5683 16.0538 24.5247 16.1151 26.321C16.0994 26.9864 16.8678 26.9405 17.2045 26.986C17.3009 26.9991 17.316 27.1263 17.2921 27.2306C17.2033 27.3353 17.0181 27.3265 16.801 27.3025C16.584 27.2784 16.3352 27.239 16.1196 27.2819C16.0122 27.3247 15.7901 27.4295 15.8117 27.5804C15.8474 27.7391 16.1722 27.864 16.3416 28.0532C16.9354 28.2859 17.7088 27.4724 18.075 28.0112C18.1614 28.162 18.0215 28.1787 17.9572 28.2432C17.6219 28.2855 16.8701 28.2049 16.605 28.4956C16.7727 28.6828 17.0392 28.9681 17.2457 28.9686C17.559 28.969 17.9194 28.7442 18.2477 28.7442C18.9223 29.3578 17.6656 28.9814 17.5148 29.3478L17.9889 29.9727C18.1829 30.1019 18.42 29.9944 18.5712 29.8863C18.9925 29.6824 19.2178 29.8972 19.4997 30.05C19.7153 30.3084 19.6257 30.6431 19.5608 30.9017C19.1669 31.3234 18.2875 32.0322 17.9738 32.3579C17.4078 32.9304 17.4374 33.3894 16.3185 33.7206C15.5349 34.1984 15.3004 33.2809 14.6108 33.3236C14.3519 33.3583 13.9208 33.4314 13.8561 33.7979C13.8346 34.121 13.7149 34.5034 13.9327 34.8858L14.19 34.6183C14.7072 34.2732 15.311 34.5755 15.785 34.7912C15.8281 34.8987 15.878 34.8354 15.8349 34.9213C15.494 35.1186 15.2856 34.9453 15.1258 34.8849C14.8239 34.8849 14.5437 34.8849 14.3711 35.1007C14.0693 35.424 13.897 35.8769 14.0262 36.3508C14.5075 35.6976 15.3706 36.3869 15.6624 36.0422C16.0071 35.956 16.1543 35.3996 16.5425 35.6797C16.6933 36.0676 16.3272 36.1524 16.1546 36.4112C16.0046 36.5769 15.9955 36.9328 16.2839 37.0793C16.4349 37.2086 16.4349 37.5321 16.2839 37.64C16.6933 37.5321 17.1461 37.4457 17.4482 37.1442C17.8146 36.9071 17.6761 36.4416 17.6329 36.0536C17.7196 35.8164 17.8979 35.7286 18.2061 35.7621C18.6521 35.7884 18.0069 34.6905 18.5293 34.5115C19.1889 34.6081 18.5646 35.6954 18.9741 36.0619C19.2421 35.8476 19.4343 35.7591 19.4971 35.5631C19.6855 34.9744 19.0582 33.8224 19.5983 33.6058C20.2269 33.4533 19.5331 34.6521 20.0288 35.1049C20.3225 34.9174 20.5048 34.7872 20.6229 34.7552C21.0269 34.2247 20.3344 33.5001 20.7295 32.7273C20.7725 32.6409 20.8805 32.4688 21.0314 32.5331C21.4193 33.0722 20.7295 33.6264 21.1607 34.1007C21.3933 33.7123 21.8463 33.5532 21.9037 33.2166C21.8613 32.9443 21.2148 31.8871 21.6502 31.3417C22.0632 31.2492 22.0176 32.1053 22.0816 32.5687C22.1049 32.7366 22.2289 32.8734 22.2833 33.0216C22.469 32.6152 22.7576 32.5253 22.826 32.2926C22.9429 31.8923 22.7837 31.5382 22.6342 31.173C22.442 30.7035 22.0819 30.0177 22.5033 29.7589C23.0205 29.9313 22.7929 30.6856 23.0285 30.8459C23.3809 30.7394 23.575 30.2993 23.8262 30.0054C24.1476 29.3752 23.2795 29.5168 23.0561 29.1752C22.7111 28.2912 21.8013 27.5388 21.0686 26.9998C21.1977 25.7281 21.2804 24.3953 20.9354 23.1888C20.914 22.9945 20.558 22.9679 20.6444 22.7307C20.6014 22.58 20.6768 22.3696 20.871 22.4559C21.3882 22.8438 21.4312 23.5334 21.4744 24.1584C21.8408 24.6112 22.3669 24.9628 22.8629 25.2C24.0269 25.48 25.3308 25.4056 26.2802 24.3377C27.0833 23.4163 27.2661 22.0312 26.986 20.7594C26.4254 17.6985 24.8678 15.0545 25.1909 11.627C25.5144 10.3122 25.8379 8.75213 26.7219 7.67444C27.0884 7.26484 27.555 7.07142 28.1154 7.15773C28.3958 7.26546 28.7482 7.56662 28.7912 7.89009C29.1576 9.29115 28.5551 11.1477 27.4915 11.598C26.9741 11.7272 26.4999 11.404 26.1549 11.1023C26.1335 11.8135 26.1545 12.4677 26.6502 12.9204C27.2075 13.543 27.8409 12.836 28.0732 13.0712C27.9005 13.6317 27.2108 13.5368 26.9304 14.0326C25.831 16.0806 28.2529 16.9457 29.1012 18.5391C29.4457 18.8623 29.7653 19.8282 30.0629 19.6305C30.2895 19.5588 29.6899 18.5249 29.4957 17.9861C28.1045 14.2456 31.4494 10.8498 29.7614 6.98457ZM14.8525 5.07444C16.12 5.38093 17.7107 5.08884 17.9884 6.66333C17.8527 6.52777 17.5629 6.00369 16.5542 5.89195C16.0166 5.8324 14.3686 5.89764 14.0144 5.73826C13.6383 5.52413 13.4073 4.93089 13.4347 4.40217C13.4778 4.18306 13.6179 3.83204 13.9653 3.76271C14.2468 4.29346 14.1813 4.8428 14.8525 5.07444ZM23.7239 4.83702C23.382 4.69809 23.4732 5.1148 23.3136 5.25373C23.1997 5.20742 23.0855 5.27684 23.0397 5.16102C23.2676 4.7676 23.3818 4.30457 23.3818 3.79515C23.1997 3.35506 22.4859 3.0116 21.9157 3.05809C21.5283 3.01186 21.7238 3.56751 21.4275 3.54449C21.2449 3.42875 21.233 3.26369 21.2105 3.14795C20.7086 2.61533 20.144 2.25177 19.3235 2.27444C18.8674 2.29755 19.0525 2.75782 18.964 2.98929C18.029 2.54937 16.9585 2.506 15.9325 2.506C15.9096 2.87657 16.2073 3.13017 16.3673 3.40795C16.2989 3.52377 16.1152 3.42822 15.9782 3.42822C16.0238 3.96075 16.0922 4.47 16.3887 4.8636C16.7307 4.97942 16.6432 4.53951 16.9169 4.47C17.3731 4.21551 18.246 4.23977 18.4836 4.446C18.6902 4.8356 18.717 5.17497 18.2677 5.5684C17.9485 6.0548 18.4948 6.7844 18.1136 7.07497C17.9068 7.15177 17.597 6.91435 17.2909 6.94306C16.6579 7.00253 16.2165 6.982 16.0959 6.33977C15.5944 6.4556 15.5125 7.10377 15.381 7.57089C15.5936 7.81435 16.1001 7.54155 16.3011 7.65942C17.2133 8.3772 18.1816 8.10137 19.1853 7.8236C19.9149 7.63844 20.2546 6.966 20.9384 6.64191C21.2668 6.54537 21.1211 6.92271 21.098 7.06164C19.1803 9.02466 16.2073 8.33017 13.7676 9.30262C12.1711 10.2055 11.974 12.0055 11.3126 13.5568C12.3845 13.6032 13.4321 13.4199 14.2983 12.7253C15.4158 11.5676 16.4567 10.6184 17.802 9.87755C18.0529 9.87755 18.3265 9.6228 18.5317 9.87755C18.4861 9.97009 18.4861 10.0397 18.4177 10.1089C16.2852 10.6692 14.7859 12.413 13.4561 14.4752L14.1943 14.7259C17.189 15.5145 17.3647 12.192 19.1205 11.2195C19.2571 11.2657 19.4397 11.4046 19.3713 11.5667C18.2998 12.0993 17.5984 12.9683 17.4386 14.1259C17.3472 14.9826 17.9175 15.793 18.5557 16.1402C18.6469 15.1911 19.2172 14.427 19.7645 13.6629C19.8784 13.5703 20.0501 13.456 20.1869 13.7108L19.6279 14.427C19.1965 15.0675 20.0115 16.5782 20.9235 17.1107C20.9005 15.8603 21.3461 15.4682 21.6883 14.3337C22.0076 13.4078 21.6829 12.3728 21.3231 11.5104C21.3457 11.3714 21.4368 11.1399 21.6648 11.2326C22.003 12.0488 22.1762 12.9531 22.9288 13.3468C22.6409 11.7454 23.4903 10.9962 23.1262 9.67702C23.035 9.26031 22.5331 8.358 22.9462 8.28093C23.3524 8.24324 23.334 9.50804 24.0181 9.50804C23.7453 7.84289 24.8957 6.04831 23.7239 4.83702ZM19.6349 4.33017C19.5924 4.3684 19.4649 4.33444 19.4048 4.37124C19.2444 4.05951 19.4328 3.75675 19.5718 3.52511C19.626 3.51969 19.741 3.49302 19.7861 3.57862C20.0623 4.09817 20.5191 3.97311 20.6829 4.41755C20.0953 4.62955 20.1654 3.85302 19.6349 4.33017ZM22.7778 4.33915C22.5695 4.24644 22.6158 3.89924 22.3147 4.01506C22.0372 4.03844 22.3147 4.45497 21.9675 4.38537C21.8055 4.13089 21.9675 3.7604 22.1989 3.64457C22.5232 3.52902 22.6855 3.8068 22.8937 4.01506C22.8937 4.13089 22.9169 4.2468 22.7778 4.33915ZM12.8278 9.55622C12.3078 10.1816 11.9189 10.8183 11.6285 11.582C10.6794 10.5864 10.5125 9.24582 10.5821 7.90297C11.2997 8.58324 12.1103 9.01346 12.8278 9.55622ZM15.684 20.8784C15.5133 21.9817 16.13 21.2293 16.7673 22.3523L16.8778 22.5736L16.0647 24.8062C15.1805 24.7176 14.3357 23.8427 13.3947 24.0636C13.1825 24.621 13.7616 24.2663 13.9605 24.4879C13.9824 24.9411 13.9222 25.4207 13.6395 25.7788C13.341 26.1567 13.5778 26.6936 13.8314 27.1665C13.9198 27.4541 13.7389 27.697 13.4913 27.8433C13.3643 27.9216 13.3369 27.8646 13.2339 27.9501C13.2377 27.7491 13.2568 27.5402 13.2108 27.4208C13.1805 27.3412 13.0774 27.3342 12.9201 27.472C12.7875 27.8924 12.9815 28.3435 12.368 28.6569L11.4813 28.8432C11.7896 28.134 12.2349 27.9372 12.3233 27.5168C12.2791 27.3844 12.0803 27.3844 11.9917 27.4506C11.5313 27.768 11.1461 28.4303 10.8906 28.8307C10.6298 28.8997 10.1674 28.8198 9.87753 28.8027C10.0692 28.5415 10.1956 28.3254 10.3409 28.1786C10.6783 27.8374 10.866 27.6211 10.988 27.4111C10.8549 27.2206 10.718 27.2951 10.612 27.3668C10.1338 27.5693 9.90099 28.3461 9.4129 28.7296C9.18997 28.9043 8.84819 28.6036 8.42668 28.7277C9.1897 27.7122 9.60322 27.7224 9.68357 27.2561C9.50713 26.9572 9.20108 27.232 9.0473 27.3484C8.49068 27.7034 8.27593 28.8022 7.72428 28.5924C7.61717 28.5517 7.40393 28.7899 7.3793 28.5999C7.43246 27.9078 8.20082 27.7496 8.08357 27.4018C7.99513 27.269 7.88917 27.2327 7.75655 27.2865C7.01433 27.5451 6.95326 28.9369 5.9033 28.6174C5.61593 28.5955 5.50499 28.709 5.35015 28.908C5.04064 28.6429 5.0985 28.0279 5.19593 27.7864C5.32997 27.2911 6.50828 27.7611 6.79548 27.0979C6.79548 26.788 6.46419 26.7496 6.32322 26.8584C5.99148 27.0352 5.81459 27.4336 5.3505 27.1902C5.19308 27.0918 4.94739 26.6581 4.60268 26.885L4.33833 27.2028C4.18366 26.8929 4.48979 26.42 4.71077 26.199C5.27948 25.8212 5.24028 25.9167 5.48242 25.922C5.8721 25.8505 5.90144 26.338 6.4913 26.2871C6.58899 26.2783 6.67379 26.2398 6.7297 26.121C6.5753 25.3291 5.07468 26.0029 5.23122 25.1575C5.18784 24.9659 4.9929 24.9496 4.81104 24.9808C4.72259 25.0913 4.6121 25.1575 4.45726 25.1575C4.41308 24.6489 4.94366 24.5604 5.18668 24.2736C5.71735 24.1632 6.33628 24.1848 6.71193 24.6493C7.2681 25.4118 8.04953 25.5729 8.94108 25.6044C9.2897 25.6169 9.65682 25.5888 10.0358 25.5328C10.3675 25.6776 10.6284 26.2856 11 25.993C11.0247 25.9733 11.0057 25.9141 11.0318 25.8865C11.0741 25.4068 10.0107 25.1939 9.96739 25.0672C9.96224 24.9436 9.91148 24.6728 9.94882 24.4049C10.7372 24.4899 11.1117 25.5767 11.2361 24.9055C10.998 24.4776 10.4851 24.2147 10.007 24.0363C9.97086 23.8241 10.0019 23.5496 10.0019 23.3288C10.3938 23.2727 10.7093 23.8714 11.1438 23.8872C11.4207 23.8973 11.447 23.8026 11.3188 23.576C11.0762 23.1486 10.3889 23.2014 10.0469 22.8597C10.0362 22.5016 9.93726 21.6809 10.1572 21.5332C10.7981 21.6656 10.8929 22.6786 11.4828 22.6475C11.5712 22.0728 10.7091 21.8296 11.107 21.2106C12.2566 19.6851 14.0122 20.9664 15.5949 20.2156L15.684 20.8784ZM16.7336 21.0466C16.8098 21.2419 16.9435 21.4224 16.9964 21.6648L16.9714 22.047C16.8557 21.9776 16.7589 21.8031 16.6433 21.6643C16.4504 21.2536 16.0577 21.3784 16.0011 21.1296C15.9797 21.0359 16.0046 20.8005 15.9989 20.5783L15.9701 20.4023C16.4609 20.5581 16.5735 20.8961 16.7336 21.0466Z" fill="#EEE9E7"/>
<path d="M7.28326 4.07586C7.8621 4.02946 8.46984 4.28404 9.0717 4.46955C9.53473 4.56226 9.97464 4.60262 10.299 4.5331C10.3043 4.74564 11.0355 5.31746 11.6013 6.14768C11.2076 5.96253 10.785 6.09008 10.5072 6.66875C10.4145 6.96982 10.3276 7.31115 10.2583 7.70484C10.1193 8.79293 10.3683 9.97968 10.6692 10.6973C10.9703 11.4149 11.1904 11.6757 11.5608 11.9998C11.532 12.3925 11.4185 12.6253 11.3177 12.9315C10.901 13.7823 10.4151 14.3088 9.58095 14.697C8.56228 15.0674 7.42797 14.9749 6.45553 15.9012C5.29784 14.7204 5.07188 14.3671 3.67108 14.5235C3.14957 14.7951 2.36922 14.605 1.5237 12.758C1.50033 12.5728 1.26922 12.0236 1.2461 11.8384C1.93375 11.317 2.71748 10.2751 2.42122 7.79773C2.3749 7.12635 2.17233 6.5707 1.91748 6.24662C1.66282 5.94573 1.33864 5.87613 1.06086 5.99195C1.20566 5.45382 1.69713 5.45364 2.05019 5.27408C2.28157 5.06555 2.42068 4.8571 2.60575 4.5099C3.13837 4.60253 3.64761 4.55604 4.15713 4.34786C4.85179 4.09319 5.73713 3.84413 6.4781 4.44617C6.71001 4.26102 7.00539 4.12235 7.28326 4.07586ZM1.3269 6.22102C1.49393 6.22102 1.63037 6.35337 1.63037 6.51568C1.63037 6.67782 1.4941 6.81035 1.3269 6.81035C1.1597 6.81035 1.02344 6.67808 1.02344 6.51568C1.02353 6.35319 1.1597 6.22102 1.3269 6.22102ZM11.3799 6.34253C11.5469 6.34253 11.6833 6.47488 11.6833 6.63719C11.6833 6.79942 11.5472 6.93186 11.3799 6.93186C11.2126 6.93186 11.0764 6.79959 11.0764 6.63719C11.0764 6.47462 11.2127 6.34253 11.3799 6.34253Z" fill="#FCD100"/>
<path d="M6.28809 5.68702C6.27733 5.53039 6.24142 5.39315 6.4904 5.26168C6.63707 5.2143 6.82347 5.23342 6.97013 5.25697C7.11698 5.28062 7.26373 5.32799 7.41049 5.30444V5.32799C7.31262 5.37528 7.26311 5.41866 7.1408 5.46595C7.06738 5.48951 6.99396 5.51324 6.92062 5.51324C6.8472 5.53679 6.8472 5.60799 6.74933 5.60799C6.70045 5.63155 6.67591 5.63155 6.65147 5.63155C6.65147 5.63155 6.62702 5.63155 6.62702 5.60799C6.65147 5.58435 6.67591 5.53697 6.62702 5.51324C6.60258 5.48968 6.60258 5.48968 6.57805 5.48968C6.5536 5.48968 6.5536 5.48968 6.52916 5.48968C6.48018 5.51324 6.48018 5.53706 6.48018 5.58435C6.47476 5.62257 6.53387 5.73502 6.63173 5.75884C6.77262 5.82844 7.02151 5.80142 7.23787 5.73102C7.49351 5.68817 8.0336 5.47599 8.4896 5.38693C8.4896 5.38693 8.18462 5.57084 8.12898 5.65359C8.12898 5.65146 8.0904 5.72995 8.07307 5.69786C7.99965 5.72142 7.912 5.71199 7.83858 5.73582C7.51849 5.77502 7.22338 6.01706 6.62151 5.94835C6.41671 5.89599 6.30018 5.75146 6.28809 5.68702ZM5.28596 6.11084H5.26151C5.26151 6.08702 5.28596 6.03991 5.23698 6.01617C5.21253 6.01617 5.21253 6.01617 5.21253 6.01617C5.1392 6.03991 5.18809 6.08728 5.16365 6.11084C5.1392 6.11084 5.1392 6.11084 5.1392 6.11084C5.11467 6.08728 5.1392 6.08728 5.11467 6.08728L5.09022 6.13466C5.11467 6.18204 5.09022 6.22933 5.1392 6.27671C5.16365 6.27671 5.16365 6.27671 5.16365 6.27671H5.18809C5.21253 6.27671 5.21253 6.27671 5.21253 6.27671C5.23698 6.27671 5.26151 6.30044 5.28596 6.27671C5.33289 6.2088 5.33716 6.08844 5.3104 6.08737C5.28596 6.08728 5.28596 6.08728 5.28596 6.11084ZM5.11467 6.37137C5.09022 6.3952 5.09022 6.3952 5.09022 6.41875C5.11467 6.44257 5.1392 6.46613 5.18809 6.48942C5.21253 6.48942 5.26151 6.48942 5.28596 6.46586C5.33485 6.44231 5.3104 6.41848 5.3104 6.39493C5.26151 6.37137 5.18809 6.37137 5.11467 6.37137ZM9.67662 7.19937C9.70107 7.34142 9.67387 7.5264 9.74516 7.65724C9.74845 7.71804 9.72062 7.77546 9.62276 7.82284C9.52498 7.82284 9.4464 7.83635 9.39769 7.88364C9.37325 7.9072 9.37325 7.93102 9.3488 7.95458C9.32436 7.93102 9.32436 7.9072 9.32436 7.88364C9.32436 7.86009 9.3488 7.8128 9.32436 7.8128C9.32027 7.80871 9.29689 7.7504 9.30853 7.76186C9.21067 7.78542 9.05067 7.77529 8.97707 7.84622C8.95262 7.86977 8.95262 7.86977 8.92818 7.8936C8.90373 7.8936 8.90373 7.8936 8.90373 7.8936C8.83031 7.84622 8.97707 7.77529 8.90373 7.728C8.8792 7.70417 8.8792 7.70417 8.8792 7.70417C8.85476 7.70417 8.85476 7.70417 8.85476 7.70417C8.78142 7.72773 8.75689 7.77502 8.70809 7.77502C8.68365 7.75146 8.70809 7.72773 8.70809 7.70417C8.78151 7.63324 8.7864 7.63182 8.7864 7.53715C8.80765 7.4736 8.81085 7.44249 8.90871 7.41884C9.00658 7.39529 9.09076 7.42382 9.18836 7.40026C9.28267 7.40115 9.33893 7.32684 9.32276 7.24204C9.29831 7.19466 9.32276 7.1712 9.27387 7.14737C9.22489 7.14737 9.176 7.14737 9.12702 7.14737C9.00045 7.13769 9.00516 7.20969 8.93787 7.24586L8.89956 7.2512C8.89956 7.20382 8.90062 7.17671 8.77831 7.1296C8.60702 7.08222 8.50916 7.01111 8.48471 6.89271C8.42942 6.73902 8.46631 6.60293 8.39289 6.50826C8.29502 6.53182 8.23822 6.65075 8.14045 6.69822C7.82133 6.84195 8.00418 7.08373 7.83093 7.17795C7.80027 7.19475 7.80987 6.95235 7.76658 6.97733C7.69129 7.02071 7.7712 7.252 7.73325 7.2752C7.72071 7.29146 7.68676 7.34631 7.67876 7.32337C7.65431 7.25431 7.64187 7.06933 7.59911 7.13377C7.51378 7.21049 7.65742 7.39164 7.56853 7.49955C7.54409 7.52311 7.52765 7.55742 7.5032 7.58106C7.5032 7.48533 7.50525 7.48604 7.44916 7.4104C7.32676 7.52577 7.19218 7.58684 7.1728 7.68151C7.09947 7.72889 7.05147 7.728 6.9536 7.728C6.90462 7.77529 6.90169 7.82355 6.82836 7.82355C6.75493 7.82355 6.68676 7.80871 6.6376 7.80871C6.58871 7.80871 6.57458 7.80382 6.54978 7.82737C6.52533 7.85093 6.52533 7.87466 6.50089 7.87466C6.50089 7.87466 6.50089 7.87466 6.47671 7.87466C6.45218 7.85111 6.51013 7.79973 6.46142 7.77617C6.41253 7.75262 6.36329 7.77617 6.33911 7.77617C6.26569 7.79973 6.25653 7.784 6.232 7.83137C6.20756 7.83137 6.20756 7.83137 6.20756 7.83137C6.15867 7.76053 6.28613 7.74764 6.23716 7.67671C6.23716 7.67671 6.23218 7.66684 6.20756 7.66684C6.20756 7.66684 6.17902 7.65697 6.15458 7.65697C6.1056 7.68053 6.1056 7.70435 6.05671 7.70435C6.05671 7.6808 6.05671 7.63342 6.05671 7.60986C6.17893 7.53866 6.19227 7.55173 6.19227 7.45697C6.24116 7.4096 6.31458 7.36231 6.388 7.33849C6.5592 7.33849 6.63662 7.45777 6.80782 7.43422C6.93022 7.41066 6.97013 7.39182 6.97013 7.34453C6.97013 7.32097 7.02018 7.27253 7.02018 7.24862C7.02018 7.2248 7.0864 7.16071 7.06187 7.16071C7.03742 7.16071 6.93751 7.18533 6.88862 7.18533C6.88862 7.16177 6.88862 7.16177 6.88862 7.16177C6.98667 7.11449 6.95076 7.07786 6.99973 7.00693C7.04862 6.8648 7.1128 6.70391 7.38205 6.60942C7.52889 6.58586 7.7296 6.59955 7.85191 6.5048C7.9008 6.45742 7.91111 6.35084 7.88667 6.30346C7.86222 6.27991 7.83778 6.27991 7.81333 6.27991C7.62587 6.26888 7.08827 6.64097 6.6488 6.78204C6.52649 6.82933 6.296 6.91617 6.32071 7.01093C6.32071 7.03448 6.31449 7.05831 6.36329 7.05831C6.38782 7.05831 6.38782 7.05831 6.41227 7.05831C6.41227 7.10542 6.3144 7.12924 6.24098 7.17653C6.14311 7.17653 6.15618 7.13217 6.10711 7.17955C6.03369 7.20311 6.0656 7.20489 6.04098 7.22862C5.97085 7.24382 5.77796 7.10693 5.77662 7.07422C5.86347 6.73866 6.17325 6.67208 5.91111 6.48124C5.8512 6.46577 6.012 6.7136 5.71582 6.93955C5.70231 6.79342 5.73058 6.6864 5.67938 6.72142C5.5488 6.81093 5.73573 6.92924 5.65698 7.09511C5.64942 7.1112 5.78498 7.19022 5.84436 7.31102C5.71582 7.3528 5.49973 7.28169 5.48347 7.17013C5.54409 7.00702 5.46098 6.96026 5.40542 6.94471C5.28125 7.00035 5.46462 7.13751 5.38942 7.20577C5.38231 7.21235 5.34169 7.27111 5.5704 7.37049C5.52142 7.39413 5.38258 7.39591 5.33333 7.37217C5.31965 7.36986 5.2344 7.35466 5.24898 7.26506C5.26356 7.17484 5.24631 7.1304 5.23307 7.07111C5.22409 7.03146 5.16569 7.06844 5.16729 7.07475C5.18409 7.14009 5.19965 7.23369 5.14187 7.30062C5.09742 7.28533 5.0472 7.22444 5.03262 7.18524C5.02187 7.2048 5.0376 7.12782 5.07271 7.06835C5.11342 6.99946 5.11209 6.96604 5.02027 6.94071C5.01271 6.93866 4.96951 7.21333 4.99689 7.27706C4.92356 7.368 4.88747 7.47635 4.71609 7.52373C4.6928 7.4744 4.78036 7.37591 4.77218 7.33226C4.65867 7.36009 4.66809 7.53724 4.46427 7.53031C4.40729 7.55644 4.3784 7.58364 4.34285 7.5776C4.3184 7.5776 4.27342 7.57849 4.27342 7.57849L4.25022 7.55386C4.29911 7.50649 4.29805 7.48382 4.27342 7.46026C4.22453 7.43644 4.20009 7.4488 4.17547 7.4488C4.15093 7.4488 4.12649 7.4488 4.12649 7.47235C4.02845 7.54329 4.14871 7.68871 4.00196 7.75964C3.8552 7.75964 3.92862 7.84195 3.83076 7.86569H3.78178C3.83076 7.8184 3.8552 7.79484 3.78178 7.74746C3.75733 7.74746 3.73289 7.74746 3.70845 7.74746C3.63502 7.77102 3.66267 7.80942 3.5648 7.78586C3.49138 7.78586 3.44249 7.80942 3.39351 7.83324C3.36907 7.8568 3.36907 7.88071 3.36907 7.88071C3.34462 7.88071 3.34462 7.88071 3.34462 7.88071C3.32045 7.83324 3.39351 7.78595 3.36907 7.73857C3.36773 7.6688 3.3136 7.69866 3.26605 7.7208C3.21716 7.7208 3.21716 7.7208 3.21716 7.7208C3.16818 7.7208 3.14373 7.74435 3.09476 7.768V7.79182C3.07031 7.79182 3.07031 7.768 3.07031 7.768C3.07031 7.67342 3.18258 7.62702 3.13369 7.53226C3.15814 7.48489 3.19173 7.42391 3.2408 7.37653C3.2408 7.32924 3.28969 7.28186 3.36302 7.2344C3.41191 7.2344 3.50978 7.21084 3.5832 7.25795C3.63209 7.28151 3.69547 7.27084 3.7688 7.2472C3.98898 7.17609 4.18489 7.05786 4.33147 6.93946C4.25805 6.89208 4.22098 6.84257 4.17218 6.74782C4.2512 6.72248 4.41565 6.73617 4.40018 6.73013C4.37387 6.72017 4.34365 6.67022 4.31369 6.67582C3.98133 6.74115 3.87111 6.59795 3.90791 6.54204C3.94214 6.49066 4.13618 6.54675 4.20258 6.54675C4.22951 6.54675 4.16018 6.5048 4.12809 6.48951C4.12116 6.46053 3.90489 6.51715 3.79165 6.46595C3.7736 6.4576 3.68516 6.3672 3.69636 6.35395C3.7336 6.30942 3.928 6.3152 4.00747 6.34968C3.99351 6.32168 3.96036 6.30915 3.93769 6.29484C3.88356 6.26124 3.6912 6.32053 3.55627 6.27271C3.50738 6.22542 3.52053 6.20062 3.47165 6.12951C3.52053 6.12951 3.52053 6.12951 3.52053 6.12951C3.52053 6.12951 3.54507 6.15306 3.56951 6.15306C3.64294 6.12951 3.64293 6.12951 3.66738 6.10568C3.69182 6.05839 3.67209 6.03182 3.64765 5.98453C3.64765 5.96097 3.56116 5.94835 3.56116 5.94835C3.51227 5.97217 3.5208 5.99546 3.44747 6.01937C3.42302 6.01937 3.37831 6.03191 3.35387 6.00808C3.28045 5.96071 3.28045 5.90213 3.18258 5.87848C3.13369 5.83119 3.13369 5.80764 3.13369 5.76026L3.20702 5.78382C3.256 5.78382 3.256 5.76026 3.256 5.76026C3.256 5.71288 3.256 5.69768 3.28045 5.69768L3.32942 5.67413C3.35387 5.67413 3.35387 5.69768 3.37831 5.69768C3.42729 5.69768 3.45173 5.67413 3.45173 5.67413C3.45173 5.62684 3.45173 5.58204 3.42729 5.55857H3.40276C3.40276 5.55857 3.40276 5.55857 3.37831 5.55857C3.35387 5.55857 3.32942 5.58213 3.30489 5.58213C3.256 5.55857 3.22436 5.53911 3.19991 5.51528C3.10205 5.39688 3.31796 5.32853 3.1712 5.23386C3.14676 5.23386 3.14676 5.23386 3.14676 5.21022C3.14676 5.18666 3.19565 5.18666 3.22009 5.18666C3.26907 5.18666 3.26907 5.23413 3.31796 5.23413H3.3424C3.39138 5.21048 3.37431 5.18275 3.42311 5.15893C3.472 5.0879 3.472 5.04035 3.39858 4.99306C3.39858 4.9695 3.3744 4.9695 3.3744 4.9695C3.3744 4.94595 3.39858 4.94595 3.42338 4.94595H3.44782C3.54569 4.9695 3.54569 5.04062 3.59458 5.06417C3.64356 5.06417 3.62045 5.0519 3.66933 5.07546H3.71831C3.74276 5.02835 3.71831 4.98088 3.71831 4.93359C3.74276 4.93359 3.7672 4.95715 3.79165 4.95715C3.84062 5.00453 3.84062 5.0519 3.84062 5.09928C4.01182 5.26488 3.84062 5.43075 3.79165 5.59635C3.84089 5.80284 4.08676 5.95831 4.30702 6.10471C4.33147 6.10471 4.33147 6.10471 4.33147 6.10471H4.38036C4.40489 5.99742 4.57093 5.86053 4.57991 5.79448C4.53049 5.82639 4.51058 5.82657 4.47173 5.83271C4.44631 5.65475 4.47556 5.65155 4.50916 5.55413C4.55805 5.41208 4.46018 5.21528 4.5632 5.09946C4.63662 5.0759 4.71005 5.12302 4.75893 5.09946C4.8568 5.0047 5.03725 5.0359 5.13511 4.96479C5.20845 4.94124 5.2512 4.94488 5.29982 4.96844C5.37325 5.01573 5.48658 5.03182 5.60889 5.05564C5.68231 5.07919 5.70676 5.12666 5.78018 5.12666H5.87805C5.90249 5.12666 5.90249 5.12666 5.90249 5.12666C5.95138 5.12666 5.95138 5.15022 5.95138 5.17404C5.97342 5.34346 5.88285 5.43857 5.95885 5.61182C5.98818 5.66915 6.00791 5.75502 5.96311 5.88764C5.94649 5.93662 5.84169 5.65377 5.83787 5.73644C5.81858 5.82808 5.95093 6.01164 5.99165 6.02151C6.03156 6.048 6.14045 6.06097 6.21565 6.07564C6.28907 6.0992 6.44845 6.10364 6.52169 6.12728C6.87609 6.13715 7.1256 6.11217 7.44507 6.03973C7.5184 6.01617 7.59173 5.98951 7.6896 5.96586C8.07876 5.88257 8.27182 5.82319 8.58987 5.89431C8.73662 5.91786 8.95591 5.98942 9.10285 5.94213C9.19173 5.90933 9.29298 5.85519 9.26853 5.80791C9.26853 5.76053 9.20907 5.71751 9.16018 5.69733C9.11165 5.67102 9.07822 5.67982 9.07822 5.67982C9.02933 5.67982 8.98462 5.69999 8.98462 5.72355C8.96018 5.74711 8.9664 5.74755 8.9664 5.77128C8.94196 5.77128 8.93618 5.77431 8.91138 5.77431C8.73787 5.73235 8.85058 5.58915 8.83982 5.57813C8.80898 5.58737 8.77173 5.65519 8.74285 5.67875C8.67645 5.73324 8.65778 5.69422 8.60898 5.65733C8.58862 5.64239 8.7144 5.53057 8.66213 5.54871C8.60329 5.56933 8.60649 5.60702 8.55165 5.64879C8.52009 5.67297 8.49129 5.66337 8.45787 5.67795C8.41458 5.69653 8.37298 5.68266 8.29609 5.70675C8.24756 5.73057 8.4608 5.47351 8.43662 5.49733C8.52809 5.42026 8.61653 5.38124 8.63093 5.37928C8.66 5.31573 8.65636 5.28079 8.68098 5.23333C8.77502 5.19324 8.77867 5.14915 8.89511 5.14915C8.82169 5.19662 8.84418 5.26924 8.86862 5.34035C9.01547 5.45875 9.37965 5.50222 9.44062 5.68577C9.48996 5.83928 9.43493 5.96053 9.33316 6.06177C9.21547 6.14719 9.04925 6.16053 8.9304 6.18284C8.9304 6.25386 9.03049 6.41795 9.07965 6.46524C9.17751 6.51253 9.36293 6.456 9.43636 6.50337C9.45698 6.52337 9.53449 6.60551 9.52027 6.63831C9.49636 6.69333 9.29485 6.63831 9.34853 6.69777C9.41556 6.77155 9.58347 6.65013 9.73227 6.82124C9.79333 6.92471 9.38018 6.7656 9.51493 6.9368C9.66587 6.97875 9.83929 7.07564 9.85005 7.12613C9.85005 7.17662 9.86009 7.18995 9.86009 7.22853H9.8112C9.71191 7.18053 9.7208 7.19937 9.67662 7.19937ZM5.57956 5.44826C5.50613 5.47182 5.38382 5.44826 5.3104 5.47182C5.3104 5.47182 5.3104 5.47182 5.28596 5.47182C5.28596 5.49573 5.28596 5.49573 5.28596 5.51919C5.28596 5.54284 5.3104 5.54284 5.33458 5.54311C5.35911 5.59022 5.31013 5.63777 5.35911 5.66133C5.38356 5.66133 5.408 5.66133 5.408 5.66133C5.45698 5.63777 5.45698 5.59022 5.45698 5.56666V5.54311C5.48142 5.54311 5.50587 5.54311 5.53031 5.54311C5.604 5.51955 5.62845 5.44835 5.62845 5.40097C5.604 5.40088 5.604 5.42444 5.57956 5.44826ZM5.33609 5.15546C5.33609 5.20257 5.36053 5.24995 5.40942 5.2975C5.43396 5.2975 5.48285 5.2975 5.48285 5.2975C5.50729 5.2975 5.50729 5.2975 5.50729 5.2975L5.33609 5.15546ZM5.15067 5.1599C5.15067 5.20728 5.17511 5.25457 5.22409 5.30195C5.24853 5.30195 5.29742 5.30195 5.29742 5.30195C5.32196 5.30195 5.32196 5.30195 5.32196 5.30195C5.27289 5.25457 5.24845 5.18346 5.15067 5.1599ZM4.95085 5.1623C4.95085 5.20968 4.97538 5.25697 5.02427 5.30444C5.04871 5.30444 5.09769 5.30444 5.09769 5.30444C5.12213 5.30444 5.12213 5.30444 5.12213 5.30444C5.07325 5.25706 5.04871 5.18586 4.95085 5.1623ZM4.87013 5.40071C4.89458 5.44799 4.89458 5.49537 4.91902 5.54284H5.01689C5.04142 5.54284 5.04142 5.54284 5.04142 5.54284C5.06587 5.56639 5.04142 5.59022 5.04142 5.63751C5.06587 5.63751 5.09031 5.66106 5.11476 5.66106C5.11476 5.66106 5.11476 5.66106 5.11476 5.63751C5.16373 5.61368 5.13929 5.58995 5.11476 5.56639C5.11476 5.54284 5.13929 5.54284 5.13929 5.54284H5.16373C5.18818 5.51919 5.18818 5.49537 5.16373 5.47182H4.94356L4.87013 5.40071ZM4.60071 5.25866C4.64969 5.25866 4.64969 5.28222 4.64969 5.30604C4.67413 5.35342 4.62525 5.37697 4.64969 5.40071C4.69858 5.40071 4.72311 5.35333 4.72311 5.32977C4.74756 5.28239 4.74756 5.23511 4.69858 5.21155C4.66213 5.19377 4.64205 5.19359 4.61582 5.1823C4.5968 5.1951 4.58489 5.22159 4.60071 5.25866ZM4.81938 6.66293C4.79342 6.61288 4.78916 6.51724 4.75529 6.52711C4.71636 6.53831 4.70338 6.61324 4.71662 6.71635C4.59813 6.72506 4.57289 6.63911 4.55013 6.6008C4.46347 6.45448 4.65245 6.33777 4.50649 6.19519C4.46987 6.34426 4.44205 6.33146 4.43129 6.46746C4.41805 6.64364 4.51591 6.72044 4.54356 6.748C4.58356 6.7936 4.66951 6.85866 4.71396 6.78097C4.76489 6.93093 4.80187 7.01502 4.84631 7.01351C4.85298 6.86986 4.86516 6.81688 4.81938 6.66293ZM5.72631 5.49537C5.72631 5.49537 5.72631 5.49537 5.70187 5.49537C5.70187 5.56639 5.72631 5.63751 5.67742 5.70844C5.67742 5.77928 5.57956 5.80311 5.48169 5.82666C5.48169 5.85022 5.48169 5.89759 5.45725 5.94506C5.43271 5.96888 5.40827 5.99244 5.35938 5.99244C5.3104 5.99244 5.28596 5.99244 5.26151 5.96888C5.23707 5.92151 5.26151 5.89795 5.3104 5.85048C5.3104 5.82666 5.33485 5.77937 5.3104 5.75582C5.26151 5.73226 5.18809 5.73226 5.1392 5.75582C5.11467 5.75582 5.11467 5.75582 5.11467 5.75582C5.09022 5.80319 5.1392 5.85048 5.18809 5.89795C5.21253 5.92177 5.18809 5.96906 5.1392 5.99262C5.11467 5.99262 5.06578 5.99262 5.04133 5.99262C4.94347 5.94524 4.99236 5.87422 4.94347 5.82693C4.89449 5.82693 4.87005 5.80311 4.82116 5.77955C4.67431 5.70871 4.72329 5.59022 4.72329 5.47182H4.69876C4.64987 5.51919 4.64987 5.54311 4.64987 5.59022C4.67405 5.61377 4.64987 5.66133 4.67405 5.68471C4.69849 5.75582 4.74773 5.82675 4.87005 5.87404C4.91893 5.89759 4.89449 5.94506 4.91893 5.99244C5.1392 6.13448 4.94347 6.34773 5.09022 6.51333C5.11467 6.53706 5.16365 6.56062 5.23698 6.56062C5.33485 6.53706 5.38382 6.48977 5.38382 6.4424C5.35938 6.25324 5.40827 6.06355 5.55511 5.89795C5.604 5.85048 5.70187 5.82675 5.75076 5.75582C5.77529 5.68488 5.82418 5.56639 5.72631 5.49537ZM5.87333 5.30595C5.87529 5.30195 5.92542 5.20382 5.88409 5.21555C5.81538 5.2351 5.74942 5.23786 5.72649 5.28239C5.70205 5.32977 5.72649 5.35999 5.77547 5.40746C5.78862 5.42142 5.79991 5.43102 5.79991 5.43102C5.82436 5.38364 5.77556 5.35333 5.87333 5.30595Z" fill="#017DC3"/>
<path d="M6.28818 8.83901C6.27742 8.68238 6.24151 8.54514 6.49049 8.41367C6.63716 8.36638 6.82356 8.38541 6.97022 8.40896C7.11707 8.43261 7.26382 8.47998 7.41058 8.45643V8.47998C7.31271 8.52736 7.2632 8.57065 7.14089 8.61794C7.06747 8.64149 6.99405 8.66523 6.92071 8.66523C6.84729 8.68878 6.84729 8.75998 6.74942 8.75998C6.70054 8.78354 6.676 8.78354 6.65156 8.78354C6.65156 8.78354 6.62711 8.78354 6.62711 8.75998C6.65156 8.73634 6.676 8.68896 6.62711 8.66523C6.60267 8.64167 6.60267 8.64167 6.57814 8.64167C6.55369 8.64167 6.55369 8.64167 6.52925 8.64167C6.48027 8.66523 6.48027 8.68896 6.48027 8.73634C6.47485 8.77456 6.53396 8.88701 6.63182 8.91083C6.77271 8.98043 7.0216 8.95341 7.23796 8.88301C7.4936 8.84016 8.03369 8.62798 8.48969 8.53892C8.48969 8.53892 8.18471 8.72283 8.12907 8.80558C8.12907 8.80345 8.09049 8.88194 8.07316 8.84985C7.99974 8.87341 7.91209 8.86398 7.83867 8.88781C7.51858 8.92701 7.22347 9.16905 6.6216 9.10034C6.4168 9.04798 6.30027 8.90345 6.28818 8.83901ZM5.28605 9.26283H5.2616C5.2616 9.23901 5.28605 9.19198 5.23707 9.16816C5.21262 9.16816 5.21262 9.16816 5.21262 9.16816C5.13929 9.19198 5.18818 9.23927 5.16374 9.26283C5.13929 9.26283 5.13929 9.26283 5.13929 9.26283C5.11476 9.23927 5.13929 9.23927 5.11476 9.23927L5.09031 9.28665C5.11476 9.33403 5.09031 9.38132 5.13929 9.4287C5.16374 9.4287 5.16374 9.4287 5.16374 9.4287H5.18818C5.21262 9.4287 5.21262 9.4287 5.21262 9.4287C5.23707 9.4287 5.2616 9.45243 5.28605 9.4287C5.33298 9.36078 5.33725 9.24043 5.31049 9.23936C5.28605 9.23927 5.28605 9.23927 5.28605 9.26283ZM5.11476 9.52336C5.09031 9.54719 5.09031 9.54719 5.09031 9.57074C5.11476 9.59456 5.13929 9.61812 5.18818 9.64141C5.21262 9.64141 5.2616 9.64141 5.28605 9.61785C5.33494 9.5943 5.31049 9.57047 5.31049 9.54692C5.2616 9.52336 5.18818 9.52336 5.11476 9.52336ZM9.67671 10.3514C9.70116 10.4934 9.67396 10.6784 9.74525 10.8092C9.74854 10.87 9.72071 10.9275 9.62285 10.9748C9.52507 10.9748 9.44649 10.9883 9.39778 11.0357C9.37334 11.0593 9.37334 11.083 9.34889 11.1066C9.32436 11.0829 9.32436 11.0592 9.32436 11.0356C9.32436 11.0121 9.3488 10.9647 9.32436 10.9647C9.32027 10.9607 9.29689 10.9023 9.30854 10.9138C9.21067 10.9373 9.05067 10.9272 8.97707 10.9981C8.95262 11.0217 8.95262 11.0217 8.92818 11.0455C8.90374 11.0455 8.90374 11.0455 8.90374 11.0455C8.83031 10.9981 8.97707 10.9272 8.90374 10.8799C8.8792 10.8561 8.8792 10.8561 8.8792 10.8561C8.85476 10.8561 8.85476 10.8561 8.85476 10.8561C8.78142 10.8796 8.75689 10.9269 8.70809 10.9269C8.68365 10.9034 8.70809 10.8796 8.70809 10.8561C8.78151 10.7851 8.7864 10.7837 8.7864 10.6891C8.80765 10.6255 8.81085 10.5944 8.90871 10.5708C9.00658 10.5473 9.09076 10.5757 9.18836 10.5522C9.28267 10.5531 9.33894 10.4787 9.32276 10.3939C9.29831 10.3467 9.32276 10.3231 9.27387 10.2993C9.22489 10.2993 9.176 10.2993 9.12702 10.2993C9.00045 10.2897 9.00516 10.3616 8.93787 10.3978L8.89956 10.4031C8.89956 10.3558 8.90062 10.3286 8.77831 10.2815C8.60702 10.2341 8.50916 10.163 8.48471 10.0446C8.42942 9.89092 8.46631 9.75492 8.39289 9.66016C8.29502 9.68372 8.23822 9.80265 8.14045 9.85012C7.82134 9.99385 8.00418 10.2356 7.83094 10.3299C7.80027 10.3467 7.80987 10.1043 7.76658 10.1292C7.69129 10.1726 7.7712 10.404 7.73325 10.4271C7.72071 10.4434 7.68676 10.4982 7.67876 10.4753C7.65431 10.4063 7.64187 10.2213 7.59911 10.2857C7.51378 10.3624 7.65742 10.5435 7.56854 10.6515C7.54409 10.675 7.52765 10.7093 7.5032 10.733C7.5032 10.6373 7.50525 10.6379 7.44916 10.5624C7.32676 10.6778 7.19218 10.7388 7.1728 10.8335C7.09947 10.8809 7.05147 10.88 6.9536 10.88C6.90462 10.9274 6.90169 10.9755 6.82836 10.9755C6.75494 10.9755 6.68676 10.9608 6.6376 10.9608C6.58871 10.9608 6.57458 10.9558 6.54978 10.9794C6.52534 11.0029 6.52534 11.0267 6.50089 11.0267C6.50089 11.0267 6.50089 11.0267 6.47671 11.0267C6.45218 11.0032 6.51014 10.9518 6.46142 10.9283C6.41254 10.9047 6.36329 10.9283 6.33911 10.9283C6.26569 10.9518 6.25654 10.9362 6.232 10.9835C6.20756 10.9835 6.20756 10.9835 6.20756 10.9835C6.15867 10.9126 6.28614 10.8997 6.23716 10.8289C6.23716 10.8289 6.23218 10.819 6.20756 10.819C6.20756 10.819 6.17902 10.8091 6.15458 10.8091C6.1056 10.8327 6.1056 10.8565 6.05671 10.8565C6.05671 10.833 6.05671 10.7856 6.05671 10.762C6.17894 10.6908 6.19227 10.7039 6.19227 10.6091C6.24116 10.5618 6.31458 10.5145 6.388 10.4907C6.5592 10.4907 6.63662 10.6099 6.80782 10.5865C6.93022 10.5629 6.97014 10.544 6.97014 10.4967C6.97014 10.4731 7.02018 10.4247 7.02018 10.4008C7.02018 10.377 7.0864 10.3129 7.06187 10.3129C7.03742 10.3129 6.93751 10.3375 6.88862 10.3375C6.88862 10.3139 6.88862 10.3139 6.88862 10.3139C6.98667 10.2666 6.95076 10.23 6.99974 10.1591C7.04862 10.017 7.1128 9.85607 7.38205 9.76159C7.52889 9.73803 7.7296 9.75172 7.85191 9.65696C7.9008 9.60959 7.91111 9.50301 7.88667 9.45563C7.86222 9.43207 7.83778 9.43207 7.81334 9.43207C7.62587 9.42105 7.08827 9.79314 6.6488 9.93421C6.52649 9.98159 6.296 10.0683 6.32071 10.1631C6.32071 10.1867 6.31449 10.2105 6.36329 10.2105C6.38782 10.2105 6.38782 10.2105 6.41227 10.2105C6.41227 10.2576 6.3144 10.2814 6.24098 10.3287C6.14311 10.3287 6.15618 10.2843 6.10711 10.3317C6.03369 10.3553 6.0656 10.3571 6.04098 10.3808C5.97085 10.396 5.77796 10.2591 5.77662 10.2264C5.86347 9.89083 6.17325 9.82425 5.91111 9.63341C5.8512 9.61794 6.012 9.86576 5.71582 10.0917C5.70231 9.94559 5.73058 9.83856 5.67938 9.87367C5.5488 9.96319 5.73574 10.0814 5.65698 10.2474C5.64942 10.2635 5.78498 10.3425 5.84436 10.4633C5.71582 10.5051 5.49974 10.4339 5.48347 10.3224C5.54409 10.1592 5.46098 10.1125 5.40542 10.097C5.28125 10.1526 5.46462 10.2899 5.38942 10.358C5.38231 10.3646 5.34169 10.4234 5.5704 10.5227C5.52142 10.5464 5.38258 10.5482 5.33334 10.5244C5.31965 10.5221 5.2344 10.5069 5.24898 10.4173C5.26356 10.3271 5.24631 10.2827 5.23307 10.2234C5.22409 10.1837 5.16569 10.2207 5.16729 10.227C5.18409 10.2923 5.19965 10.3859 5.14187 10.4529C5.09742 10.4376 5.0472 10.3767 5.03262 10.3375C5.02187 10.3571 5.0376 10.2801 5.07271 10.2206C5.11342 10.1517 5.11209 10.1183 5.02027 10.093C5.01271 10.0909 4.96951 10.3656 4.99689 10.4293C4.92356 10.5203 4.88747 10.6287 4.71609 10.676C4.6928 10.6267 4.78036 10.5282 4.77218 10.4845C4.65867 10.5123 4.66809 10.6895 4.46427 10.6826C4.40729 10.7087 4.3784 10.7359 4.34285 10.7299C4.3184 10.7299 4.27342 10.7308 4.27342 10.7308L4.25022 10.7062C4.29911 10.6588 4.29805 10.6362 4.27342 10.6126C4.22454 10.5889 4.20009 10.6011 4.17547 10.6011C4.15094 10.6011 4.12649 10.6011 4.12649 10.6247C4.02845 10.6956 4.14871 10.8411 4.00196 10.912C3.8552 10.912 3.92862 10.9943 3.83076 11.0181H3.78178C3.83076 10.9707 3.8552 10.9472 3.78178 10.8998C3.75733 10.8998 3.73289 10.8998 3.70845 10.8998C3.63502 10.9234 3.66267 10.9618 3.5648 10.9382C3.49138 10.9382 3.44249 10.9618 3.39351 10.9856C3.36907 11.0091 3.36907 11.0331 3.36907 11.0331C3.34462 11.0331 3.34462 11.0331 3.34462 11.0331C3.32045 10.9856 3.39351 10.9383 3.36907 10.8909C3.36773 10.8211 3.3136 10.851 3.26605 10.8731C3.21716 10.8731 3.21716 10.8731 3.21716 10.8731C3.16818 10.8731 3.14373 10.8967 3.09476 10.9203V10.9442C3.07031 10.9442 3.07031 10.9203 3.07031 10.9203C3.07031 10.8258 3.18258 10.7794 3.13369 10.6846C3.15814 10.6373 3.19173 10.5763 3.2408 10.5289C3.2408 10.4816 3.28969 10.4342 3.36302 10.3867C3.41191 10.3867 3.50978 10.3632 3.5832 10.4103C3.63209 10.4339 3.69547 10.4232 3.7688 10.3995C3.98898 10.3284 4.18489 10.2102 4.33147 10.0918C4.25805 10.0444 4.22098 9.99492 4.17218 9.90016C4.2512 9.87483 4.41565 9.88852 4.40018 9.88256C4.37387 9.87261 4.34365 9.82256 4.31369 9.82816C3.98134 9.8935 3.87111 9.7503 3.90791 9.69439C3.94213 9.64301 4.13618 9.6991 4.20258 9.6991C4.22951 9.6991 4.16018 9.65714 4.12809 9.64185C4.12116 9.61287 3.90489 9.6695 3.79165 9.6183C3.7736 9.60994 3.68516 9.51954 3.69636 9.5063C3.7336 9.46167 3.928 9.46745 4.00747 9.50203C3.99351 9.47403 3.96036 9.4615 3.93769 9.44727C3.88356 9.41358 3.6912 9.47287 3.55627 9.42514C3.50738 9.37776 3.52053 9.35296 3.47165 9.28194C3.52053 9.28194 3.52053 9.28194 3.52053 9.28194C3.52053 9.28194 3.54507 9.3055 3.56951 9.3055C3.64294 9.28194 3.64294 9.28194 3.66738 9.25821C3.69182 9.21083 3.67209 9.18434 3.64765 9.13696C3.64765 9.11341 3.56116 9.10078 3.56116 9.10078C3.51227 9.12461 3.5208 9.1479 3.44747 9.17181C3.42302 9.17181 3.37831 9.18434 3.35387 9.16052C3.28045 9.11314 3.28045 9.05456 3.18258 9.03092C3.13369 8.98363 3.13369 8.96007 3.13369 8.9127L3.20702 8.93625C3.256 8.93625 3.256 8.9127 3.256 8.9127C3.256 8.86532 3.256 8.85012 3.28045 8.85012L3.32942 8.82656C3.35387 8.82656 3.35387 8.85012 3.37831 8.85012C3.42729 8.85012 3.45173 8.82656 3.45173 8.82656C3.45173 8.77918 3.45173 8.73447 3.42729 8.71092H3.40276C3.40276 8.71092 3.40276 8.71092 3.37831 8.71092C3.35387 8.71092 3.32942 8.73447 3.30489 8.73447C3.256 8.71092 3.22436 8.69136 3.19991 8.66763C3.10205 8.54932 3.31796 8.48087 3.1712 8.3862C3.14676 8.3862 3.14676 8.38621 3.14676 8.36256C3.14676 8.339 3.19565 8.339 3.22009 8.339C3.26907 8.339 3.26907 8.38647 3.31796 8.38647H3.3424C3.39138 8.36274 3.37431 8.335 3.42311 8.31127C3.472 8.24025 3.472 8.19278 3.39858 8.1454C3.39858 8.12185 3.3744 8.12185 3.3744 8.12185C3.3744 8.09829 3.39858 8.09829 3.42338 8.09829H3.44782C3.54569 8.12185 3.54569 8.19296 3.59458 8.21652C3.64356 8.21652 3.62045 8.20425 3.66934 8.2278H3.71831C3.74276 8.18069 3.71831 8.13323 3.71831 8.08594C3.74276 8.08594 3.7672 8.10949 3.79165 8.10949C3.84062 8.15678 3.84062 8.20425 3.84062 8.25163C4.01182 8.41723 3.84062 8.58309 3.79165 8.74869C3.84089 8.95518 4.08676 9.11065 4.30702 9.25705C4.33147 9.25705 4.33147 9.25705 4.33147 9.25705H4.38036C4.40489 9.14976 4.57094 9.01287 4.57991 8.94683C4.53049 8.97874 4.51058 8.97892 4.47174 8.98514C4.44631 8.80718 4.47556 8.80398 4.50916 8.70656C4.55805 8.56452 4.46018 8.36772 4.5632 8.25189C4.63662 8.22834 4.71005 8.27545 4.75894 8.25189C4.8568 8.15714 5.03725 8.18834 5.13511 8.11723C5.20845 8.09367 5.2512 8.09732 5.29982 8.12087C5.37325 8.16816 5.48658 8.18434 5.60889 8.20807C5.68231 8.23163 5.70676 8.27909 5.78018 8.27909H5.87805C5.90249 8.27909 5.90249 8.27909 5.90249 8.27909C5.95138 8.27909 5.95138 8.30265 5.95138 8.32638C5.97342 8.49581 5.88285 8.59092 5.95885 8.76416C5.98818 8.82149 6.00791 8.90736 5.96311 9.04007C5.94649 9.08905 5.84169 8.80621 5.83787 8.88878C5.81858 8.98043 5.95094 9.16398 5.99165 9.17385C6.03156 9.20034 6.14045 9.21332 6.21565 9.22798C6.28907 9.25154 6.44845 9.25598 6.52169 9.27963C6.87609 9.2895 7.1256 9.26452 7.44507 9.19207C7.5184 9.16852 7.59174 9.14176 7.6896 9.11821C8.07876 9.03492 8.27182 8.97554 8.58987 9.04665C8.73662 9.07021 8.95591 9.14176 9.10285 9.09447C9.19174 9.06167 9.29298 9.00754 9.26854 8.96025C9.26854 8.91287 9.20907 8.86985 9.16018 8.84967C9.11165 8.82336 9.07822 8.83216 9.07822 8.83216C9.02934 8.83216 8.98462 8.85234 8.98462 8.87589C8.96018 8.89945 8.9664 8.8999 8.9664 8.92372C8.94196 8.92372 8.93618 8.92665 8.91138 8.92665C8.73787 8.88469 8.85058 8.74149 8.83982 8.73047C8.80898 8.73972 8.77174 8.80754 8.74285 8.83109C8.67645 8.88558 8.65778 8.84656 8.60898 8.80976C8.58862 8.79474 8.7144 8.68292 8.66214 8.70114C8.60329 8.72167 8.60649 8.75945 8.55165 8.80114C8.52009 8.82532 8.49129 8.81572 8.45787 8.83029C8.41458 8.84896 8.37298 8.83501 8.29609 8.85909C8.24756 8.88292 8.4608 8.62585 8.43662 8.64967C8.52809 8.57261 8.61654 8.53358 8.63094 8.53163C8.66 8.46807 8.65636 8.43314 8.68098 8.38567C8.77502 8.34558 8.77867 8.30149 8.89511 8.30149C8.82169 8.34896 8.84418 8.42158 8.86862 8.49269C9.01547 8.61109 9.37965 8.65456 9.44062 8.83812C9.48996 8.99172 9.43494 9.11287 9.33316 9.21412C9.21547 9.29954 9.04925 9.31287 8.9304 9.33518C8.9304 9.40621 9.03049 9.5703 9.07965 9.61759C9.17751 9.66496 9.36294 9.60834 9.43636 9.65572C9.45698 9.67572 9.53449 9.75785 9.52027 9.79065C9.49636 9.84567 9.29485 9.79065 9.34854 9.85012C9.41556 9.9239 9.58347 9.80239 9.73227 9.9735C9.79334 10.077 9.38018 9.91785 9.51494 10.0891C9.66587 10.1311 9.83929 10.228 9.85005 10.2784C9.85005 10.3289 9.86009 10.3422 9.86009 10.3808H9.8112C9.712 10.3325 9.72089 10.3514 9.67671 10.3514ZM5.57965 8.60025C5.50622 8.62381 5.38391 8.60025 5.31049 8.62381C5.31049 8.62381 5.31049 8.62381 5.28605 8.62381C5.28605 8.64772 5.28605 8.64772 5.28605 8.67109C5.28605 8.69483 5.31049 8.69483 5.33467 8.69501C5.3592 8.74212 5.31022 8.78967 5.3592 8.81323C5.38365 8.81323 5.40809 8.81323 5.40809 8.81323C5.45707 8.78967 5.45707 8.74212 5.45707 8.71856V8.69501C5.48151 8.69501 5.50596 8.69501 5.5304 8.69501C5.60409 8.67145 5.62854 8.60025 5.62854 8.55287C5.60409 8.55287 5.60409 8.57643 5.57965 8.60025ZM5.33618 8.30745C5.33618 8.35456 5.36062 8.40194 5.40951 8.44949C5.43405 8.44949 5.48294 8.44949 5.48294 8.44949C5.50738 8.44949 5.50738 8.44949 5.50738 8.44949L5.33618 8.30745ZM5.15076 8.31189C5.15076 8.35918 5.1752 8.40656 5.22418 8.45394C5.24862 8.45394 5.29751 8.45394 5.29751 8.45394C5.32205 8.45394 5.32205 8.45394 5.32205 8.45394C5.27298 8.40656 5.24854 8.33545 5.15076 8.31189ZM4.95094 8.31429C4.95094 8.36167 4.97547 8.40896 5.02436 8.45643C5.0488 8.45643 5.09778 8.45643 5.09778 8.45643C5.12222 8.45643 5.12222 8.45643 5.12222 8.45643C5.07334 8.40905 5.0488 8.33785 4.95094 8.31429ZM4.87022 8.55269C4.89467 8.60007 4.89467 8.64736 4.91911 8.69483H5.01698C5.04151 8.69483 5.04151 8.69483 5.04151 8.69483C5.06596 8.71838 5.04151 8.74212 5.04151 8.78949C5.06596 8.78949 5.0904 8.81305 5.11485 8.81305C5.11485 8.81305 5.11485 8.81305 5.11485 8.78949C5.16382 8.76567 5.13938 8.74194 5.11485 8.71838C5.11485 8.69483 5.13938 8.69483 5.13938 8.69483H5.16382C5.18827 8.67109 5.18827 8.64736 5.16382 8.62381H4.94365L4.87022 8.55269ZM4.6008 8.41065C4.64978 8.41065 4.64978 8.43421 4.64978 8.45794C4.67422 8.50532 4.62533 8.52887 4.64978 8.55261C4.69867 8.55261 4.7232 8.50523 4.7232 8.48167C4.74765 8.43429 4.74765 8.387 4.69867 8.36345C4.66222 8.34567 4.64213 8.34549 4.61591 8.3342C4.59689 8.34709 4.58498 8.37358 4.6008 8.41065ZM4.81947 9.81492C4.79351 9.76487 4.78925 9.66923 4.75538 9.6791C4.71645 9.6903 4.70347 9.76523 4.71671 9.86834C4.59822 9.87696 4.57298 9.7911 4.55022 9.7527C4.46356 9.60639 4.65253 9.48967 4.50658 9.3471C4.46996 9.49616 4.44213 9.48336 4.43138 9.61936C4.41813 9.79554 4.516 9.87234 4.54365 9.8999C4.58365 9.9455 4.6696 10.0106 4.71405 9.93287C4.76498 10.0828 4.80196 10.1669 4.8464 10.1654C4.85307 10.0219 4.86525 9.96888 4.81947 9.81492ZM5.7264 8.64736C5.7264 8.64736 5.7264 8.64736 5.70196 8.64736C5.70196 8.71838 5.7264 8.78949 5.67751 8.86043C5.67751 8.93127 5.57965 8.9551 5.48178 8.97865C5.48178 9.00221 5.48178 9.04958 5.45734 9.09705C5.4328 9.12087 5.40836 9.14443 5.35947 9.14443C5.31049 9.14443 5.28605 9.14443 5.2616 9.12087C5.23716 9.0735 5.2616 9.04994 5.31049 9.00247C5.31049 8.97865 5.33494 8.93136 5.31049 8.90781C5.2616 8.88425 5.18818 8.88425 5.13929 8.90781C5.11476 8.90781 5.11476 8.90781 5.11476 8.90781C5.09031 8.9551 5.13929 9.00247 5.18818 9.04994C5.21262 9.07376 5.18818 9.12105 5.13929 9.14461C5.11476 9.14461 5.06587 9.14461 5.04142 9.14461C4.94356 9.09723 4.99245 9.02621 4.94356 8.97892C4.89458 8.97892 4.87014 8.95509 4.82125 8.93154C4.6744 8.86069 4.72338 8.74221 4.72338 8.62389H4.69885C4.64996 8.67118 4.64996 8.69509 4.64996 8.74221C4.67414 8.76576 4.64996 8.81332 4.67414 8.83669C4.69858 8.90781 4.74782 8.97874 4.87014 9.02603C4.91902 9.04958 4.89458 9.09705 4.91902 9.14443C5.13929 9.28647 4.94356 9.49972 5.09031 9.66532C5.11476 9.68914 5.16374 9.71261 5.23707 9.71261C5.33494 9.68905 5.38391 9.64176 5.38391 9.59439C5.35947 9.40523 5.40836 9.21554 5.5552 9.04994C5.60409 9.00247 5.70196 8.97874 5.75085 8.90781C5.77538 8.83687 5.82427 8.71838 5.7264 8.64736ZM5.87342 8.45794C5.87538 8.45394 5.92551 8.35581 5.88418 8.36754C5.81547 8.38709 5.74951 8.38985 5.72658 8.43438C5.70214 8.48176 5.72658 8.51198 5.77556 8.55945C5.78871 8.57341 5.8 8.58301 5.8 8.58301C5.82445 8.53572 5.77565 8.50532 5.87342 8.45794Z" fill="#017DC3"/>
<path d="M6.30327 12.0149C6.29252 11.8583 6.2566 11.7209 6.50558 11.5895C6.65234 11.5423 6.83865 11.5613 6.98532 11.5848C7.13216 11.6085 7.27892 11.6559 7.42567 11.6323V11.6559C7.3278 11.7032 7.27829 11.7465 7.15598 11.7938C7.08256 11.8174 7.00914 11.8412 6.9358 11.8412C6.86238 11.8647 6.86238 11.9359 6.76452 11.9359C6.71563 11.9595 6.69109 11.9595 6.66665 11.9595C6.66665 11.9595 6.6422 11.9595 6.6422 11.9359C6.66665 11.9122 6.69109 11.8649 6.6422 11.8412C6.61776 11.8176 6.61776 11.8176 6.59323 11.8176C6.56878 11.8176 6.56878 11.8176 6.54434 11.8176C6.49536 11.8412 6.49536 11.865 6.49536 11.9123C6.49003 11.9505 6.54905 12.063 6.64692 12.0868C6.7878 12.1564 7.03669 12.1294 7.25305 12.059C7.50869 12.0161 8.04878 11.8039 8.50478 11.7148C8.50478 11.7148 8.1998 11.8987 8.14416 11.9815C8.14416 11.9793 8.10558 12.0578 8.08825 12.0258C8.01483 12.0494 7.92709 12.0399 7.85376 12.0637C7.53358 12.1029 7.23856 12.3449 6.63669 12.2762C6.43189 12.2238 6.31545 12.0792 6.30327 12.0149ZM5.30123 12.4386H5.27678C5.27678 12.4148 5.30123 12.3678 5.25225 12.3439C5.2278 12.3439 5.2278 12.3439 5.2278 12.3439C5.15447 12.3678 5.20336 12.415 5.17892 12.4386C5.15447 12.4386 5.15447 12.4386 5.15447 12.4386C5.12994 12.415 5.15447 12.415 5.12994 12.415L5.10549 12.4623C5.12994 12.5097 5.10549 12.557 5.15447 12.6044C5.17892 12.6044 5.17892 12.6044 5.17892 12.6044H5.20336C5.2278 12.6044 5.2278 12.6044 5.2278 12.6044C5.25225 12.6044 5.27678 12.628 5.30123 12.6044C5.34816 12.5364 5.35243 12.4161 5.32567 12.415C5.30123 12.415 5.30123 12.415 5.30123 12.4386ZM5.12994 12.6992C5.10549 12.723 5.10549 12.723 5.10549 12.7465C5.12994 12.7703 5.15447 12.7939 5.20336 12.8172C5.2278 12.8172 5.27678 12.8172 5.30123 12.7936C5.35012 12.7701 5.32567 12.7462 5.32567 12.7228C5.27678 12.6992 5.20336 12.6992 5.12994 12.6992ZM9.69189 13.5271C9.71634 13.6692 9.68914 13.8542 9.76043 13.985C9.76372 14.0459 9.73589 14.1033 9.63803 14.1506C9.54025 14.1506 9.46176 14.1641 9.41296 14.2115C9.38852 14.235 9.38852 14.2589 9.36407 14.2823C9.33963 14.2588 9.33963 14.235 9.33963 14.2115C9.33963 14.1879 9.36407 14.1406 9.33963 14.1406C9.33563 14.1366 9.31225 14.0782 9.32389 14.0896C9.22603 14.1132 9.06603 14.1031 8.99243 14.174C8.96798 14.1975 8.96798 14.1975 8.94354 14.2214C8.91909 14.2214 8.91909 14.2214 8.91909 14.2214C8.84567 14.174 8.99243 14.1031 8.91909 14.0558C8.89456 14.0319 8.89456 14.0319 8.89456 14.0319C8.87012 14.0319 8.87012 14.0319 8.87012 14.0319C8.79678 14.0555 8.77225 14.1029 8.72336 14.1029C8.69892 14.0793 8.72336 14.0555 8.72336 14.0319C8.79678 13.961 8.80167 13.9597 8.80167 13.8649C8.82292 13.8014 8.82612 13.7702 8.92398 13.7467C9.02185 13.7231 9.10603 13.7516 9.20363 13.728C9.29785 13.7289 9.3542 13.6546 9.33794 13.5698C9.31349 13.5225 9.33794 13.499 9.28905 13.4751C9.24007 13.4751 9.19118 13.4751 9.1422 13.4751C9.01563 13.4655 9.02034 13.5375 8.95305 13.5736L8.91465 13.579C8.91465 13.5317 8.91572 13.5046 8.79349 13.4574C8.6222 13.41 8.52434 13.3389 8.49989 13.2206C8.44469 13.0668 8.48149 12.9308 8.40807 12.8361C8.3102 12.8597 8.25349 12.9786 8.15563 13.0261C7.83652 13.1699 8.01945 13.4116 7.8462 13.5058C7.81554 13.5227 7.82514 13.2803 7.78185 13.3052C7.70656 13.3486 7.78647 13.5799 7.74852 13.603C7.73598 13.6192 7.70212 13.6742 7.69403 13.6512C7.66958 13.5822 7.65723 13.3973 7.61438 13.4616C7.52905 13.5383 7.67269 13.7195 7.5838 13.8275C7.55936 13.851 7.54292 13.8854 7.51847 13.909C7.51847 13.8134 7.52052 13.814 7.46452 13.7384C7.34212 13.8538 7.20754 13.9149 7.18816 14.0095C7.11483 14.0569 7.06683 14.056 6.96896 14.056C6.91998 14.1034 6.91705 14.1516 6.84372 14.1516C6.77029 14.1516 6.70212 14.1367 6.65296 14.1367C6.60407 14.1367 6.58994 14.1318 6.56523 14.1553C6.54078 14.1789 6.54078 14.2027 6.51634 14.2027C6.51634 14.2027 6.51634 14.2027 6.49216 14.2027C6.46763 14.1791 6.52558 14.1278 6.47678 14.1042C6.42789 14.0806 6.37865 14.1042 6.35447 14.1042C6.28105 14.1278 6.27198 14.1121 6.24736 14.1594C6.22292 14.1594 6.22292 14.1594 6.22292 14.1594C6.17403 14.0886 6.30149 14.0757 6.25252 14.0048C6.25252 14.0048 6.24754 13.995 6.22292 13.995C6.22292 13.995 6.19447 13.9851 6.17003 13.9851C6.12105 14.0086 6.12105 14.0325 6.07216 14.0325C6.07216 14.0089 6.07216 13.9615 6.07216 13.938C6.19447 13.8667 6.20772 13.8798 6.20772 13.7851C6.2566 13.7378 6.33003 13.6904 6.40345 13.6666C6.57465 13.6666 6.65207 13.786 6.82327 13.7624C6.94567 13.7389 6.98558 13.72 6.98558 13.6726C6.98558 13.6491 7.03563 13.6006 7.03563 13.5767C7.03563 13.5529 7.10185 13.4888 7.0774 13.4888C7.05296 13.4888 6.95305 13.5134 6.90416 13.5134C6.90416 13.4899 6.90416 13.4899 6.90416 13.4899C7.00229 13.4425 6.96629 13.406 7.01527 13.335C7.06416 13.1929 7.12834 13.032 7.39767 12.9375C7.54452 12.914 7.74514 12.9277 7.86745 12.8329C7.91634 12.7855 7.92665 12.679 7.9022 12.6316C7.87776 12.608 7.85332 12.608 7.82887 12.608C7.6414 12.597 7.10389 12.9691 6.66443 13.1102C6.54212 13.1575 6.31163 13.2443 6.33634 13.3391C6.33634 13.3627 6.33012 13.3864 6.37892 13.3864C6.40345 13.3864 6.40345 13.3864 6.42789 13.3864C6.42789 13.4335 6.33003 13.4574 6.2566 13.5047C6.15874 13.5047 6.17172 13.4603 6.12265 13.5077C6.04923 13.5312 6.08114 13.533 6.0566 13.5567C5.98647 13.5719 5.79358 13.435 5.79225 13.4023C5.879 13.0668 6.18878 13.0002 5.92674 12.8094C5.86674 12.7939 6.02763 13.0417 5.73145 13.2677C5.71803 13.1216 5.74629 13.0145 5.69509 13.0496C5.56443 13.1391 5.75145 13.2574 5.6726 13.4233C5.66505 13.4394 5.8006 13.5184 5.85998 13.6392C5.73145 13.681 5.51536 13.6098 5.49909 13.4983C5.55972 13.3351 5.47669 13.2885 5.42114 13.2729C5.29696 13.3286 5.48034 13.4658 5.40514 13.534C5.39803 13.5406 5.35732 13.5993 5.58612 13.6987C5.53714 13.7224 5.39829 13.7241 5.34905 13.7004C5.33536 13.6981 5.25012 13.6829 5.26469 13.5933C5.27927 13.503 5.26212 13.4586 5.24878 13.3993C5.2398 13.3597 5.1814 13.3967 5.183 13.403C5.19972 13.4683 5.21536 13.5619 5.15758 13.6288C5.11323 13.6135 5.06292 13.5527 5.04834 13.5134C5.03758 13.5329 5.05332 13.456 5.08843 13.3966C5.12914 13.3276 5.12772 13.2942 5.03598 13.2688C5.02843 13.2668 4.98523 13.5414 5.0126 13.6052C4.93927 13.6961 4.90309 13.8046 4.7318 13.8518C4.70843 13.8025 4.79607 13.7039 4.78789 13.6604C4.67438 13.6882 4.6838 13.8653 4.47998 13.8584C4.423 13.8846 4.39403 13.9118 4.35856 13.9058C4.33412 13.9058 4.28923 13.9067 4.28923 13.9067L4.26603 13.8821C4.31492 13.8347 4.31385 13.812 4.28923 13.7885C4.24034 13.7646 4.21589 13.777 4.19127 13.777C4.16674 13.777 4.14229 13.777 4.14229 13.8006C4.04416 13.8715 4.16452 14.0169 4.01767 14.0879C3.87092 14.0879 3.94434 14.1702 3.84647 14.194H3.79749C3.84647 14.1466 3.87092 14.123 3.79749 14.0757C3.77305 14.0757 3.7486 14.0757 3.72416 14.0757C3.65074 14.0992 3.67829 14.1376 3.58043 14.1141C3.507 14.1141 3.4582 14.1376 3.40914 14.1614C3.38469 14.185 3.38469 14.2089 3.38469 14.2089C3.36025 14.2089 3.36025 14.2089 3.36025 14.2089C3.33607 14.1614 3.40914 14.1142 3.38469 14.0668C3.38336 13.997 3.32923 14.0269 3.28167 14.049C3.23278 14.049 3.23278 14.049 3.23278 14.049C3.1838 14.049 3.15936 14.0726 3.11038 14.0963V14.12C3.08594 14.12 3.08594 14.0963 3.08594 14.0963C3.08594 14.0017 3.1982 13.9552 3.14923 13.8606C3.17367 13.8133 3.20736 13.7522 3.25634 13.7049C3.25634 13.6575 3.30523 13.6102 3.37865 13.5628C3.42754 13.5628 3.5254 13.5392 3.59883 13.5863C3.64772 13.6099 3.711 13.5991 3.78443 13.5756C4.0046 13.5045 4.20052 13.3862 4.34709 13.2678C4.27367 13.2206 4.2366 13.171 4.18772 13.0762C4.26674 13.0509 4.43127 13.0646 4.4158 13.0586C4.38949 13.0486 4.35927 12.9987 4.32931 13.0042C3.99696 13.0695 3.88665 12.9263 3.92354 12.8704C3.95776 12.819 4.1518 12.8751 4.2182 12.8751C4.24514 12.8751 4.1758 12.8332 4.14372 12.8179C4.13678 12.7889 3.92052 12.8455 3.80727 12.7943C3.78914 12.786 3.70078 12.6956 3.71189 12.6823C3.74914 12.6377 3.94354 12.6435 4.023 12.6781C4.00914 12.6501 3.97589 12.6375 3.95323 12.6233C3.89909 12.5897 3.70683 12.649 3.5718 12.6012C3.52291 12.5538 3.53607 12.529 3.48718 12.458C3.53607 12.458 3.53607 12.458 3.53607 12.458C3.53607 12.458 3.5606 12.4815 3.58505 12.4815C3.65847 12.458 3.65847 12.458 3.68291 12.4342C3.70736 12.3868 3.68763 12.3603 3.66318 12.3129C3.66318 12.2894 3.57669 12.2767 3.57669 12.2767C3.5278 12.3006 3.53634 12.3238 3.46292 12.3478C3.43847 12.3478 3.39376 12.3603 3.36931 12.3365C3.29589 12.2891 3.29589 12.2305 3.19803 12.207C3.14914 12.1596 3.14914 12.136 3.14914 12.0886L3.22247 12.1122C3.27145 12.1122 3.27145 12.0886 3.27145 12.0886C3.27145 12.0414 3.27145 12.0261 3.29589 12.0261L3.34487 12.0025C3.36931 12.0025 3.36932 12.0261 3.39376 12.0261C3.44274 12.0261 3.46718 12.0025 3.46718 12.0025C3.46718 11.9551 3.46718 11.9104 3.44274 11.8869H3.4182C3.4182 11.8869 3.4182 11.8869 3.39376 11.8869C3.36932 11.8869 3.34487 11.9104 3.32034 11.9104C3.27145 11.8869 3.2398 11.8673 3.21536 11.8436C3.11749 11.7252 3.3334 11.6568 3.18665 11.5622C3.1622 11.5622 3.1622 11.5622 3.1622 11.5384C3.1622 11.5149 3.21109 11.5149 3.23554 11.5149C3.28452 11.5149 3.28451 11.5623 3.3334 11.5623H3.35785C3.40683 11.5386 3.38976 11.511 3.43847 11.4871C3.48736 11.4161 3.48736 11.3686 3.41394 11.3212C3.41394 11.2976 3.38976 11.2976 3.38976 11.2976C3.38976 11.2741 3.41394 11.2741 3.43874 11.2741H3.46318C3.56105 11.2976 3.56105 11.3687 3.60994 11.3924C3.65892 11.3924 3.6358 11.3801 3.68469 11.4037H3.73367C3.75811 11.3566 3.73367 11.3091 3.73367 11.2617C3.75811 11.2617 3.78256 11.2853 3.807 11.2853C3.85598 11.3327 3.85598 11.38 3.85598 11.4274C4.02709 11.593 3.85598 11.7589 3.807 11.9245C3.85625 12.131 4.10212 12.2864 4.32238 12.4329C4.34683 12.4329 4.34683 12.4329 4.34683 12.4329H4.39572C4.42025 12.3256 4.58629 12.1887 4.59527 12.1227C4.54585 12.1545 4.52585 12.1548 4.48709 12.1609C4.46167 11.983 4.49092 11.9798 4.5246 11.8823C4.57349 11.7403 4.47563 11.5435 4.57865 11.4277C4.65207 11.4041 4.72549 11.4512 4.77438 11.4277C4.87225 11.3329 5.05269 11.3641 5.15056 11.293C5.22389 11.2695 5.26665 11.273 5.31527 11.2967C5.38869 11.344 5.50203 11.3601 5.62434 11.3839C5.69776 11.4074 5.7222 11.4549 5.79563 11.4549H5.89349C5.91794 11.4549 5.91794 11.4549 5.91794 11.4549C5.96683 11.4549 5.96683 11.4784 5.96683 11.5023C5.98887 11.6717 5.8982 11.7668 5.9742 11.94C6.00363 11.9974 6.02336 12.0832 5.97847 12.2158C5.96176 12.2648 5.85705 11.982 5.85323 12.0646C5.83394 12.1562 5.96629 12.3398 6.00692 12.3496C6.04683 12.3761 6.15572 12.3891 6.23092 12.4038C6.30434 12.4273 6.46372 12.4318 6.53696 12.4554C6.89136 12.4653 7.14087 12.4403 7.46034 12.3678C7.53367 12.3443 7.60709 12.3175 7.70496 12.294C8.09412 12.2107 8.28718 12.1513 8.60523 12.2224C8.75198 12.246 8.97127 12.3175 9.1182 12.2702C9.20709 12.2374 9.30834 12.1833 9.28389 12.136C9.28389 12.0886 9.22443 12.0456 9.17545 12.0255C9.12692 11.9987 9.09349 12.0075 9.09349 12.0075C9.0446 12.0075 8.99989 12.0277 8.99989 12.0512C8.97545 12.0748 8.98167 12.0752 8.98167 12.099C8.95723 12.099 8.95145 12.102 8.92665 12.102C8.75323 12.06 8.86594 11.9167 8.85518 11.9058C8.82443 11.9151 8.78709 11.9829 8.7582 12.0064C8.69172 12.0609 8.67314 12.0219 8.62425 11.9851C8.60398 11.97 8.72967 11.8583 8.6774 11.8765C8.61856 11.897 8.62176 11.9347 8.56692 11.9765C8.53536 12.0007 8.50647 11.9911 8.47305 12.0056C8.42976 12.0242 8.38825 12.0103 8.31136 12.0344C8.26283 12.0582 8.47607 11.8012 8.4518 11.825C8.54336 11.7479 8.63172 11.709 8.64612 11.707C8.67518 11.6434 8.67154 11.6085 8.69616 11.561C8.79029 11.5209 8.79394 11.4769 8.91038 11.4769C8.83696 11.5243 8.85945 11.597 8.88389 11.6681C9.03074 11.7865 9.39492 11.83 9.4558 12.0135C9.50514 12.1671 9.45012 12.2883 9.34834 12.3895C9.23065 12.475 9.06443 12.4883 8.94558 12.5106C8.94558 12.5816 9.04576 12.7457 9.09483 12.793C9.19269 12.8404 9.37812 12.7838 9.45154 12.8311C9.47207 12.851 9.54958 12.9333 9.53545 12.9661C9.51154 13.0211 9.31003 12.9661 9.36372 13.0255C9.43074 13.0993 9.59874 12.9778 9.74745 13.1489C9.80852 13.2524 9.39536 13.0933 9.5302 13.2646C9.68105 13.3065 9.85456 13.4034 9.86532 13.4539C9.86532 13.5044 9.87536 13.5176 9.87536 13.5562H9.82656C9.72718 13.5083 9.73598 13.5271 9.69189 13.5271ZM5.59483 11.776C5.5214 11.7996 5.39909 11.776 5.32567 11.7996C5.32567 11.7996 5.32567 11.7996 5.30123 11.7996C5.30123 11.8235 5.30123 11.8235 5.30123 11.8469C5.30123 11.8706 5.32567 11.8706 5.34994 11.8708C5.37447 11.9179 5.32549 11.9655 5.37447 11.989C5.39892 11.989 5.42336 11.989 5.42336 11.989C5.47234 11.9655 5.47234 11.9179 5.47234 11.8943V11.8708C5.49678 11.8708 5.52123 11.8708 5.54567 11.8708C5.61936 11.8472 5.6438 11.776 5.6438 11.7287C5.61927 11.7287 5.61927 11.7523 5.59483 11.776ZM5.35127 11.4832C5.35127 11.5303 5.37572 11.5777 5.4246 11.6253C5.44914 11.6253 5.49803 11.6253 5.49803 11.6253C5.52247 11.6253 5.52247 11.6253 5.52247 11.6253L5.35127 11.4832ZM5.16585 11.4878C5.16585 11.5351 5.19029 11.5824 5.23927 11.6298C5.26372 11.6298 5.3126 11.6298 5.3126 11.6298C5.33714 11.6298 5.33714 11.6298 5.33714 11.6298C5.28816 11.5824 5.26372 11.5113 5.16585 11.4878ZM4.96612 11.4901C4.96612 11.5375 4.99065 11.5847 5.03954 11.6322C5.06398 11.6322 5.11296 11.6322 5.11296 11.6322C5.1374 11.6322 5.1374 11.6322 5.1374 11.6322C5.08852 11.5848 5.06398 11.5137 4.96612 11.4901ZM4.88532 11.7285C4.90976 11.7759 4.90976 11.8231 4.9342 11.8706H5.03207C5.0566 11.8706 5.0566 11.8706 5.0566 11.8706C5.08105 11.8942 5.0566 11.918 5.0566 11.9653C5.08105 11.9653 5.10549 11.9888 5.12994 11.9888C5.12994 11.9888 5.12994 11.9888 5.12994 11.9653C5.17892 11.9415 5.15447 11.9177 5.12994 11.8942C5.12994 11.8706 5.15447 11.8706 5.15447 11.8706H5.17892C5.20336 11.8469 5.20336 11.8231 5.17892 11.7996H4.95874L4.88532 11.7285ZM4.61598 11.5864C4.66496 11.5864 4.66496 11.61 4.66496 11.6338C4.6894 11.6811 4.64052 11.7047 4.66496 11.7285C4.71385 11.7285 4.73838 11.6811 4.73838 11.6575C4.76283 11.6103 4.76283 11.5629 4.71385 11.5393C4.67731 11.5215 4.65732 11.5214 4.63109 11.5101C4.61198 11.5229 4.60007 11.5494 4.61598 11.5864ZM4.83456 12.9907C4.8086 12.9406 4.80434 12.845 4.77047 12.855C4.73154 12.8661 4.71856 12.9411 4.7318 13.0442C4.61331 13.0528 4.58816 12.967 4.56532 12.9286C4.47865 12.7822 4.66763 12.6656 4.52167 12.523C4.48505 12.6719 4.45723 12.6591 4.44647 12.7951C4.43323 12.9713 4.53109 13.0481 4.55865 13.0757C4.59865 13.1213 4.6846 13.1863 4.72905 13.1086C4.78007 13.2586 4.81696 13.3427 4.86149 13.3412C4.86825 13.1976 4.88043 13.1446 4.83456 12.9907ZM5.74158 11.8232C5.74158 11.8232 5.74158 11.8232 5.71714 11.8232C5.71714 11.8943 5.74158 11.9654 5.69269 12.0362C5.69269 12.1071 5.59483 12.1309 5.49696 12.1544C5.49696 12.178 5.49696 12.2254 5.47252 12.2728C5.44798 12.2966 5.42354 12.3202 5.37465 12.3202C5.32567 12.3202 5.30123 12.3202 5.27678 12.2966C5.25234 12.2493 5.27678 12.2258 5.32567 12.1782C5.32567 12.1544 5.35012 12.1071 5.32567 12.0836C5.27678 12.06 5.20336 12.06 5.15447 12.0836C5.12994 12.0836 5.12994 12.0836 5.12994 12.0836C5.10549 12.1309 5.15447 12.1782 5.20336 12.2257C5.2278 12.2494 5.20336 12.2968 5.15447 12.3204C5.12994 12.3204 5.08105 12.3204 5.0566 12.3204C4.95874 12.273 5.00763 12.202 4.95874 12.1547C4.90976 12.1547 4.88532 12.1309 4.83643 12.1074C4.68958 12.0365 4.73856 11.9181 4.73856 11.7997H4.71403C4.66514 11.847 4.66514 11.8709 4.66514 11.9181C4.68931 11.9416 4.66514 11.9892 4.68932 12.0126C4.71376 12.0837 4.763 12.1546 4.88523 12.2019C4.93412 12.2254 4.90967 12.2729 4.93412 12.3203C5.15438 12.4623 4.95865 12.6756 5.1054 12.8412C5.12985 12.865 5.17883 12.8886 5.25216 12.8886C5.35003 12.865 5.399 12.8176 5.399 12.7702C5.37456 12.5811 5.42345 12.3914 5.57029 12.2258C5.61918 12.1783 5.71696 12.1545 5.76594 12.0837C5.79056 12.0127 5.83936 11.8942 5.74158 11.8232ZM5.8886 11.6338C5.89056 11.6297 5.9406 11.5317 5.89936 11.5433C5.83065 11.5629 5.76469 11.5657 5.74185 11.6102C5.7174 11.6575 5.74185 11.6878 5.79083 11.7352C5.80398 11.7491 5.81527 11.7588 5.81527 11.7588C5.83963 11.7115 5.79074 11.6811 5.8886 11.6338Z" fill="#017DC3"/>
</g>
<defs>
<clipPath id="clip0_2001_513">
<rect width="31.5556" height="40" fill="white"/>
</clipPath>
</defs>
</svg>
