<svg width="49" height="32" viewBox="0 0 49 32" fill="none" xmlns="http://www.w3.org/2000/svg">
<g clip-path="url(#clip0_2001_521)">
<path d="M47.6216 0H1.48977C0.973876 0 0.555664 0.418211 0.555664 0.934102V31.0659C0.555664 31.5818 0.973876 32 1.48977 32H47.6216C48.1375 32 48.5557 31.5818 48.5557 31.0659V0.934102C48.5557 0.418211 48.1375 0 47.6216 0Z" fill="#0446CA"/>
<path d="M24.5589 3.55469L24.9581 4.78305L26.2497 4.7831L25.2048 5.54232L25.6039 6.77072L24.5589 6.01158L23.514 6.77072L23.9131 5.54232L22.8682 4.7831L24.1598 4.78305L24.5589 3.55469Z" fill="#FFCC00"/>
<path d="M24.5589 24.8906L24.9581 26.119L26.2497 26.119L25.2048 26.8783L25.6039 28.1067L24.5589 27.3475L23.514 28.1067L23.9131 26.8783L22.8682 26.119L24.1598 26.119L24.5589 24.8906Z" fill="#FFCC00"/>
<path d="M35.223 14.2227L35.6222 15.451L36.9138 15.4511L35.8689 16.2103L36.2679 17.4387L35.223 16.6795L34.178 17.4387L34.5771 16.2103L33.5322 15.4511L34.8238 15.451L35.223 14.2227Z" fill="#FFCC00"/>
<path d="M13.8871 14.2227L14.2862 15.451L15.5778 15.4511L14.5329 16.2103L14.932 17.4387L13.8871 16.6795L12.8421 17.4387L13.2412 16.2103L12.1963 15.4511L13.4879 15.451L13.8871 14.2227Z" fill="#FFCC00"/>
<path d="M19.223 23.4648L19.6222 24.6932L20.9138 24.6933L19.8689 25.4525L20.2679 26.6809L19.223 25.9217L18.178 26.6809L18.5771 25.4525L17.5322 24.6933L18.8238 24.6932L19.223 23.4648Z" fill="#FFCC00"/>
<path d="M29.8871 4.97656L30.2862 6.20493L31.5778 6.20498L30.5329 6.9642L30.932 8.19259L29.8871 7.43345L28.8421 8.19259L29.2412 6.9642L28.1963 6.20498L29.4879 6.20493L29.8871 4.97656Z" fill="#FFCC00"/>
<path d="M29.8871 23.4648L30.2862 24.6932L31.5778 24.6933L30.5329 25.4525L30.932 26.6809L29.8871 25.9217L28.8421 26.6809L29.2412 25.4525L28.1963 24.6933L29.4879 24.6932L29.8871 23.4648Z" fill="#FFCC00"/>
<path d="M33.8011 19.5547L34.2003 20.7831L35.4919 20.7831L34.447 21.5423L34.8461 22.7707L33.8011 22.0116L32.7562 22.7707L33.1552 21.5423L32.1104 20.7831L33.4019 20.7831L33.8011 19.5547Z" fill="#FFCC00"/>
<path d="M19.223 4.97656L19.6222 6.20493L20.9138 6.20498L19.8689 6.9642L20.2679 8.19259L19.223 7.43345L18.178 8.19259L18.5771 6.9642L17.5322 6.20498L18.8238 6.20493L19.223 4.97656Z" fill="#FFCC00"/>
<path d="M33.8011 8.89062L34.2003 10.119L35.4919 10.119L34.447 10.8783L34.8461 12.1067L33.8011 11.3475L32.7562 12.1067L33.1552 10.8783L32.1104 10.119L33.4019 10.119L33.8011 8.89062Z" fill="#FFCC00"/>
<path d="M15.3089 19.5547L15.7081 20.7831L16.9997 20.7831L15.9548 21.5423L16.3539 22.7707L15.3089 22.0116L14.264 22.7707L14.6631 21.5423L13.6182 20.7831L14.9098 20.7831L15.3089 19.5547Z" fill="#FFCC00"/>
<path d="M15.3089 8.89062L15.7081 10.119L16.9997 10.119L15.9548 10.8783L16.3539 12.1067L15.3089 11.3475L14.264 12.1067L14.6631 10.8783L13.6182 10.119L14.9098 10.119L15.3089 8.89062Z" fill="#FFCC00"/>
</g>
<defs>
<clipPath id="clip0_2001_521">
<rect width="48" height="32" fill="white" transform="translate(0.555664)"/>
</clipPath>
</defs>
</svg>
