<svg width="95" height="26" viewBox="0 0 95 26" fill="none" xmlns="http://www.w3.org/2000/svg">
<g clip-path="url(#clip0_1_8431)">
<path d="M13.9692 7.54963L11.8735 6.32034C11.5268 6.11718 10.9598 6.11718 10.6131 6.32034L8.51744 7.54963C8.06529 7.81469 8.0645 8.25038 8.51507 8.51783L10.6138 9.76382C10.9598 9.9693 11.5268 9.9693 11.8728 9.76382L13.9707 8.51783C14.4213 8.25038 14.4213 7.81469 13.9692 7.54963Z" fill="#4231C8"/>
<path d="M22.1386 6.02622L12.016 0.151181C11.6693 -0.0503938 11.1015 -0.0503938 10.7548 0.151181L0.63143 6.02622C0.283869 6.2278 0 6.7238 0 7.12774V18.8723C0 19.2762 0.283869 19.7722 0.63143 19.9738L10.754 25.8488C11.1007 26.0504 11.6685 26.0504 12.0153 25.8488L22.1378 19.9738C22.4854 19.7722 22.7693 19.2762 22.7693 18.8723V7.12774C22.7693 6.7238 22.4862 6.2278 22.1386 6.02622ZM17.6344 8.75142L11.8729 12.1727C11.527 12.3782 10.96 12.3782 10.614 12.1727L6.9591 10.003C6.5046 9.73318 6.13344 9.9482 6.13344 10.4799V17.0256C6.13344 17.5477 5.75915 17.7755 5.3015 17.5311L4.68107 17.2001C4.32487 17.0097 4.03313 16.5216 4.03313 16.1145V8.99989C4.03313 8.5959 4.31621 8.09911 4.6622 7.89595L10.6132 4.4041C10.96 4.20093 11.527 4.20093 11.8737 4.4041L17.6321 7.78246C18.0842 8.04753 18.085 8.48399 17.6344 8.75142Z" fill="#4231C8"/>
<path d="M34.2769 21.3042C34.2769 21.1892 34.3336 21.1242 34.4562 21.1242H34.7975C34.895 21.1242 34.9847 21.19 34.9847 21.3042V23.1272C34.9847 23.1843 34.9602 23.2423 34.8706 23.2994L34.8541 23.316C34.3501 23.6938 33.7068 23.9073 32.9991 23.9073C31.2825 23.9073 29.8994 22.5121 29.8994 20.779C29.8994 19.0457 31.2904 17.6426 33.007 17.6426C33.3978 17.6426 33.7714 17.7172 34.1212 17.856C34.398 17.9625 34.9508 18.2172 34.9508 18.4228C34.9508 18.4553 34.943 18.4886 34.9265 18.5131L34.748 18.8092C34.707 18.8751 34.6583 18.9076 34.6095 18.9076C34.5687 18.9076 34.512 18.8909 34.4554 18.8417C34.0568 18.5545 33.544 18.3656 33.0157 18.3656C31.6081 18.3656 30.6079 19.5234 30.6079 20.7876C30.6079 22.1344 31.7143 23.1931 33.0078 23.1931C33.5693 23.1931 34.0411 22.9962 34.2769 22.8233V21.3042Z" fill="#4231C8"/>
<path d="M40.5559 23.1198C40.6534 23.1198 40.7344 23.1857 40.7344 23.3088V23.6373C40.7344 23.7357 40.6613 23.8174 40.5559 23.8174H37.0984C36.9765 23.8174 36.9199 23.7603 36.9199 23.6373V17.9067C36.9199 17.8083 36.9851 17.7266 37.1071 17.7266H37.4404C37.5458 17.7266 37.619 17.7924 37.619 17.9067V23.1198H40.5559Z" fill="#4231C8"/>
<path d="M47.966 20.7874C47.966 22.5119 46.5749 23.907 44.8505 23.907C43.1261 23.907 41.7507 22.5119 41.7507 20.7786C41.7507 19.0455 43.1418 17.6423 44.8584 17.6423C46.5749 17.6423 47.966 19.0391 47.966 20.7874ZM44.8584 23.2016C46.1763 23.2016 47.2496 22.1175 47.2496 20.7715C47.2496 19.4256 46.1755 18.3582 44.8584 18.3582C43.5412 18.3582 42.4585 19.4422 42.4585 20.7715C42.4585 22.1008 43.524 23.2016 44.8584 23.2016Z" fill="#4231C8"/>
<path d="M53.4718 20.5581C53.9924 20.8375 54.3422 21.4287 54.3422 22.0604C54.3422 22.9961 53.6267 23.8174 52.6666 23.8174H49.9906C49.8853 23.8174 49.8035 23.7515 49.8035 23.6373V17.9234C49.8035 17.7924 49.8688 17.7266 49.9906 17.7266H52.3906C53.3098 17.7266 54.0261 18.3995 54.0261 19.3193C54.0261 19.8034 53.8146 20.255 53.4725 20.5589L53.4718 20.5581ZM52.3819 18.4233H50.5026V20.3121H52.3819C52.9103 20.3121 53.309 19.8684 53.309 19.3185C53.309 18.7686 52.9268 18.4233 52.3819 18.4233ZM50.5026 21.0097V23.1198H52.6579C53.1863 23.1198 53.6338 22.627 53.6338 22.0604C53.6338 21.4938 53.2028 21.0097 52.6579 21.0097H50.5026Z" fill="#4231C8"/>
<path d="M56.4146 23.6532C56.3658 23.7682 56.3006 23.8174 56.1873 23.8174H55.8374C55.7234 23.8174 55.6667 23.7762 55.6667 23.6865C55.6667 23.6293 55.6832 23.5801 55.6832 23.5801C57.2507 19.7814 58.037 17.8794 58.0423 17.8742C58.0666 17.817 58.0989 17.7266 58.2451 17.7266H58.4811C58.6194 17.7266 58.6604 17.817 58.6847 17.8742L61.0272 23.5881C61.0272 23.5881 61.0516 23.654 61.0516 23.6865C61.0516 23.7769 60.9785 23.8174 60.8731 23.8174H60.5231C60.4178 23.8174 60.336 23.7515 60.3038 23.6618L59.832 22.4881H56.8707L56.4153 23.654L56.4146 23.6532ZM57.1632 21.789H59.5465L58.3591 18.7844L57.1632 21.789Z" fill="#4231C8"/>
<path d="M66.4046 23.1198C66.5021 23.1198 66.5831 23.1857 66.5831 23.3088V23.6373C66.5831 23.7357 66.5099 23.8174 66.4046 23.8174H62.947C62.8251 23.8174 62.7686 23.7603 62.7686 23.6373V17.9067C62.7686 17.8083 62.8338 17.7266 62.9557 17.7266H63.2891C63.3944 17.7266 63.4676 17.7924 63.4676 17.9067V23.1198H66.4046Z" fill="#4231C8"/>
<path d="M29.7695 2.59192C29.7695 2.36416 29.9048 2.25781 30.0856 2.25781H34.9121C36.9723 2.25781 38.3854 4.09421 38.3854 5.94489C38.3854 7.79557 37.0172 9.5867 34.9577 9.5867H32.6569V13.1834C32.6569 13.4103 32.5366 13.5167 32.311 13.5167H30.0856C29.86 13.5167 29.7695 13.4103 29.7695 13.1834V2.59192ZM32.6561 4.65529V7.18926H34.28C35.0167 7.18926 35.4374 6.56708 35.4374 5.92982C35.4374 5.29255 35.001 4.65529 34.28 4.65529H32.6561Z" fill="#4231C8"/>
<path d="M41.0447 2.59192C41.0447 2.42447 41.1501 2.25781 41.3608 2.25781H46.3525C48.4724 2.25781 49.9162 4.13945 49.9162 6.03616C49.9162 7.25037 49.1794 8.43363 48.0816 9.14704L50.2315 13.1841C50.3219 13.3357 50.2614 13.5175 50.0506 13.5175H47.3441C47.1334 13.5175 47.0579 13.4571 46.9383 13.1992L45.1494 9.76922H43.9463V13.1834C43.9463 13.4103 43.826 13.5167 43.6152 13.5167H41.36C41.1493 13.5167 41.0439 13.4103 41.0439 13.1834L41.0447 2.59192ZM43.9463 4.59498V7.34164H45.6149C46.3965 7.34164 46.9533 6.67422 46.9533 5.97585C46.9533 5.3235 46.3965 4.59498 45.6149 4.59498H43.9463Z" fill="#4231C8"/>
<path d="M58.0363 2.0918C61.2092 2.0918 63.7798 4.68687 63.7798 7.90334C63.7798 11.1198 61.2085 13.6847 58.0363 13.6847C54.8643 13.6847 52.293 11.1047 52.293 7.90334C52.293 4.70195 54.8493 2.0918 58.0363 2.0918ZM58.0363 10.8928C59.69 10.8928 60.8782 9.57307 60.8782 7.88826C60.8782 6.20344 59.6908 4.88369 58.0363 4.88369C56.3819 4.88369 55.1945 6.21932 55.1945 7.88826C55.1945 9.55721 56.3819 10.8928 58.0363 10.8928Z" fill="#4231C8"/>
<path d="M66.8008 2.607C66.8008 2.39431 66.9211 2.25781 67.1318 2.25781H71.8978C73.6568 2.25781 75.1155 3.699 75.1155 5.52032C75.1155 6.279 74.8749 6.94642 74.4393 7.46306C75.1462 8.13048 75.6125 9.1018 75.6125 10.1185C75.6125 11.9549 74.109 13.5175 72.3351 13.5175H67.1326C66.9368 13.5175 66.8016 13.4111 66.8016 13.1992L66.8008 2.607ZM71.1013 4.48863H69.7181V6.68929H71.0714C71.7633 6.68929 72.2289 6.23377 72.2289 5.5965C72.2289 4.95924 71.7625 4.48863 71.1013 4.48863ZM71.4771 8.73754H69.7181V11.2716H71.4771C72.1384 11.2716 72.6346 10.6494 72.6346 9.99707C72.6346 9.39075 72.1384 8.73754 71.4771 8.73754Z" fill="#4231C8"/>
<path d="M79.0996 2.59192C79.0996 2.36416 79.205 2.25781 79.4157 2.25781H81.6709C81.8817 2.25781 82.002 2.36416 82.002 2.59192V13.1841C82.002 13.4111 81.8817 13.5175 81.6709 13.5175H79.4157C79.205 13.5175 79.0996 13.4111 79.0996 13.1841V2.59192Z" fill="#4231C8"/>
<path d="M85.7451 2.59192C85.7451 2.36416 85.8505 2.25781 86.0761 2.25781H94.2262C94.4369 2.25781 94.557 2.36416 94.557 2.59192V4.51879C94.557 4.73148 94.4369 4.8521 94.2262 4.8521H91.5645V13.1834C91.5645 13.4103 91.4436 13.5167 91.2182 13.5167H89.053C88.8423 13.5167 88.7222 13.4103 88.7222 13.1834V4.8521H86.0761C85.8505 4.8521 85.7451 4.73068 85.7451 4.51879V2.59192Z" fill="#4231C8"/>
</g>
<defs>
<clipPath id="clip0_1_8431">
<rect width="95" height="26" fill="white"/>
</clipPath>
</defs>
</svg>
