<svg width="106" height="34" viewBox="0 0 106 34" fill="none" xmlns="http://www.w3.org/2000/svg">
<path d="M0.318294 7.79926C0.199191 7.91837 0.109863 12.1465 0.109863 17.2084V26.3794H6.06503H12.0202V24.5928V22.8063H8.14934H4.27848V20.8709V18.9354H7.70271H11.1269V17V15.0646H7.70271H4.27848V13.278V11.5212L8.08979 11.4319L11.8713 11.3426V9.55604V7.76949L6.18414 7.68016C3.08745 7.65038 0.437398 7.70993 0.318294 7.79926Z" fill="#1B2125"/>
<path d="M58.3808 7.82904C58.2617 7.91836 58.1724 12.1465 58.1724 17.2084V26.3794H60.1078H62.0432V17V7.62061H60.3162C59.3634 7.62061 58.4701 7.70993 58.3808 7.82904Z" fill="#1B2125"/>
<path d="M14.4022 11.3414V12.9791H13.36H12.3179V14.6168V16.2544H13.36H14.4022V19.7978C14.4022 24.8596 14.9381 25.9018 17.9753 26.7058C18.9877 26.9737 19.613 26.9737 20.5062 26.7058C22.4417 26.1698 22.5012 26.0805 21.9652 24.5023C21.5186 23.1922 21.4293 23.1029 20.4467 23.1029C18.4219 23.1029 18.273 22.8647 18.273 19.3809V16.2544H20.2382H22.1737L22.0844 14.6763L21.995 13.128L20.1489 13.0386L18.273 12.9493V11.3414V9.70374H16.3376H14.4022V11.3414Z" fill="#1B2125"/>
<path d="M24.6449 13.8431C22.8881 15.1234 22.501 15.6594 21.9651 17.7139C21.4589 19.7387 21.5482 21.4657 22.3224 23.2522C23.6027 26.3489 27.2652 27.6888 30.8978 26.4085C32.4759 25.8427 34.0541 24.8006 34.0541 24.2944C34.0541 24.2051 33.6372 23.6989 33.1608 23.1927L32.2675 22.2696L30.5405 22.9842C28.754 23.7286 27.6523 23.6989 26.4017 22.8949C26.0146 22.6269 25.7168 22.1803 25.7168 21.8825C25.7168 21.3466 26.0146 21.3168 30.0343 21.3168H34.3518V19.2027C34.3518 17.5353 34.2029 16.8504 33.6968 16.0167C32.2377 13.6346 30.9872 12.9796 28.0096 12.9796C26.0444 12.9796 25.6871 13.0689 24.6449 13.8431ZM29.8855 16.5527C31.0765 17.7437 30.6894 18.0415 28.0989 18.0415C25.4488 18.0415 25.0618 17.6841 26.491 16.5824C27.5034 15.7785 29.1113 15.7785 29.8855 16.5527Z" fill="#1B2125"/>
<path d="M35.454 13.1589C35.3349 13.278 35.2456 16.3152 35.2456 19.8883V26.3794H37.3001H39.3547L39.444 22.5681C39.5333 19.3523 39.6524 18.6674 40.1586 17.9826C40.903 16.9702 42.0643 16.464 43.0469 16.7022C43.7317 16.8809 43.8211 16.7916 43.9997 15.6005C44.4463 13.01 44.5059 13.1291 42.7193 13.0398C41.4092 12.9505 40.9923 13.0696 40.4266 13.6056C40.0395 13.9629 39.6227 14.5584 39.5036 14.8859C39.3249 15.3921 39.2653 15.273 39.1165 14.3202L38.9676 13.1291L37.3299 13.0398C36.4069 12.9803 35.5731 13.0398 35.454 13.1589Z" fill="#1B2125"/>
<path d="M44.9824 13.1887C44.8633 13.278 44.7739 16.3152 44.7739 19.8883V26.3794H46.7094H48.6448V22.3597C48.6448 20.0669 48.7937 18.0719 48.9723 17.6551C49.419 16.6725 50.5802 16.1663 51.3246 16.5534C52.5156 17.1787 52.8134 18.3995 52.8134 22.5085V26.3794H54.7488H56.6843V21.5557C56.6843 16.0769 56.2972 14.7073 54.4809 13.5758C52.9623 12.6527 50.1634 12.7421 48.9723 13.7544L48.0493 14.5286V13.7544C48.0493 13.0398 47.9599 12.9803 46.62 12.9803C45.8161 12.9803 45.0717 13.0696 44.9824 13.1887Z" fill="#1B2125"/>
<rect x="72.7799" y="1.69398" width="31.5004" height="30.612" rx="3.54091" stroke="#1B2125" stroke-width="3.21901"/>
<path d="M78.5916 19.3991V13.3404C78.5916 10.4959 80.8975 8.18994 83.742 8.18994H98.4691H83.742C80.8975 8.18994 78.5916 10.4959 78.5916 13.3404V19.3991ZM78.5916 19.3991C78.5916 22.2436 80.8975 24.5495 83.742 24.5495H98.4691" stroke="#1B2125" stroke-width="3.86281"/>
<rect x="85.9419" y="14.6411" width="12.5271" height="3.8584" fill="#1B2125"/>
</svg>
