<svg width="38" height="24" viewBox="0 0 38 24" fill="none" xmlns="http://www.w3.org/2000/svg">
<path d="M24.3343 21.0638H14.2017V2.52271H24.3343V21.0638Z" fill="#FF5F00"/>
<path d="M14.8509 11.7917C14.8509 8.03059 16.5804 4.68026 19.2738 2.52118C17.3042 0.942347 14.8185 -3.34668e-06 12.117 -3.34668e-06C5.7216 -3.34668e-06 0.537354 5.27926 0.537354 11.7917C0.537354 18.3042 5.7216 23.5835 12.117 23.5835C14.8185 23.5835 17.3042 22.6411 19.2738 21.0623C16.5804 18.9032 14.8509 15.5529 14.8509 11.7917Z" fill="#EB001B"/>
<path d="M37.9999 11.7917C37.9999 18.3042 32.8157 23.5835 26.4202 23.5835C23.7187 23.5835 21.233 22.6411 19.2627 21.0623C21.9568 18.9032 23.6863 15.5529 23.6863 11.7917C23.6863 8.03059 21.9568 4.68026 19.2627 2.52118C21.233 0.942347 23.7187 -3.34668e-06 26.4202 -3.34668e-06C32.8157 -3.34668e-06 37.9999 5.27926 37.9999 11.7917Z" fill="#F79E1B"/>
<path d="M9.25105 11.8663C9.25105 11.3512 9.58254 10.9281 10.1242 10.9281C10.6418 10.9281 10.9912 11.333 10.9912 11.8663C10.9912 12.3996 10.6418 12.8045 10.1242 12.8045C9.58254 12.8045 9.25105 12.3813 9.25105 11.8663ZM11.5812 11.8663V10.4011H10.9554V10.7569C10.7569 10.493 10.4557 10.3274 10.0464 10.3274C9.23933 10.3274 8.60666 10.9716 8.60666 11.8663C8.60666 12.7617 9.23933 13.4052 10.0464 13.4052C10.4557 13.4052 10.7569 13.2395 10.9554 12.9757V13.3315H11.5812V11.8663ZM32.7281 11.8663C32.7281 11.3512 33.0596 10.9281 33.6013 10.9281C34.1196 10.9281 34.4683 11.333 34.4683 11.8663C34.4683 12.3996 34.1196 12.8045 33.6013 12.8045C33.0596 12.8045 32.7281 12.3813 32.7281 11.8663ZM35.059 11.8663V9.22432H34.4325V10.7569C34.234 10.493 33.9328 10.3274 33.5235 10.3274C32.7164 10.3274 32.0837 10.9716 32.0837 11.8663C32.0837 12.7617 32.7164 13.4052 33.5235 13.4052C33.9328 13.4052 34.234 13.2395 34.4325 12.9757V13.3315H35.059V11.8663ZM19.349 10.8979C19.7522 10.8979 20.0113 11.1554 20.0775 11.6088H18.584C18.6508 11.1856 18.9031 10.8979 19.349 10.8979ZM19.3614 10.3274C18.5178 10.3274 17.9279 10.9526 17.9279 11.8663C17.9279 12.7982 18.542 13.4052 19.4034 13.4052C19.8369 13.4052 20.2339 13.295 20.5833 12.9946L20.2766 12.5224C20.0354 12.7182 19.728 12.829 19.4393 12.829C19.0361 12.829 18.6688 12.6389 18.5785 12.1112H20.7156C20.7218 12.0319 20.728 11.9519 20.728 11.8663C20.7218 10.9526 20.1677 10.3274 19.3614 10.3274ZM26.9176 11.8663C26.9176 11.3512 27.2491 10.9281 27.7908 10.9281C28.3084 10.9281 28.6578 11.333 28.6578 11.8663C28.6578 12.3996 28.3084 12.8045 27.7908 12.8045C27.2491 12.8045 26.9176 12.3813 26.9176 11.8663ZM29.2478 11.8663V10.4011H28.622V10.7569C28.4228 10.493 28.1223 10.3274 27.7129 10.3274C26.9059 10.3274 26.2732 10.9716 26.2732 11.8663C26.2732 12.7617 26.9059 13.4052 27.7129 13.4052C28.1223 13.4052 28.4228 13.2395 28.622 12.9757V13.3315H29.2478V11.8663ZM23.3835 11.8663C23.3835 12.7554 23.9913 13.4052 24.919 13.4052C25.3525 13.4052 25.6412 13.3069 25.9541 13.0557L25.6537 12.5406C25.4186 12.7126 25.1719 12.8045 24.9004 12.8045C24.4007 12.7982 24.0334 12.4305 24.0334 11.8663C24.0334 11.3021 24.4007 10.9344 24.9004 10.9281C25.1719 10.9281 25.4186 11.02 25.6537 11.1919L25.9541 10.6769C25.6412 10.4257 25.3525 10.3274 24.919 10.3274C23.9913 10.3274 23.3835 10.9772 23.3835 11.8663ZM31.4518 10.3274C31.0906 10.3274 30.8556 10.4993 30.693 10.7569V10.4011H30.0727V13.3315H30.6992V11.6888C30.6992 11.2039 30.9039 10.9344 31.3132 10.9344C31.4401 10.9344 31.5724 10.9526 31.7047 11.0081L31.8977 10.4074C31.7591 10.352 31.5786 10.3274 31.4518 10.3274ZM14.6763 10.6341C14.3751 10.432 13.9602 10.3274 13.5026 10.3274C12.7735 10.3274 12.3041 10.6832 12.3041 11.2656C12.3041 11.7435 12.6536 12.0382 13.2973 12.1301L13.5929 12.1729C13.9361 12.2221 14.0981 12.314 14.0981 12.4796C14.0981 12.7062 13.8693 12.8354 13.442 12.8354C13.0085 12.8354 12.6956 12.6943 12.4847 12.5287L12.1897 13.0248C12.5329 13.2824 12.9664 13.4052 13.4358 13.4052C14.2669 13.4052 14.7487 13.0066 14.7487 12.4487C14.7487 11.9337 14.3696 11.6642 13.7432 11.5723L13.4482 11.5288C13.1773 11.4923 12.9602 11.4375 12.9602 11.2411C12.9602 11.0263 13.1649 10.8979 13.5081 10.8979C13.8755 10.8979 14.2311 11.039 14.4055 11.1491L14.6763 10.6341ZM22.7508 10.3274C22.3897 10.3274 22.1547 10.4993 21.9927 10.7569V10.4011H21.3724V13.3315H21.9982V11.6888C21.9982 11.2039 22.2029 10.9344 22.6123 10.9344C22.7391 10.9344 22.8714 10.9526 23.0037 11.0081L23.1967 10.4074C23.0582 10.352 22.8776 10.3274 22.7508 10.3274ZM17.4103 10.4011H16.3869V9.51202H15.7542V10.4011H15.1705V10.9835H15.7542V12.3203C15.7542 13.0003 16.0133 13.4052 16.7535 13.4052C17.0251 13.4052 17.3379 13.3195 17.5364 13.1785L17.3559 12.6326C17.1691 12.7427 16.9644 12.7982 16.8018 12.7982C16.4889 12.7982 16.3869 12.6017 16.3869 12.3077V10.9835H17.4103V10.4011ZM8.05324 13.3315V11.4923C8.05324 10.7997 7.61974 10.3337 6.92091 10.3274C6.55358 10.3211 6.17452 10.4376 5.90919 10.8488C5.7107 10.5239 5.39781 10.3274 4.95811 10.3274C4.65074 10.3274 4.35025 10.4193 4.11524 10.7625V10.4011H3.48877V13.3315H4.12075V11.707C4.12075 11.1983 4.3978 10.9281 4.82579 10.9281C5.24137 10.9281 5.45157 11.2039 5.45157 11.7007V13.3315H6.08424V11.707C6.08424 11.1983 6.37301 10.9281 6.78859 10.9281C7.21588 10.9281 7.42057 11.2039 7.42057 11.7007V13.3315H8.05324Z" fill="white"/>
</svg>
