<svg width="51" height="18" viewBox="0 0 51 18" fill="none" xmlns="http://www.w3.org/2000/svg">
<path d="M22.3336 16.8175H18.3018L20.8236 0.817505H24.8552L22.3336 16.8175Z" fill="url(#paint0_linear_2001_558)"/>
<path d="M36.9492 1.20865C36.1539 0.884912 34.8926 0.527466 33.3329 0.527466C29.3513 0.527466 26.5476 2.70608 26.5304 5.82083C26.4973 8.1189 28.5378 9.3953 30.0639 10.1615C31.6238 10.9445 32.154 11.4556 32.154 12.1535C32.1382 13.2254 30.8936 13.7195 29.7328 13.7195C28.1231 13.7195 27.2606 13.4648 25.9498 12.8684L25.4189 12.6128L24.8547 16.2044C25.8004 16.6465 27.5426 17.0388 29.3513 17.056C33.5818 17.056 36.336 14.9111 36.3687 11.5918C36.3847 9.77039 35.3073 8.37476 32.9843 7.23433C31.5742 6.50224 30.7106 6.00861 30.7106 5.25955C30.7271 4.5786 31.441 3.88112 33.0329 3.88112C34.3436 3.84696 35.3066 4.17025 36.0362 4.49376L36.4008 4.66366L36.9492 1.20865Z" fill="url(#paint1_linear_2001_558)"/>
<path d="M42.308 11.1493C42.64 10.2301 43.9177 6.67261 43.9177 6.67261C43.9009 6.70677 44.2491 5.73646 44.4482 5.14079L44.7299 6.51945C44.7299 6.51945 45.4934 10.3493 45.6592 11.1493C45.0291 11.1493 43.1044 11.1493 42.308 11.1493ZM47.2848 0.817505H44.1662C43.2044 0.817505 42.4738 1.10663 42.0589 2.14503L36.0701 16.8173H40.3006C40.3006 16.8173 40.997 14.8425 41.1467 14.4172C41.6109 14.4172 45.7263 14.4172 46.3233 14.4172C46.4391 14.9789 46.8044 16.8173 46.8044 16.8173H50.5375L47.2848 0.817505Z" fill="url(#paint2_linear_2001_558)"/>
<path d="M14.934 0.817505L10.9855 11.728L10.554 9.51521C9.82403 6.96196 7.53461 4.1879 4.97974 2.80857L8.59642 16.8005H12.86L19.1973 0.817505H14.934Z" fill="url(#paint3_linear_2001_558)"/>
<path d="M7.31908 0.817505H0.832232L0.765869 1.14079C5.82601 2.46854 9.17725 5.66904 10.5541 9.51589L9.14396 2.16245C8.9118 1.14056 8.19834 0.851213 7.31908 0.817505Z" fill="#FAA61A"/>
<defs>
<linearGradient id="paint0_linear_2001_558" x1="24.8552" y1="0.817506" x2="16.3707" y2="1.91706" gradientUnits="userSpaceOnUse">
<stop stop-color="#000756"/>
<stop offset="1" stop-color="#0042B8"/>
</linearGradient>
<linearGradient id="paint1_linear_2001_558" x1="36.9492" y1="0.527467" x2="21.838" y2="4.02608" gradientUnits="userSpaceOnUse">
<stop stop-color="#000756"/>
<stop offset="1" stop-color="#0042B8"/>
</linearGradient>
<linearGradient id="paint2_linear_2001_558" x1="50.5375" y1="0.817506" x2="32.9335" y2="5.85406" gradientUnits="userSpaceOnUse">
<stop stop-color="#000756"/>
<stop offset="1" stop-color="#0042B8"/>
</linearGradient>
<linearGradient id="paint3_linear_2001_558" x1="19.1973" y1="0.817506" x2="1.85502" y2="5.69863" gradientUnits="userSpaceOnUse">
<stop stop-color="#000756"/>
<stop offset="1" stop-color="#0042B8"/>
</linearGradient>
</defs>
</svg>
