<svg width="76" height="76" viewBox="0 0 76 76" fill="none" xmlns="http://www.w3.org/2000/svg">
<rect x="0.633333" y="0.633333" width="74.7333" height="74.7333" rx="4.43333" fill="#E3F2FF"/>
<rect x="0.633333" y="0.633333" width="74.7333" height="74.7333" rx="4.43333" stroke="#E3F2FF" stroke-width="1.26667"/>
<path d="M62.4179 45.48L55.7584 31.5141C55.7238 31.4416 55.6752 31.3767 55.6154 31.323C55.5556 31.2693 55.4859 31.228 55.4101 31.2013C55.2577 31.1475 55.0891 31.1566 54.9429 31.2277L49.7998 33.714C49.4981 33.8602 49.3701 34.2218 49.5154 34.5244L50.1319 35.8173C49.3163 35.8732 48.2651 35.7686 47.0951 35.5939C50.1359 31.1414 49.8993 26.3294 49.5479 19.2566L49.5428 19.1479C49.536 19.0087 49.4817 18.8762 49.3889 18.7723C49.2961 18.6684 49.1704 18.5995 49.033 18.5771C46.7945 18.2105 45.3137 16.9531 44.5073 14.733C44.4645 14.6154 44.3866 14.5139 44.2841 14.4421C44.1817 14.3703 44.0596 14.3318 43.9345 14.3318H32.068C31.812 14.3318 31.5825 14.4923 31.4951 14.733C30.6877 16.9531 29.2069 18.2105 26.9695 18.5771C26.8321 18.5997 26.7066 18.6686 26.6138 18.7725C26.521 18.8763 26.4667 19.0088 26.4597 19.1479L26.4546 19.2576C26.0402 27.5979 25.7883 32.6933 30.7212 37.8059C30.6796 37.9227 30.641 38.0405 30.6065 38.1634C29.3075 38.4265 27.5921 38.2457 26.5023 37.4088L26.7268 36.9599C26.7989 36.8147 26.8111 36.6471 26.7593 36.4927C26.7074 36.3392 26.5967 36.2124 26.4515 36.1403L21.3298 33.6104C21.1854 33.5391 21.0188 33.5278 20.8661 33.579C20.7135 33.6302 20.5874 33.7397 20.5152 33.8836L13.5876 47.7174C13.5518 47.7893 13.5305 47.8676 13.5249 47.9478C13.5193 48.0279 13.5296 48.1084 13.5551 48.1846C13.607 48.3382 13.7177 48.4649 13.8629 48.537L18.9847 51.0669C19.071 51.1096 19.1634 51.1299 19.2538 51.1299C19.4773 51.1299 19.6926 51.006 19.7992 50.7927L19.9546 50.483L21.6781 51.5392L21.1317 52.6219C20.4919 53.8904 21.0037 55.4423 22.2723 56.0821C22.6297 56.2627 23.0245 56.357 23.425 56.3573C23.5113 56.3573 23.5987 56.3512 23.685 56.3421C23.2584 57.5456 23.7845 58.9106 24.9535 59.5007C25.3109 59.6813 25.7058 59.7756 26.1062 59.7759C26.3784 59.7759 26.6526 59.7323 26.9187 59.6449C27.2021 59.5515 27.4611 59.4103 27.6896 59.2336C27.9301 59.7683 28.3476 60.2038 28.8718 60.4666C29.2292 60.6472 29.624 60.7415 30.0245 60.7418C30.2967 60.7418 30.5709 60.6981 30.837 60.6108C31.1326 60.5133 31.3997 60.365 31.6353 60.1781C31.878 60.7042 32.2853 61.1308 32.8083 61.3948C33.1658 61.5755 33.5606 61.6697 33.9611 61.6701C34.2333 61.6701 34.5075 61.6264 34.7736 61.5391C35.3944 61.336 35.914 60.9033 36.2259 60.3294L37.6407 61.2029C38.0612 61.4629 38.5283 61.5868 38.9905 61.5868C39.8548 61.5868 40.6998 61.1521 41.1873 60.365C41.3589 60.0867 41.4737 59.783 41.5295 59.4692C41.8423 59.6002 42.1755 59.6683 42.5137 59.6683C42.7161 59.668 42.9178 59.6445 43.1149 59.5982C43.7862 59.4398 44.354 59.0305 44.7145 58.4465C44.9765 58.023 45.0994 57.5517 45.0974 57.0876L45.1055 57.0926C45.526 57.3526 45.9932 57.4766 46.4553 57.4766C47.3196 57.4766 48.1656 57.0419 48.6521 56.2548C48.908 55.8404 49.037 55.3722 49.035 54.8948L49.3976 55.1193C49.818 55.3793 50.2852 55.5032 50.7473 55.5032C51.6116 55.5032 52.4566 55.0685 52.9441 54.2814C53.3047 53.6974 53.4154 53.0068 53.2569 52.3355C53.1107 51.718 52.7522 51.1878 52.2342 50.8222C52.9797 49.188 54.1283 48.1125 55.7259 47.5498L56.1738 48.4893C56.2235 48.5932 56.3015 48.6809 56.3989 48.7424C56.4963 48.8039 56.6091 48.8365 56.7243 48.8366C56.8157 48.8366 56.9061 48.8163 56.9894 48.7757L62.1325 46.2894C62.2775 46.2197 62.3889 46.0954 62.4424 45.9437C62.4959 45.792 62.4871 45.6252 62.4179 45.48ZM27.653 19.6841C29.9321 19.1733 31.5551 17.7849 32.4854 15.5485H43.5171C44.4474 17.7839 46.0704 19.1733 48.3494 19.6841C48.7019 26.7945 48.8623 31.2023 45.7545 35.3745C45.3188 35.2994 44.874 35.2191 44.4251 35.1379C44.294 35.1145 44.161 35.0901 44.028 35.0668C47.2383 31.3882 47.0525 27.6263 46.7569 21.6717L46.7529 21.5905C46.7461 21.4513 46.6918 21.3187 46.599 21.2149C46.5062 21.111 46.3805 21.0421 46.243 21.0197C44.6363 20.7566 43.573 19.8527 42.993 18.2562C42.9502 18.1386 42.8723 18.0371 42.7699 17.9653C42.6674 17.8935 42.5453 17.855 42.4202 17.855H33.5823C33.3263 17.855 33.0968 18.0155 33.0094 18.2562C32.4295 19.8517 31.3662 20.7556 29.7594 21.0197C29.622 21.0422 29.4965 21.1112 29.4037 21.215C29.311 21.3189 29.2566 21.4514 29.2496 21.5905L29.2455 21.6717C28.9388 27.8508 28.7489 31.6919 32.3848 35.5177C31.9625 35.8292 31.5961 36.21 31.3012 36.6441C27.1056 32.089 27.263 27.5532 27.653 19.6841ZM33.4817 34.8972C30.0601 31.4461 30.1505 28.0478 30.443 22.1237C32.1005 21.7194 33.2918 20.6967 33.9956 19.0748H42.0058C42.7087 20.6967 43.901 21.7194 45.5585 22.1237C45.85 28.0244 45.9394 31.3933 42.598 34.8169C40.3798 34.4422 38.0622 34.1385 36.0797 34.301C35.0864 34.3812 34.2201 34.5813 33.4817 34.8972ZM18.9816 49.705L14.9526 47.7144L21.3328 34.9683L25.3618 36.9589L18.9816 49.705ZM22.8207 54.9954C22.1524 54.6582 21.8823 53.8406 22.2194 53.1713L23.0177 51.588C23.1802 51.266 23.4595 51.0263 23.8058 50.9126C24.1522 50.7988 24.5198 50.8252 24.8418 50.9877C25.5101 51.3249 25.7792 52.1415 25.443 52.8098L24.6437 54.3951C24.4812 54.7171 24.2019 54.9568 23.8556 55.0705C23.5103 55.1843 23.1426 55.1579 22.8207 54.9954ZM26.5379 58.4891C26.1915 58.6029 25.8239 58.5765 25.5019 58.414C24.8337 58.0768 24.5635 57.2592 24.9007 56.5899L26.5308 53.3582L26.5318 53.3562L27.3615 51.7098C27.6002 51.2365 28.0796 50.9633 28.5762 50.9633C28.7814 50.9633 28.9896 51.0101 29.1856 51.1086C29.8539 51.4458 30.1241 52.2633 29.7869 52.9326L27.7323 57.0073L27.7312 57.0094L27.326 57.8127C27.1645 58.1357 26.8842 58.3754 26.5379 58.4891ZM30.4572 59.456C30.1108 59.5698 29.7432 59.5434 29.4212 59.3808C29.0993 59.2183 28.8596 58.9391 28.7448 58.5927C28.6311 58.2474 28.6575 57.8798 28.819 57.5588L30.4683 54.2875C30.6308 53.9655 30.9101 53.7258 31.2565 53.6111C31.6028 53.4973 31.9705 53.5237 32.2924 53.6862C32.9607 54.0234 33.2308 54.841 32.8937 55.5103L31.6698 57.9376L31.2453 58.7806C31.0828 59.1016 30.8025 59.3423 30.4572 59.456ZM34.3948 60.3843C34.0484 60.498 33.6808 60.4716 33.3588 60.3091C33.0369 60.1466 32.7972 59.8673 32.6824 59.521C32.5687 59.1757 32.5951 58.808 32.7565 58.4861L33.5558 56.9017C33.7183 56.5798 33.9976 56.3401 34.344 56.2263C34.6893 56.1126 35.058 56.139 35.3799 56.3015C35.7019 56.464 35.9415 56.7433 36.0563 57.0896C36.1701 57.4359 36.1437 57.8036 35.9812 58.1255L35.1829 59.7089C35.0204 60.0298 34.7411 60.2705 34.3948 60.3843ZM51.9082 53.6426C51.5151 54.2794 50.6762 54.4774 50.0394 54.0844L47.0687 52.2501L46.3344 51.7972C46.197 51.7152 46.0329 51.6906 45.8775 51.7286C45.722 51.7665 45.5878 51.8641 45.5036 52.0002C45.4195 52.1363 45.3923 52.3001 45.4278 52.4561C45.4634 52.6121 45.5588 52.7479 45.6936 52.8341L47.1744 53.7482C47.4811 53.9371 47.6964 54.2367 47.7797 54.5912C47.863 54.9456 47.8051 55.3092 47.6162 55.6159C47.2231 56.2527 46.3852 56.4508 45.7474 56.0577L43.8787 54.904L43.8766 54.903H43.8756L42.9483 54.3301C42.8109 54.2482 42.6468 54.2235 42.4914 54.2615C42.3359 54.2995 42.2017 54.3971 42.1175 54.5332C42.0334 54.6693 42.0062 54.833 42.0417 54.989C42.0773 55.1451 42.1727 55.2808 42.3075 55.3671L43.2368 55.9409C43.8726 56.335 44.0706 57.1719 43.6776 57.8087C43.4887 58.1154 43.1891 58.3307 42.8346 58.414C42.4801 58.4973 42.1166 58.4394 41.8098 58.2505L39.5633 56.8631C39.4258 56.7812 39.2617 56.7565 39.1063 56.7945C38.9509 56.8325 38.8166 56.9301 38.7325 57.0662C38.6484 57.2023 38.6211 57.366 38.6567 57.522C38.6922 57.678 38.7876 57.8138 38.9224 57.9001L40.326 58.7664C40.388 59.0975 40.328 59.4377 40.1503 59.7262C39.7573 60.363 38.9183 60.561 38.2815 60.168L36.7805 59.2417L37.0679 58.673C37.3766 58.0605 37.4284 57.3618 37.2121 56.7077C36.9958 56.0526 36.5398 55.5215 35.9273 55.2127C35.4107 54.951 34.8205 54.8729 34.2536 54.9913C34.2871 54.0173 33.7651 53.0647 32.8398 52.5985C32.3178 52.3343 31.7209 52.2572 31.1488 52.3801C31.1691 51.4183 30.6481 50.483 29.733 50.0219C28.564 49.4328 27.1544 49.8218 26.4394 50.8791C26.1976 50.4728 25.8412 50.1275 25.3882 49.899C24.7758 49.5902 24.078 49.5384 23.423 49.7548C22.9897 49.8969 22.6023 50.1521 22.3007 50.4941L20.5 49.3901L25.9458 38.5108C26.9421 39.1923 28.233 39.4919 29.4537 39.4919C29.6924 39.4919 29.928 39.4807 30.1576 39.4584C30.0601 39.6564 29.9473 39.8504 29.8163 40.0505L27.259 43.9373C27.1645 44.0815 27.1351 44.2582 27.1777 44.4248C27.2204 44.5913 27.3321 44.7315 27.4844 44.8117C28.562 45.3774 29.5208 45.6557 30.4155 45.6557C30.9101 45.6557 31.3855 45.5704 31.8506 45.4008C33.0897 44.9498 34.1977 43.9149 35.3078 42.168L51.4623 51.7748C52.1032 52.1669 52.3012 53.0058 51.9082 53.6426ZM51.1871 50.1905L43.7812 45.7857C45.0121 45.6212 46.044 44.9326 46.7123 43.7565C46.8788 43.464 46.7762 43.0923 46.4837 42.9257C46.1912 42.7591 45.8195 42.8617 45.653 43.1542C44.7887 44.6756 43.1596 45.025 41.1852 44.115C41.0867 44.0693 40.9821 44.053 40.8805 44.0612L35.4175 40.8122L35.4165 40.8112C35.2772 40.7291 35.111 40.7056 34.9545 40.746C34.7979 40.7864 34.6638 40.8873 34.5816 41.0265C32.4854 44.5791 30.7182 44.9163 28.6615 44.0236L30.836 40.7187C31.2666 40.0647 31.5419 39.4319 31.7308 38.6662C32.8114 34.2837 38.8655 35.3745 44.2067 36.3363C46.8128 36.8055 49.0969 37.2159 50.6854 36.9792L55.1988 46.4458C53.3991 47.1151 52.0534 48.3715 51.1871 50.1905ZM57.0107 47.4127L51.5761 36.0154L50.8763 34.5468L54.9226 32.5917L61.0569 45.4576L57.0107 47.4127ZM36.1579 32.0534L33.241 29.1366C33.0033 28.8989 33.0033 28.513 33.241 28.2743C33.3553 28.1602 33.5101 28.0961 33.6716 28.0961C33.8331 28.0961 33.988 28.1602 34.1023 28.2743L36.5885 30.7605L41.8972 25.4519C42.1348 25.2142 42.5208 25.2142 42.7584 25.4519C42.9961 25.6895 42.9961 26.0755 42.7584 26.3141L37.0191 32.0534C36.9626 32.11 36.8955 32.155 36.8216 32.1856C36.7477 32.2162 36.6685 32.232 36.5885 32.232C36.5085 32.232 36.4293 32.2162 36.3554 32.1856C36.2815 32.155 36.2144 32.11 36.1579 32.0534Z" fill="#4C9DE8"/>
</svg>
