<svg width="76" height="76" viewBox="0 0 76 76" fill="none" xmlns="http://www.w3.org/2000/svg">
<rect x="0.633333" y="0.633333" width="74.7333" height="74.7333" rx="4.43333" fill="#E3F2FF"/>
<rect x="0.633333" y="0.633333" width="74.7333" height="74.7333" rx="4.43333" stroke="#E3F2FF" stroke-width="1.26667"/>
<path d="M54.1218 29.8444C53.893 25.0399 50.2782 15.0879 37.6494 15.0879" stroke="#4C9DE8" stroke-width="1.27"/>
<path d="M21.1771 29.8444C21.4058 25.0399 25.0206 15.0879 37.6494 15.0879" stroke="#4C9DE8" stroke-width="1.27"/>
<path d="M53.1427 30.185L55.0593 30.2425C56.2058 30.3898 57.2707 30.8299 58.047 31.623C58.8205 32.4131 59.365 33.6117 59.365 35.3902V44.5859C59.365 46.353 58.819 47.5495 58.0437 48.3405C57.2653 49.1346 56.1998 49.5767 55.0592 49.7238L53.1425 49.7813H51.2935C51.2024 49.7813 51.1151 49.7451 51.0508 49.6808C50.9864 49.6164 50.9502 49.5291 50.9502 49.438V30.5283C50.9502 30.4372 50.9864 30.3499 51.0508 30.2855C51.1151 30.2212 51.2024 30.185 51.2935 30.185H53.1427ZM16.9563 31.6258C17.7336 30.8328 18.7974 30.3908 19.9364 30.2431L23.7101 30.185C23.7999 30.186 23.8857 30.222 23.9492 30.2855C24.0136 30.3499 24.0498 30.4372 24.0498 30.5283V49.4674C24.0498 49.5584 24.0136 49.6457 23.9492 49.7101C23.8849 49.7745 23.7976 49.8107 23.7065 49.8107H20.8696C19.547 49.8107 18.2379 49.4472 17.2712 48.6381C16.3235 47.8449 15.635 46.5659 15.635 44.5761V35.3804C15.635 33.6133 16.181 32.4168 16.9563 31.6258ZM42.5878 60.9522V60.9546V61.5196C42.5878 62.2495 41.9962 62.8411 41.2663 62.8411H35.0935C34.3636 62.8411 33.772 62.2495 33.772 61.5196V58.3402C33.772 57.6103 34.3636 57.0187 35.0935 57.0187H41.2467C41.9766 57.0187 42.5683 57.6103 42.5682 58.3402L42.5683 58.345L42.5878 60.9522Z" fill="#E3F2FF" stroke="#4C9DE8" stroke-width="1.27"/>
<path d="M54.4644 49.75C54.2356 53.0673 49.66 57.9862 43.1396 59.3589" stroke="#4C9DE8" stroke-width="1.27"/>
<path d="M42.5008 38.7251L44.2642 39.0134C44.3341 39.0249 44.3975 39.0608 44.4433 39.1148C44.4891 39.1688 44.5141 39.2373 44.5141 39.3081V40.9489C44.514 41.0191 44.4892 41.087 44.444 41.1408C44.3988 41.1945 44.3361 41.2306 44.267 41.2426L42.5008 41.5529C42.3989 41.9079 42.2589 42.2468 42.0807 42.5696L43.1249 44.0191C43.1665 44.0767 43.1863 44.1472 43.1806 44.218C43.1749 44.2888 43.1441 44.3552 43.0938 44.4053L41.9334 45.5657C41.8838 45.6155 41.8183 45.6462 41.7483 45.6524C41.6783 45.6586 41.6084 45.6399 41.5509 45.5996L40.0867 44.5719C39.7624 44.7519 39.4193 44.8955 39.0635 45.0002L38.7524 46.7581C38.7401 46.8273 38.7038 46.8899 38.6499 46.9349C38.596 46.9799 38.528 47.0045 38.4577 47.0043H36.8178C36.7473 47.0044 36.679 46.9794 36.6252 46.9338C36.5714 46.8882 36.5356 46.825 36.5241 46.7554L36.2321 45.0066C35.8749 44.9031 35.5302 44.7604 35.2044 44.581L33.7512 45.5996C33.6937 45.6399 33.6238 45.6586 33.5538 45.6524C33.4838 45.6462 33.4183 45.6155 33.3687 45.5657L32.2074 44.4053C32.1581 44.3551 32.1279 44.2891 32.122 44.2189C32.1162 44.1487 32.135 44.0787 32.1754 44.021L33.2031 42.5842C33.0217 42.2569 32.8775 41.9103 32.7729 41.551L31.0333 41.2426C30.9643 41.2304 30.9018 41.1942 30.8568 41.1405C30.8118 41.0868 30.7871 41.019 30.7871 40.9489V39.3081C30.7871 39.1616 30.8923 39.0372 31.0369 39.0134L32.7766 38.7233C32.8821 38.3633 33.0255 38.0192 33.2067 37.691L32.1909 36.2396C32.1509 36.1822 32.1323 36.1124 32.1385 36.0427C32.1447 35.9729 32.1752 35.9075 32.2248 35.858L33.3861 34.6985C33.436 34.6486 33.502 34.6179 33.5724 34.6121C33.6428 34.6062 33.7129 34.6255 33.7704 34.6665L35.2118 35.696C35.5369 35.5179 35.8789 35.3776 36.2376 35.2751L36.5231 33.5272C36.5347 33.4573 36.5706 33.3939 36.6246 33.3481C36.6786 33.3024 36.7471 33.2773 36.8178 33.2773H38.4586C38.6042 33.2773 38.7277 33.3817 38.7533 33.5244L39.0608 35.2815C39.4177 35.3846 39.7594 35.5264 40.0857 35.707L41.5298 34.6683C41.5873 34.6266 41.6577 34.6067 41.7285 34.6122C41.7993 34.6178 41.8658 34.6484 41.916 34.6985L43.0764 35.8589C43.126 35.9086 43.1566 35.9742 43.1626 36.0442C43.1686 36.1142 43.1498 36.184 43.1093 36.2415L42.0798 37.7084C42.2567 38.0318 42.3971 38.3703 42.5008 38.7242V38.7251ZM35.5604 40.1408C35.5604 40.6949 35.7805 41.2263 36.1724 41.6181C36.5642 42.0099 37.0956 42.2301 37.6497 42.2301C38.2038 42.2301 38.7352 42.0099 39.127 41.6181C39.5188 41.2263 39.7389 40.6949 39.7389 40.1408C39.7389 39.5867 39.5188 39.0553 39.127 38.6635C38.7352 38.2717 38.2038 38.0516 37.6497 38.0516C37.0956 38.0516 36.5642 38.2717 36.1724 38.6635C35.7805 39.0553 35.5604 39.5867 35.5604 40.1408Z" fill="#E3F2FF" stroke="#4C9DE8" stroke-width="1.27"/>
</svg>
