<svg width="76" height="76" viewBox="0 0 76 76" fill="none" xmlns="http://www.w3.org/2000/svg">
<rect x="0.633333" y="0.633333" width="74.7333" height="74.7333" rx="4.43333" fill="#E3F2FF"/>
<rect x="0.633333" y="0.633333" width="74.7333" height="74.7333" rx="4.43333" stroke="#E3F2FF" stroke-width="1.26667"/>
<g clip-path="url(#clip0_1_8049)">
<path d="M38.0016 15.7173C33.4271 15.7209 29.0411 17.5399 25.8067 20.7747C22.5724 24.0096 20.7541 28.3959 20.7512 32.9703C20.7534 37.5448 22.5715 41.9312 25.8061 45.1658C29.0407 48.4004 33.4271 50.2185 38.0016 50.2207C42.576 50.2185 46.9624 48.4004 50.197 45.1658C53.4316 41.9312 55.2497 37.5448 55.2519 32.9703C55.249 28.3954 53.4304 24.0087 50.1954 20.7738C46.9605 17.5388 42.5738 15.7202 37.9988 15.7173H38.0016ZM38.0016 17.1544C40.0785 17.1536 42.1352 17.5623 44.0541 18.3569C45.973 19.1516 47.7165 20.3166 49.1848 21.7855C50.6532 23.2544 51.8176 24.9982 52.6116 26.9174C53.4056 28.8366 53.8135 30.8934 53.8121 32.9703C53.8121 41.7123 46.7435 48.7809 38.0016 48.7809C29.2596 48.7809 22.191 41.7123 22.191 32.9703C22.1896 30.8936 22.5974 28.837 23.3912 26.918C24.1851 24.999 25.3493 23.2553 26.8173 21.7865C28.2854 20.3176 30.0286 19.1525 31.9471 18.3577C33.8657 17.5629 35.9221 17.154 37.9988 17.1544H38.0016Z" fill="#4C9DE8"/>
<path d="M17.6623 54.5401L24.4131 42.8506L25.6573 43.5705L19.7025 53.8772L25.6464 52.7064C25.8168 52.6734 25.9934 52.703 26.1436 52.7899C26.2939 52.8767 26.4077 53.0149 26.4641 53.1791L28.4146 58.9111L34.2363 48.8325L35.4832 49.5551L28.8683 61.0083C28.799 61.1278 28.6969 61.2248 28.574 61.2879C28.4511 61.3509 28.3127 61.3773 28.1752 61.3638C28.0378 61.3504 27.9071 61.2977 27.7988 61.212C27.6904 61.1263 27.6091 61.0113 27.5643 60.8806L25.3041 54.2413L18.4284 55.5996C18.2935 55.6261 18.1537 55.6133 18.0258 55.5629C17.8978 55.5125 17.7869 55.4264 17.7064 55.315C17.6258 55.2035 17.5788 55.0713 17.571 54.934C17.5632 54.7966 17.5949 54.66 17.6623 54.5401Z" fill="#4C9DE8"/>
<path d="M50.3483 43.5732L51.5898 42.8506L58.3378 54.5401C58.4053 54.66 58.437 54.7966 58.4292 54.934C58.4214 55.0713 58.3744 55.2035 58.2938 55.315C58.2132 55.4264 58.1024 55.5125 57.9744 55.5629C57.8465 55.6133 57.7067 55.6261 57.5718 55.5996L50.6988 54.2413L48.4359 60.8806C48.3911 61.0113 48.3097 61.1263 48.2014 61.212C48.0931 61.2977 47.9624 61.3504 47.825 61.3638C47.6875 61.3773 47.5491 61.3509 47.4262 61.2879C47.3033 61.2248 47.2011 61.1278 47.1319 61.0083L40.5197 49.5579L41.7694 48.8352L47.5883 58.9138L49.5415 53.1818C49.5979 53.0177 49.7118 52.8795 49.862 52.7926C50.0123 52.7057 50.1888 52.6761 50.3592 52.7091L56.3004 53.88L50.3483 43.5732Z" fill="#4C9DE8"/>
<path d="M38.0014 24.9646C37.4907 24.9646 37.4038 25.1874 37.2679 25.3259C36.4828 26.2332 35.4261 28.1023 35.0349 28.7216C33.7146 29.0503 32.3102 29.3247 31.1203 29.792C30.9464 29.8789 30.7101 29.8979 30.5498 30.3815C30.395 30.8677 30.5742 31.0172 30.6639 31.1883C31.2425 32.1581 32.8888 33.981 33.2039 34.3613C33.1224 35.8092 32.9241 37.1132 33.0137 38.4144C33.0409 38.6046 32.9839 38.8355 33.3941 39.137C33.807 39.4359 34.0107 39.3109 34.2009 39.2783C35.3337 39.0066 37.3657 38.0993 38.0014 37.8467C39.2782 38.3329 40.5441 38.955 41.7992 39.2783C41.9894 39.3109 42.1931 39.4359 42.606 39.137C43.0189 38.8382 42.9592 38.6046 42.9863 38.4144C43.0841 37.2925 42.8315 34.8557 42.7962 34.3613C43.5297 33.5028 44.3175 32.5819 45.0102 31.699C45.4041 31.2698 45.5644 30.8134 45.4503 30.3815C45.3335 29.9495 45.0564 29.8789 44.8825 29.792C43.6139 29.2894 42.2692 29.0503 40.9679 28.7216C40.2181 27.5807 39.5607 26.3256 38.7322 25.3259C38.5963 25.1901 38.5121 24.9646 37.9987 24.9646H38.0014ZM38.0014 26.7114C38.6317 27.6323 39.1614 28.5695 39.7618 29.485C39.8596 29.6208 39.8921 29.7159 40.1231 29.8843C40.354 30.0501 40.4463 30.0501 40.6066 30.1017C41.6797 30.3869 42.7283 30.6205 43.7905 30.9166C43.1167 31.8077 42.3833 32.5982 41.6987 33.4539C41.5982 33.5898 41.5221 33.6441 41.4325 33.9158C41.3455 34.1874 41.3727 34.2798 41.3754 34.4455C41.4297 35.5593 41.533 36.6296 41.5819 37.7326C40.3866 37.3169 39.1152 36.6459 38.0014 36.4096C37.7162 36.4096 37.6401 36.4666 37.4798 36.5183C36.4394 36.9149 35.4505 37.3441 34.4182 37.7298C34.4535 36.6106 34.5758 35.543 34.6274 34.4455C34.6274 34.2798 34.6546 34.1847 34.5676 33.9158C34.4807 33.6441 34.4046 33.5898 34.3014 33.4539C33.6223 32.5955 32.8127 31.6827 32.2096 30.9166C33.2827 30.6015 34.3367 30.3842 35.3962 30.1017C35.5565 30.0501 35.6488 30.0501 35.8797 29.8843C36.1079 29.7159 36.1433 29.6208 36.2383 29.485C36.6187 28.9254 36.9881 28.3006 37.3114 27.7736C37.5303 27.4124 37.7604 27.0582 38.0014 26.7114Z" fill="#4C9DE8"/>
</g>
<defs>
<clipPath id="clip0_1_8049">
<rect width="46" height="46" fill="white" transform="translate(15 15)"/>
</clipPath>
</defs>
</svg>
