<svg width="102" height="54" viewBox="0 0 102 54" fill="none" xmlns="http://www.w3.org/2000/svg">
<g clip-path="url(#clip0_1_8399)">
<path d="M0.578125 37.8203H2.16682V50.2752H0.578125V37.8203Z" fill="#1B2125"/>
<path d="M4.0946 41.2378H5.26606L5.66724 42.2597C6.64613 41.6689 7.5127 41.0781 8.90882 41.0781C10.8185 41.0781 11.7011 42.4833 11.7011 44.0481V50.2596H10.1124V44.0322C10.1124 42.9783 9.51862 42.5152 8.71625 42.5152C7.4485 42.5152 6.82266 42.8346 5.6512 43.4413V50.2755H4.0625V41.2378H4.0946Z" fill="#1B2125"/>
<path d="M12.8207 41.5252L14.4415 41.2378V40.3915C14.4415 38.3795 15.7895 36.9105 17.9238 36.8945C18.7743 36.8945 20.5716 37.182 21.3901 37.4534V38.4434C21.374 38.4434 18.3731 38.2837 18.3731 38.2837C17.314 38.2199 16.0302 38.635 16.0302 40.4234V41.2378L22.1764 41.4134V50.2755H20.5716V42.6589H16.0142V50.2755H14.4255V42.6589H12.8047V41.5252H12.8207Z" fill="#1B2125"/>
<path d="M24.0243 41.2378H25.1957L25.5969 42.2597C26.5758 41.6689 27.4424 41.0781 28.8385 41.0781C30.7482 41.0781 31.6308 42.4833 31.6308 44.0481V50.2596H30.0421V44.0322C30.0421 42.9783 29.4483 42.5152 28.6459 42.5152C27.3782 42.5152 26.7523 42.8346 25.5809 43.4413V50.2755H23.9922V41.2378H24.0243Z" fill="#1B2125"/>
<path d="M33.25 38.7319C33.25 38.4764 33.3944 38.3008 33.6672 38.3008H34.7905C35.0473 38.3008 35.1917 38.4924 35.1917 38.7319V39.8177C35.1917 40.0732 35.0313 40.2009 34.7905 40.2009H33.6672C33.4265 40.2009 33.25 40.0413 33.25 39.8177V38.7319ZM33.3944 41.2388H34.9831V50.2766H33.3944V41.2388Z" fill="#1B2125"/>
<path d="M36.2969 41.5734L37.9337 41.2221L38.2707 38.6992H39.5224V41.2221H42.0258V42.6273H39.5224V46.9226C39.5224 48.3597 39.8915 48.6791 40.4531 48.8387C40.4531 48.8387 41.769 49.19 41.8814 49.19V50.2439H40.2124C38.8805 50.2439 37.9498 49.4295 37.9498 47.0184V42.6113H36.3129L36.2969 41.5734Z" fill="#1B2125"/>
<path d="M47.1922 50.2601L46.3096 52.9267H48.0587L51.7978 41.2383H50.0807L47.6736 48.7591C47.6415 48.7591 46.8712 48.9986 46.5984 48.0884L44.5604 41.2383H42.8594L44.9776 48.2801C45.4912 50.0684 46.5824 50.2601 47.1922 50.2601Z" fill="#1B2125"/>
<path d="M54.5765 37.8203L58.0106 47.8002L60.8991 37.8203H62.6483L61.5571 41.5887L63.7716 47.88L66.7404 37.8203H68.4575L64.6382 50.2752H62.9532L60.7708 44.2553L58.8451 50.2752H57.1601L52.8594 37.8203H54.5765Z" fill="#1B2125"/>
<path d="M68.2812 47.0986C68.2812 45.7573 69.0997 44.7832 70.6723 44.7832C70.6723 44.7832 74.1867 44.7992 74.1867 44.7832C74.1867 44.7832 74.2027 43.8092 74.1867 43.7932C74.1867 42.7713 73.6571 42.4679 72.8227 42.4679C71.6993 42.4679 69.9823 42.5637 68.5701 42.6755V41.6057C69.7897 41.2384 71.25 41.0787 72.951 41.0628C74.5237 41.0468 75.7754 41.7813 75.7754 43.7613V50.2602H74.5718L74.2027 49.1903C74.1546 49.2382 72.1808 50.356 70.6723 50.356C69.2762 50.34 68.2973 49.4458 68.2973 48.0726V47.0986H68.2812ZM70.8328 48.9349C72.1166 48.9349 74.1867 48.1205 74.1867 48.1205V45.901L70.8007 46.1405C70.0946 46.2044 69.8539 46.6994 69.8539 47.1944V47.9289C69.8699 48.7273 70.2872 48.9349 70.8328 48.9349Z" fill="#1B2125"/>
<path d="M77.5391 36.9414H79.1278V46.9372C79.1278 48.3743 79.4968 48.6937 80.0585 48.8374C80.0585 48.8374 81.3744 49.1887 81.4867 49.1887V50.2425H79.8499C78.4698 50.2425 77.5551 49.4282 77.5551 47.033V36.9414H77.5391Z" fill="#1B2125"/>
<path d="M82.7578 36.9414H84.3465V46.9372C84.3465 48.3743 84.7156 48.6937 85.2772 48.8374C85.2772 48.8374 86.5931 49.1887 86.7055 49.1887V50.2425H85.0686C83.6886 50.2425 82.7739 49.4282 82.7739 47.033V36.9414H82.7578Z" fill="#1B2125"/>
<path d="M91.1208 41.1758C93.3995 41.1758 94.7154 41.3993 94.7154 44.4013C94.7154 45.7905 93.9612 46.525 92.3083 46.525H88.7137C88.7137 48.5209 89.1791 48.9201 90.511 48.9201C92.0355 48.9201 93.2712 48.9361 94.555 48.7445V49.8782C93.1909 50.2934 91.5701 50.3572 90.1419 50.3572C87.815 50.3572 87.125 49.1916 87.125 45.7106C87.125 41.7187 88.2804 41.1758 91.1208 41.1758ZM92.1478 45.1518C92.8379 45.1518 93.1428 44.8803 93.1428 44.3693C93.1428 42.7566 92.8539 42.5969 91.185 42.5969C89.4198 42.5969 88.7137 42.6288 88.7297 45.1677L92.1478 45.1518Z" fill="#1B2125"/>
<path d="M95.6875 41.5734L97.3243 41.2221L97.6613 38.6992H98.913V41.2221H101.416V42.6273H98.913V46.9226C98.913 48.3597 99.2821 48.6791 99.8438 48.8387C99.8438 48.8387 101.16 49.19 101.272 49.19V50.2439H99.6031C98.2711 50.2439 97.3404 49.4295 97.3404 47.0184V42.6113H95.7035V41.5734H95.6875Z" fill="#1B2125"/>
<path d="M53.3602 6.55493C53.296 6.37929 53.1516 6.33138 53.0874 6.31542C53.0232 6.29945 52.8467 6.26752 52.6862 6.42719L51.8678 7.24154L51.7394 7.36929L45.2081 0.918321C44.0206 -0.263291 42.4319 -0.917969 40.7309 -0.917969C39.0459 -0.917969 37.4572 -0.263291 36.2697 0.918321L26.9783 10.1796C25.7747 11.3772 25.1328 12.958 25.1328 14.6346C25.1328 16.3272 25.7747 17.908 26.9783 19.1056L36.2858 28.319C37.4733 29.5006 39.062 30.1553 40.7469 30.1553C42.4319 30.1553 44.0206 29.5006 45.2081 28.319C45.2081 28.319 47.3103 26.2272 47.3264 26.2112C47.5992 25.9398 47.9362 25.5565 48.1127 25.0615C48.2571 24.6624 48.3053 24.2472 48.2411 23.832C48.1929 23.4169 48.0325 23.0177 47.7918 22.6664C47.6955 22.5386 47.5992 22.4109 47.4708 22.2991C46.4438 21.2932 44.7748 21.2932 43.7478 22.3151L41.4691 24.5825C41.3247 24.7262 41.1642 24.822 40.9716 24.854C40.7469 24.9019 40.6186 24.8859 40.426 24.822C40.2495 24.7582 40.089 24.6464 39.9446 24.5186L30.7013 15.3212C30.5568 15.1775 30.4606 15.0019 30.4285 14.8103C30.3803 14.5548 30.4285 14.2993 30.5568 14.0917L30.605 14.0438C30.7173 13.932 39.9285 4.78251 40.0088 4.70267C40.1532 4.55896 40.3458 4.46316 40.5383 4.41526C40.6025 4.39929 40.6667 4.39929 40.7309 4.39929C41.0037 4.39929 41.2605 4.51106 41.453 4.70267L47.9683 11.1377L47.6473 11.457L47.0054 12.0957C46.861 12.2395 46.8771 12.4151 46.8931 12.4949C46.9092 12.5588 46.9733 12.7025 47.1338 12.7664L53.0072 13.4849C53.2479 13.4849 53.4886 13.3891 53.6491 13.2135C53.8256 13.0378 53.9219 12.8143 53.9219 12.5588L53.3602 6.55493Z" fill="url(#paint0_linear_1_8399)"/>
<path opacity="0.49" d="M30.6569 15.2555C30.3841 14.9681 30.352 14.4411 30.5767 14.0898C30.5767 14.0898 27.5116 17.4111 28.988 21.0837L30.9297 22.9998L33.754 18.3373L30.6569 15.2555Z" fill="url(#paint1_linear_1_8399)"/>
<path opacity="0.49" d="M40.1719 24.7264C43.6221 27.888 47.4093 26.1315 47.4093 26.1315C47.4093 26.1315 47.9067 25.6685 48.1153 25.0777C47.6018 24.8222 43.8949 22.1875 43.8949 22.1875L41.7124 24.3591C40.9261 25.2852 40.1719 24.7264 40.1719 24.7264Z" fill="url(#paint2_linear_1_8399)"/>
<path opacity="0.49" d="M37.9059 6.81052C37.9059 6.81052 40.1204 4.591 40.1204 4.60696C40.1204 4.60696 40.7142 4.1439 41.324 4.57503C41.324 4.57503 37.6491 1.5731 33.7335 3.45729L32.5781 4.60696L37.9059 6.81052Z" fill="url(#paint3_linear_1_8399)"/>
<path d="M48.6398 22.6824C48.704 22.858 48.8484 22.9059 48.9126 22.9219C48.9768 22.9378 49.1533 22.9698 49.3138 22.8101L50.1322 21.9957L50.2606 21.868L56.7919 28.319C57.9794 29.5006 59.5681 30.1553 61.2691 30.1553C62.9541 30.1553 64.5428 29.5006 65.7303 28.319L75.0217 19.0577C76.2253 17.8601 76.8672 16.2793 76.8672 14.6027C76.8672 12.9101 76.2253 11.3293 75.0217 10.1317L65.7142 0.918321C64.5267 -0.263291 62.938 -0.917969 61.2531 -0.917969C59.5681 -0.917969 57.9794 -0.263291 56.7919 0.918321C56.7919 0.918321 54.6897 3.01009 54.6736 3.02606C54.4008 3.29751 54.0638 3.68074 53.8873 4.17574C53.7429 4.57493 53.6947 4.99009 53.7589 5.40525C53.8071 5.82041 53.9675 6.21961 54.2082 6.5709C54.3045 6.69864 54.4008 6.82638 54.5292 6.93816C55.5562 7.94413 57.2252 7.94412 58.2522 6.92219L60.5309 4.65477C60.6754 4.51106 60.8358 4.41525 61.0284 4.38332C61.2531 4.33542 61.3814 4.35139 61.574 4.41526C61.7505 4.47913 61.911 4.5909 62.0554 4.71864L71.2987 13.9161C71.4432 14.0598 71.5394 14.2354 71.5715 14.427C71.6197 14.6825 71.5715 14.938 71.4432 15.1456L71.395 15.1935C71.2827 15.3053 62.0715 24.4548 61.9912 24.5346C61.8468 24.6783 61.6542 24.7741 61.4617 24.822C61.3975 24.838 61.3333 24.838 61.2691 24.838C60.9963 24.838 60.7395 24.7262 60.547 24.5346L54.0317 18.0996L54.3527 17.7803L54.9946 17.1415C55.139 16.9978 55.1229 16.8222 55.1069 16.7423C55.0908 16.6785 55.0267 16.5348 54.8662 16.4709L48.9928 15.7523C48.7521 15.7523 48.5114 15.8482 48.3509 16.0238C48.1744 16.1994 48.0781 16.423 48.0781 16.6785L48.6398 22.6824Z" fill="url(#paint4_linear_1_8399)"/>
<path opacity="0.49" d="M71.3471 13.9787C71.62 14.2661 71.652 14.7931 71.4274 15.1444C71.4274 15.1444 74.4924 11.8231 73.0161 8.1505L71.0743 6.23438L68.25 10.897L71.3471 13.9787Z" fill="url(#paint5_linear_1_8399)"/>
<path opacity="0.49" d="M61.8341 4.51281C58.3839 1.3512 54.5967 3.10764 54.5967 3.10764C54.5967 3.10764 54.0992 3.57071 53.8906 4.16152C54.4041 4.417 58.1111 7.05168 58.1111 7.05168L60.3096 4.88006C61.0799 3.93797 61.8341 4.51281 61.8341 4.51281Z" fill="url(#paint6_linear_1_8399)"/>
<path opacity="0.49" d="M64.09 22.4258C64.09 22.4258 61.8754 24.6453 61.8754 24.6293C61.8754 24.6293 61.2817 25.0924 60.6719 24.6613C60.6719 24.6613 64.3467 27.6632 68.2623 25.779L69.4177 24.6293L64.09 22.4258Z" fill="url(#paint7_linear_1_8399)"/>
</g>
<defs>
<linearGradient id="paint0_linear_1_8399" x1="39.5273" y1="-4.88852" x2="39.5273" y2="55.2944" gradientUnits="userSpaceOnUse">
<stop offset="0.00510204" stop-color="#00BFE1"/>
<stop offset="0.9651" stop-color="#2738AB"/>
</linearGradient>
<linearGradient id="paint1_linear_1_8399" x1="27.9114" y1="16.1798" x2="31.7919" y2="19.4416" gradientUnits="userSpaceOnUse">
<stop offset="0.0348857" stop-color="#1B1464"/>
<stop offset="1" stop-color="#1B1464" stop-opacity="0"/>
</linearGradient>
<linearGradient id="paint2_linear_1_8399" x1="43.0219" y1="26.5591" x2="44.8658" y2="23.9312" gradientUnits="userSpaceOnUse">
<stop offset="0.0348857" stop-color="#1B1464"/>
<stop offset="1" stop-color="#1B1464" stop-opacity="0"/>
</linearGradient>
<linearGradient id="paint3_linear_1_8399" x1="37.79" y1="2.52607" x2="36.4088" y2="5.95966" gradientUnits="userSpaceOnUse">
<stop offset="0.0348857" stop-color="#1B1464"/>
<stop offset="1" stop-color="#1B1464" stop-opacity="0"/>
</linearGradient>
<linearGradient id="paint4_linear_1_8399" x1="62.4727" y1="-4.88852" x2="62.4727" y2="55.2944" gradientUnits="userSpaceOnUse">
<stop offset="0.00510204" stop-color="#00BFE1"/>
<stop offset="0.9651" stop-color="#2738AB"/>
</linearGradient>
<linearGradient id="paint5_linear_1_8399" x1="74.0892" y1="13.0514" x2="70.2086" y2="9.78969" gradientUnits="userSpaceOnUse">
<stop offset="0.0348857" stop-color="#1B1464"/>
<stop offset="1" stop-color="#1B1464" stop-opacity="0"/>
</linearGradient>
<linearGradient id="paint6_linear_1_8399" x1="58.9874" y1="2.67533" x2="57.1436" y2="5.30326" gradientUnits="userSpaceOnUse">
<stop offset="0.0348857" stop-color="#1B1464"/>
<stop offset="1" stop-color="#1B1464" stop-opacity="0"/>
</linearGradient>
<linearGradient id="paint7_linear_1_8399" x1="64.2084" y1="26.7041" x2="65.5895" y2="23.2705" gradientUnits="userSpaceOnUse">
<stop offset="0.0348857" stop-color="#1B1464"/>
<stop offset="1" stop-color="#1B1464" stop-opacity="0"/>
</linearGradient>
<clipPath id="clip0_1_8399">
<rect width="102" height="54" fill="white"/>
</clipPath>
</defs>
</svg>
