<svg width="25" height="24" viewBox="0 0 25 24" fill="none" xmlns="http://www.w3.org/2000/svg">
<path d="M12.9602 3.15503C8.19669 3.15503 4.33521 7.01651 4.33521 11.78C4.33521 16.5435 8.19669 20.405 12.9602 20.405C17.7237 20.405 21.5852 16.5435 21.5852 11.78C21.5852 7.01651 17.7237 3.15503 12.9602 3.15503ZM16.7336 9.68397H16.6285C16.6285 9.68397 16.3141 9.68397 16.3141 9.99843V13.5616C16.3141 13.5616 16.3141 13.8761 16.6285 13.8761H16.7336V14.7152H14.218V13.8761H14.6376V9.97686H14.5954L13.3106 14.7152H12.1786L10.9055 9.97686H10.8641V13.8761H11.2828V14.7152H9.18677V13.8761H9.29188C9.29188 13.8761 9.60634 13.8761 9.60634 13.5616V9.99753C9.60634 9.99753 9.60634 9.68307 9.29188 9.68307H9.18677V8.84483H11.9683L12.944 12.4754H12.9764L13.9602 8.84573H16.7336V9.68397Z" fill="url(#paint0_linear_2001_554)"/>
<defs>
<linearGradient id="paint0_linear_2001_554" x1="21.5852" y1="3.15503" x2="0.943681" y2="9.68614" gradientUnits="userSpaceOnUse">
<stop stop-color="#000756"/>
<stop offset="1" stop-color="#0042B8"/>
</linearGradient>
</defs>
</svg>
