<svg width="116" height="48" viewBox="0 0 116 48" fill="none" xmlns="http://www.w3.org/2000/svg">
<g clip-path="url(#clip0_1_8382)">
<path d="M60.6004 16.2742H55.3595L54.363 19.2662H51.1846L56.585 4.74577H59.3549L64.7852 19.2662H61.6068L60.6004 16.2742ZM56.1664 13.851H59.7933L57.97 8.41579L56.1664 13.851ZM69.219 5.82289V8.47559H71.0623V10.5898H69.219V15.9751C69.219 16.3741 69.2954 16.6599 69.4482 16.8327C69.601 17.0056 69.8933 17.092 70.325 17.092C70.6438 17.092 70.9262 17.0688 71.1719 17.0223V19.2064C70.6074 19.3792 70.0261 19.4657 69.4282 19.4657C67.4089 19.4657 66.3793 18.4451 66.3395 16.404V10.5898H64.7653V8.47559H66.3395V5.82289H69.219ZM71.9192 13.7712C71.9192 12.7008 72.1251 11.7466 72.537 10.909C72.9488 10.0713 73.5399 9.42295 74.3105 8.96431C75.0877 8.50549 75.9878 8.27609 77.0107 8.27609C78.4654 8.27609 79.6511 8.7215 80.5679 9.61249C81.491 10.5033 82.0059 11.7134 82.1122 13.2426L82.1321 13.9805C82.1321 15.636 81.6704 16.9657 80.7471 17.9696C79.8238 18.967 78.5851 19.4657 77.0306 19.4657C75.4764 19.4657 74.2341 18.967 73.3042 17.9696C72.3809 16.9724 71.9192 15.6161 71.9192 13.9008V13.7712ZM74.7987 13.9805C74.7987 15.0045 74.9914 15.789 75.3766 16.3342C75.7619 16.8728 76.3132 17.142 77.0306 17.142C77.728 17.142 78.2728 16.876 78.6647 16.3442C79.0567 15.8056 79.2526 14.948 79.2526 13.7712C79.2526 12.7672 79.0567 11.9894 78.6647 11.4375C78.2728 10.8857 77.7215 10.6097 77.0107 10.6097C76.3066 10.6097 75.7619 10.8857 75.3766 11.4375C74.9914 11.9827 74.7987 12.8304 74.7987 13.9805ZM86.6059 8.47559L86.6955 9.68226C87.4593 8.74487 88.4924 8.27609 89.7942 8.27609C91.1825 8.27609 92.1357 8.82459 92.6538 9.92163C93.4112 8.82459 94.4905 8.27609 95.8922 8.27609C97.0612 8.27609 97.9313 8.61856 98.5026 9.30335C99.0739 9.98143 99.3595 11.0054 99.3595 12.375V19.2662H96.4701V12.385C96.4701 11.7732 96.3504 11.3278 96.1112 11.0486C95.8722 10.7626 95.4504 10.6198 94.8459 10.6198C93.9823 10.6198 93.3845 11.0319 93.0525 11.8564L93.0625 19.2662H90.1828V12.3949C90.1828 11.77 90.06 11.3179 89.8142 11.0386C89.5685 10.7594 89.1499 10.6198 88.5588 10.6198C87.7418 10.6198 87.1505 10.9589 86.7851 11.637V19.2662H83.9056V8.47559H86.6059ZM104.621 19.2662H101.731V8.47559H104.621V19.2662ZM101.562 5.68319C101.562 5.25101 101.704 4.89535 101.99 4.61613C102.282 4.33689 102.678 4.19727 103.176 4.19727C103.667 4.19727 104.059 4.33689 104.351 4.61613C104.644 4.89535 104.79 5.25101 104.79 5.68319C104.79 6.12207 104.64 6.48104 104.342 6.76028C104.049 7.03952 103.661 7.17906 103.176 7.17906C102.691 7.17906 102.299 7.03952 102 6.76028C101.708 6.48104 101.562 6.12207 101.562 5.68319ZM111.486 17.142C112.017 17.142 112.449 16.9956 112.781 16.7032C113.113 16.4107 113.286 16.0216 113.299 15.5364H115.999C115.993 16.2677 115.793 16.9391 115.401 17.5508C115.01 18.1559 114.471 18.6279 113.787 18.967C113.11 19.2993 112.359 19.4657 111.535 19.4657C109.994 19.4657 108.779 18.9769 107.889 17.9997C106.999 17.0156 106.554 15.6594 106.554 13.9307V13.7413C106.554 12.0791 106.995 10.7527 107.879 9.76199C108.762 8.7715 109.975 8.27609 111.516 8.27609C112.864 8.27609 113.943 8.6617 114.754 9.43292C115.571 10.1976 115.986 11.2182 115.999 12.4946H113.299C113.286 11.9361 113.113 11.484 112.781 11.1383C112.449 10.786 112.01 10.6097 111.466 10.6097C110.795 10.6097 110.287 10.8558 109.941 11.3478C109.602 11.833 109.433 12.6244 109.433 13.7212V14.0206C109.433 15.1308 109.602 15.9287 109.941 16.414C110.28 16.8992 110.795 17.142 111.486 17.142ZM67.8041 38.9331L69.757 28.6013H72.7363L69.518 43.1217H66.5089L64.1475 33.4082L61.786 43.1217H58.7771L55.5586 28.6013H58.5379L60.5008 38.9131L62.892 28.6013H65.4228L67.8041 38.9331ZM80.0796 43.1217C79.9467 42.8624 79.8504 42.54 79.7907 42.1544C79.0931 42.9321 78.1864 43.3212 77.0705 43.3212C76.0143 43.3212 75.1375 43.0153 74.4401 42.4036C73.7492 41.792 73.4038 41.0208 73.4038 40.0899C73.4038 38.9465 73.8256 38.0689 74.6693 37.4571C75.5195 36.8456 76.745 36.5362 78.3459 36.5297H79.671V35.9114C79.671 35.4128 79.5415 35.0137 79.2825 34.7146C79.0301 34.4154 78.6282 34.2659 78.0769 34.2659C77.5919 34.2659 77.21 34.3822 76.9311 34.6149C76.6586 34.8476 76.5225 35.1667 76.5225 35.5722H73.643C73.643 34.9474 73.8356 34.3688 74.2208 33.837C74.6061 33.3051 75.1509 32.8896 75.8549 32.5904C76.559 32.2846 77.3495 32.1316 78.2263 32.1316C79.5548 32.1316 80.6077 32.4674 81.3848 33.139C82.1687 33.8038 82.5606 34.7412 82.5606 35.9513V40.6284C82.5672 41.6523 82.71 42.4269 82.989 42.9521V43.1217H80.0796ZM77.6982 41.1172C78.1234 41.1172 78.5152 41.024 78.874 40.8379C79.2327 40.6451 79.4983 40.3891 79.671 40.07V38.2151H78.595C77.1536 38.2151 76.3863 38.7136 76.2933 39.711L76.2833 39.8806C76.2833 40.2396 76.4095 40.5355 76.662 40.7682C76.9144 41.0008 77.2598 41.1172 77.6982 41.1172ZM87.8115 43.1217H84.922V27.8035H87.8115V43.1217ZM93.2317 43.1217H90.3423V27.8035H93.2317V43.1217ZM100.575 43.3212C98.9942 43.3212 97.7055 42.8357 96.7091 41.8652C95.7195 40.8945 95.2245 39.6014 95.2245 37.9857V37.7065C95.2245 36.6227 95.4338 35.6554 95.8522 34.8044C96.2707 33.9468 96.8619 33.2885 97.6258 32.8298C98.3964 32.3643 99.2732 32.1316 100.256 32.1316C101.731 32.1316 102.89 32.5971 103.734 33.5278C104.584 34.4587 105.009 35.7784 105.009 37.487V38.6638H98.144C98.2369 39.3685 98.5159 39.9337 98.9808 40.3592C99.4524 40.7847 100.047 40.9976 100.765 40.9976C101.874 40.9976 102.741 40.5953 103.365 39.7907L104.78 41.3765C104.348 41.9881 103.764 42.4668 103.026 42.8125C102.289 43.1516 101.472 43.3212 100.575 43.3212ZM100.246 34.4652C99.6751 34.4652 99.21 34.658 98.8513 35.0438C98.4992 35.4294 98.2734 35.9812 98.1739 36.6992H102.179V36.4699C102.166 35.8315 101.993 35.3396 101.661 34.9938C101.329 34.6415 100.858 34.4652 100.246 34.4652ZM110.101 29.6784V32.3311H111.944V34.4453H110.101V39.8306C110.101 40.2296 110.177 40.5154 110.33 40.6883C110.483 40.8611 110.775 40.9476 111.207 40.9476C111.526 40.9476 111.808 40.9244 112.054 40.8778V43.0619C111.489 43.2347 110.908 43.3212 110.31 43.3212C108.291 43.3212 107.261 42.3006 107.221 40.2595V34.4453H105.647V32.3311H107.221V29.6784H110.101Z" fill="#1B2125"/>
<path fill-rule="evenodd" clip-rule="evenodd" d="M0 47.9996L14.5324 8.30091C16.3764 3.66604 19.8144 1.04239 24.3846 0.966543V0.964844L24.4868 0.965269L24.5892 0.964844V0.966543C29.1594 1.04239 32.5974 3.66604 34.4415 8.30091L48.9738 47.9996L39.9749 44.8791L27.5606 10.9668C26.8051 9.09125 25.9325 8.41594 24.4868 8.3862C23.0411 8.41594 22.1687 9.09125 21.4132 10.9668L8.99897 44.8791L0 47.9996ZM30.8102 32.8832C30.8102 36.3508 28.0175 39.162 24.5722 39.162C21.1272 39.162 18.3344 36.3508 18.3344 32.8832C18.3344 29.4155 21.1272 26.6045 24.5722 26.6045C28.0175 26.6045 30.8102 29.4155 30.8102 32.8832Z" fill="#3692FE"/>
</g>
<defs>
<clipPath id="clip0_1_8382">
<rect width="116" height="48" fill="white"/>
</clipPath>
</defs>
</svg>
