<svg width="110" height="40" viewBox="0 0 110 40" fill="none" xmlns="http://www.w3.org/2000/svg">
<rect x="0.5" y="0.5" width="17" height="17" rx="1" fill="#3169FF"/>
<path fill-rule="evenodd" clip-rule="evenodd" d="M18.5 17.5C17.9477 17.5 17.5 17.9477 17.5 18.5V27.3827C17.4943 27.4046 17.4912 27.4278 17.4912 27.452C17.4912 27.4938 17.4818 27.535 17.4621 27.572C17.2781 27.9186 16.8697 28.5156 16.4912 28.5156H8.49121C7.93893 28.5156 7.49121 28.9633 7.49121 29.5156V37.5156C7.49121 38.0679 7.93893 38.5156 8.49121 38.5156H16.4912C17.0435 38.5156 17.4912 38.0679 17.4912 37.5156V33.5156V31.0156V29.7517C17.4912 29.5964 17.5254 29.4422 17.6053 29.3092C17.8127 28.964 18.1632 28.5156 18.4912 28.5156C18.5362 28.5156 18.5785 28.5101 18.6178 28.5H27.5C28.0523 28.5 28.5 28.0523 28.5 27.5V18.5C28.5 17.9477 28.0523 17.5 27.5 17.5H18.5Z" fill="#3169FF"/>
<path d="M40.78 12.5H51.52V15.08H47.48V26.5H44.76V15.08H40.78V12.5ZM62.7886 26.54L61.8686 23.88H56.3886L55.4686 26.54H52.5686L57.7286 12.56H60.5086L65.6686 26.54H62.7886ZM57.2286 21.36H61.0286L59.7286 17.62C59.6086 17.3 59.5486 17.06 59.5086 16.9L59.3286 16.26C59.2886 16.2 59.2686 16.12 59.2486 16.02C59.2086 15.92 59.1886 15.84 59.1886 15.8L59.1286 15.62H59.1086L59.0686 15.78C59.0486 15.82 59.0286 15.9 59.0086 15.98C58.9686 16.08 58.9486 16.16 58.9286 16.22L58.7486 16.84C58.7086 17 58.6286 17.24 58.5286 17.56L57.2286 21.36ZM68.0061 12.48H72.6061H72.5661C73.3661 12.48 74.0861 12.6 74.7261 12.8C75.3661 13.04 75.9061 13.34 76.3461 13.72C76.7861 14.12 77.1261 14.62 77.3661 15.18C77.6061 15.78 77.7261 16.44 77.7261 17.16C77.7261 17.9 77.6061 18.56 77.3661 19.14C77.1261 19.72 76.7861 20.2 76.3461 20.6C75.9061 21 75.3661 21.3 74.7261 21.52C74.0861 21.74 73.3861 21.84 72.6061 21.84H70.7261V26.48H68.0061V12.48ZM70.7261 19.3H72.5661V19.28C73.3061 19.28 73.8861 19.1 74.3061 18.72C74.7061 18.36 74.9261 17.84 74.9261 17.16C74.9261 16.48 74.7061 15.96 74.3061 15.6C73.8861 15.24 73.3061 15.06 72.5661 15.06H70.7261V19.3ZM80.363 12.5H85.563L85.543 12.54C86.183 12.54 86.743 12.64 87.223 12.8C87.703 12.98 88.143 13.24 88.523 13.56C88.883 13.88 89.163 14.26 89.363 14.7C89.563 15.14 89.663 15.62 89.663 16.14C89.663 16.52 89.603 16.86 89.483 17.18C89.363 17.5 89.203 17.78 89.003 18.02C88.783 18.3 88.583 18.48 88.383 18.6C88.143 18.76 87.923 18.86 87.723 18.9V18.94C88.043 19 88.363 19.12 88.683 19.3C89.003 19.5 89.303 19.74 89.563 20.02C89.823 20.34 90.043 20.68 90.203 21.04C90.363 21.44 90.443 21.86 90.443 22.3C90.443 22.92 90.343 23.48 90.143 24C89.943 24.52 89.643 24.96 89.243 25.34C88.843 25.72 88.343 26 87.743 26.2C87.143 26.4 86.443 26.5 85.643 26.5H80.363V12.5ZM83.103 18.06H85.183H85.163C85.683 18.06 86.123 17.92 86.483 17.6C86.823 17.3 87.003 16.92 87.003 16.46C87.003 15.96 86.823 15.56 86.503 15.26C86.163 14.98 85.723 14.82 85.163 14.82H83.103V18.06ZM83.123 24.18H85.523H85.503C86.143 24.18 86.663 24 87.043 23.64C87.423 23.28 87.623 22.8 87.623 22.18C87.623 21.58 87.423 21.1 87.023 20.74C86.623 20.38 86.103 20.2 85.483 20.2H83.123V24.18ZM95.9886 26.5H93.2686V12.5H95.9886V26.5ZM98.4284 12.5H109.168V15.08H105.128V26.5H102.408V15.08H98.4284V12.5Z" fill="black"/>
</svg>
