<svg width="208" height="25" viewBox="0 0 208 25" fill="none" xmlns="http://www.w3.org/2000/svg">
<g clip-path="url(#clip0_2001_405)">
<path d="M20.1463 10.0488C21.6776 12.0915 17.1932 16.0426 18.2005 14.4113H8.6484C7.61507 13.0592 6.90465 11.5822 6.56299 10.0488H20.1463Z" fill="url(#paint0_linear_2001_405)"/>
<path d="M17.3771 21.8229C16.0198 22.9055 14.5523 23.8423 12.999 24.6177L12.2385 25L11.474 24.6187C4.2875 21.0125 0 14.8 0 7.99375V0H4.38333V7.99271C4.38333 8.50312 4.41667 9.01146 4.48646 9.51667C5.03854 13.6521 7.83021 17.4677 12.2219 20.0375C12.2262 20.0413 12.2312 20.0445 12.2365 20.0469L12.2479 20.0396L12.2667 20.0281C13.8542 20.9161 15.583 21.5225 17.3771 21.8229Z" fill="url(#paint1_linear_2001_405)"/>
<path d="M24.3418 10.0479C24.1387 11.6276 23.7053 13.1689 23.0554 14.6229C21.8543 17.3229 19.9231 19.7802 17.3793 21.825C15.586 21.5244 13.8579 20.9169 12.271 20.0292C12.8439 19.6906 13.4002 19.324 13.9366 18.9302C13.9897 18.8958 14.0408 18.8573 14.0908 18.8177C17.06 16.6796 19.1991 13.5811 20.146 10.0469L24.3418 10.0479Z" fill="url(#paint2_linear_2001_405)"/>
<path d="M24.4771 0H4.3833V4.38125H24.4771V0Z" fill="url(#paint3_linear_2001_405)"/>
<path d="M24.4779 4.38281V7.99219C24.4779 8.14115 24.4727 8.29115 24.4674 8.4401H20.082C20.0872 8.29115 20.0893 8.14115 20.0893 7.99219V4.38281H24.4779Z" fill="url(#paint4_linear_2001_405)"/>
<path d="M51.8833 11.7487C51.8833 13.2331 51.7167 14.4466 51.3812 15.3862C50.9293 16.7364 50.0391 17.8968 48.8521 18.6831C47.6498 19.4399 46.2504 19.8241 44.8302 19.7872C42.3094 19.7872 40.3771 18.931 39.0302 17.2164C38.0016 15.8861 37.462 14.2423 37.5021 12.5612C37.5021 10.5633 38.099 8.88516 39.2917 7.52474C40.6458 5.97995 42.5354 5.20703 44.9625 5.20703C46.5833 5.20703 47.9562 5.6237 49.0833 6.45495C49.8875 7.04245 50.574 7.91328 51.1438 9.06641L47.7708 10.4643C47.5458 9.91536 47.2021 9.42266 46.7625 9.02474C46.2091 8.57057 45.5116 8.32898 44.7958 8.34349C43.2437 8.34349 42.1604 9.14245 41.55 10.7404C41.3218 11.3221 41.2052 11.9415 41.2062 12.5664C41.1876 13.1656 41.2878 13.7625 41.5009 14.3228C41.714 14.8831 42.0358 15.3956 42.4479 15.831C43.0604 16.481 43.8781 16.8049 44.899 16.8029C45.8052 16.8029 46.524 16.5393 47.0552 16.0122C47.4438 15.5852 47.6844 15.0456 47.7427 14.4716H44.8063V11.7477L51.8833 11.7487ZM70.2365 13.557C70.2448 14.2654 70.174 14.9716 70.025 15.6643C69.7941 16.6226 69.2793 17.4889 68.5479 18.1497C67.4344 19.2018 65.9458 19.7289 64.0823 19.7289C62.1865 19.7289 60.7062 19.1924 59.6406 18.1206C59.0654 17.5349 58.665 16.8005 58.4844 15.9997C58.3173 15.2002 58.2429 14.384 58.2625 13.5674V5.64453H61.8313V13.0664C61.8313 13.6643 61.8417 14.1081 61.8625 14.4008C61.9271 15.3331 62.349 15.9831 63.1281 16.3508C63.4615 16.507 63.826 16.5852 64.1948 16.5799C65.0646 16.5799 65.7208 16.2768 66.1635 15.6674C66.4927 15.2195 66.6562 14.3529 66.6562 13.0664V5.64557H70.226L70.2365 13.557ZM89.0313 19.3664H85.2198L84.3365 16.9737H79.4104L78.4656 19.3664H74.6969L79.9677 5.64557H83.8646L89.0313 19.3664ZM83.3719 14.2612L81.8958 9.8862L80.3969 14.2612H83.3719ZM106.139 19.3664H101.711L98.3031 14.0956V19.3664H94.725V5.64557H100.276C101.898 5.64557 103.097 6.13099 103.874 7.10182C104.504 7.88434 104.838 8.86329 104.819 9.86745C104.819 11.081 104.457 12.0487 103.733 12.7727C103.202 13.2706 102.54 13.606 101.823 13.7383L106.139 19.3664ZM101.121 10.0643C101.126 9.8325 101.081 9.60233 100.989 9.3895C100.897 9.17667 100.76 8.98617 100.588 8.83099C100.251 8.51536 99.7094 8.35911 98.9625 8.36016H98.2969V11.7768H98.9625C99.7177 11.7768 100.257 11.6195 100.588 11.3049C100.759 11.1476 100.895 10.9556 100.986 10.7417C101.078 10.5278 101.123 10.2969 101.119 10.0643H101.121ZM123.785 12.5008C123.765 13.9206 123.315 15.3009 122.494 16.4599C121.674 17.6189 120.522 18.5022 119.19 18.9935C118.492 19.2383 117.757 19.3637 117.018 19.3643H111.748V5.64453H117.018C118.293 5.63953 119.54 6.01372 120.602 6.71953C121.668 7.40423 122.525 8.36798 123.081 9.50599C123.542 10.4368 123.783 11.4621 123.785 12.5008ZM120.085 12.5008C120.103 11.6087 119.823 10.7362 119.289 10.0216C118.585 9.08724 117.532 8.62057 116.126 8.62161H115.31V16.3924H116.126C117.532 16.3924 118.585 15.9247 119.289 14.9904C119.821 14.2716 120.1 13.3956 120.081 12.5008H120.085ZM141.565 19.3664H137.755L136.87 16.9737H131.944L130.999 19.3664H127.229L132.5 5.64557H136.398L141.565 19.3664ZM135.904 14.2612L134.429 9.8862L132.941 14.2612H135.904ZM158.672 19.3664H154.232L150.825 14.0956V19.3664H147.26V5.64557H152.809C154.43 5.64557 155.63 6.13099 156.407 7.10182C157.036 7.88516 157.371 8.86328 157.352 9.86745C157.352 11.081 156.99 12.0487 156.266 12.7727C155.735 13.2712 155.072 13.6064 154.356 13.7383L158.672 19.3664ZM153.656 10.0643C153.66 9.8325 153.614 9.6026 153.522 9.38993C153.429 9.17726 153.293 8.98671 153.121 8.83099C152.783 8.51641 152.244 8.36016 151.498 8.36016H150.831V11.7768H151.492C152.245 11.7768 152.785 11.6206 153.115 11.3049C153.287 11.1477 153.424 10.9559 153.517 10.7421C153.61 10.5284 153.656 10.2974 153.654 10.0643H153.656ZM167.856 19.3664H164.285V5.64557H167.854L167.856 19.3664ZM187.896 19.3664H184.084L183.199 16.9737H178.274L177.33 19.3664H173.558L178.829 5.64557H182.718L187.896 19.3664ZM182.238 14.2612L180.761 9.8862L179.263 14.2612H182.238ZM207.292 19.3664H203.723L197.158 10.9643V19.3664H193.59V5.64557H197.158L203.723 14.0393V5.64557H207.292V19.3664Z" fill="url(#paint5_linear_2001_405)"/>
</g>
<defs>
<linearGradient id="paint0_linear_2001_405" x1="20.4682" y1="10.0488" x2="10.6192" y2="19.1738" gradientUnits="userSpaceOnUse">
<stop stop-color="#000756"/>
<stop offset="1" stop-color="#0042B8"/>
</linearGradient>
<linearGradient id="paint1_linear_2001_405" x1="17.3771" y1="6.5028e-07" x2="-4.44271" y2="4.79896" gradientUnits="userSpaceOnUse">
<stop stop-color="#000756"/>
<stop offset="1" stop-color="#0042B8"/>
</linearGradient>
<linearGradient id="paint2_linear_2001_405" x1="24.3418" y1="10.0479" x2="9.9637" y2="14.7094" gradientUnits="userSpaceOnUse">
<stop stop-color="#000756"/>
<stop offset="1" stop-color="#0042B8"/>
</linearGradient>
<linearGradient id="paint3_linear_2001_405" x1="24.4771" y1="0" x2="15.9604" y2="12.3594" gradientUnits="userSpaceOnUse">
<stop stop-color="#000756"/>
<stop offset="1" stop-color="#0042B8"/>
</linearGradient>
<linearGradient id="paint4_linear_2001_405" x1="24.4779" y1="4.38281" x2="19.2997" y2="6.15677" gradientUnits="userSpaceOnUse">
<stop stop-color="#000756"/>
<stop offset="1" stop-color="#0042B8"/>
</linearGradient>
<linearGradient id="paint5_linear_2001_405" x1="207.292" y1="5.20703" x2="191.952" y2="61.7164" gradientUnits="userSpaceOnUse">
<stop stop-color="#000756"/>
<stop offset="1" stop-color="#0042B8"/>
</linearGradient>
<clipPath id="clip0_2001_405">
<rect width="207.812" height="25" fill="white"/>
</clipPath>
</defs>
</svg>
