<svg width="52" height="23" viewBox="0 0 52 23" fill="none" xmlns="http://www.w3.org/2000/svg">
<path d="M0.0603027 21.6739V19.8486H1.41843V20.1575H0.430213V20.5621H1.3498V20.8697H0.430213V21.3664H1.45358V21.6739H0.0603027Z" fill="#10298E"/>
<path d="M1.78223 19.8486H2.13339V20.1722H1.78223V19.8486ZM1.78223 20.3517H2.13339V21.6739H1.78223V20.3517Z" fill="#10298E"/>
<path d="M3.71828 21.6728H3.36711V20.998C3.36711 20.8552 3.35975 20.7628 3.34469 20.7208C3.32962 20.6791 3.30552 20.6467 3.27171 20.6234C3.2379 20.6 3.19739 20.5883 3.14986 20.5883C3.08893 20.5883 3.03436 20.605 2.98616 20.6384C2.93795 20.6714 2.90448 20.7154 2.88673 20.7701C2.86866 20.8248 2.85995 20.9262 2.85995 21.0737V21.6728H2.50879V20.3505H2.83485V20.5446C2.95067 20.3955 3.09663 20.3208 3.27238 20.3208C3.34971 20.3208 3.42034 20.3345 3.48462 20.3625C3.54889 20.3902 3.5971 20.4259 3.63024 20.4689C3.66304 20.5119 3.68614 20.561 3.69886 20.6157C3.71192 20.6704 3.71828 20.7491 3.71828 20.8512V21.6728Z" fill="#10298E"/>
<path d="M4.44198 19.8486V20.5198C4.55513 20.3877 4.69071 20.3216 4.84805 20.3216C4.92873 20.3216 5.0017 20.3366 5.06665 20.3667C5.13159 20.3964 5.18047 20.4347 5.21361 20.4811C5.24641 20.5275 5.26884 20.5792 5.28089 20.6355C5.29294 20.6919 5.29897 20.7796 5.29897 20.8984V21.6739H4.94814V20.9754C4.94814 20.8367 4.94145 20.7489 4.92806 20.7112C4.91467 20.6742 4.89123 20.6445 4.85742 20.6225C4.82361 20.6005 4.78143 20.5895 4.73055 20.5895C4.6723 20.5895 4.62008 20.6035 4.57455 20.6315C4.52869 20.6599 4.49521 20.7026 4.47379 20.7593C4.4527 20.8163 4.44198 20.9004 4.44198 21.0115V21.6739H4.09082V19.8486H4.44198Z" fill="#10298E"/>
<path d="M6.44136 21.2521L6.79118 21.3108C6.74633 21.4386 6.67502 21.5357 6.57828 21.6027C6.4812 21.6694 6.35968 21.7028 6.21406 21.7028C5.98307 21.7028 5.81234 21.6277 5.70154 21.4773C5.61417 21.3572 5.57031 21.2054 5.57031 21.022C5.57031 20.8028 5.62789 20.631 5.74305 20.5069C5.85787 20.3828 6.00316 20.3208 6.17891 20.3208C6.37642 20.3208 6.53208 20.3858 6.64623 20.5156C6.76039 20.6457 6.81495 20.8445 6.80993 21.1127H5.93018C5.93286 21.2164 5.96098 21.2972 6.01521 21.3549C6.06944 21.4126 6.13706 21.4413 6.21774 21.4413C6.27264 21.4413 6.31884 21.4266 6.35633 21.3966C6.39382 21.3665 6.42228 21.3185 6.44136 21.2521ZM6.46144 20.8985C6.45877 20.7971 6.43266 20.7204 6.38278 20.6677C6.33256 20.615 6.27197 20.5887 6.20033 20.5887C6.12367 20.5887 6.0604 20.6163 6.01019 20.6721C5.96031 20.7274 5.93587 20.8031 5.93654 20.8985H6.46144Z" fill="#10298E"/>
<path d="M7.11401 19.8486H7.46518V20.1722H7.11401V19.8486ZM7.11401 20.3517H7.46518V21.6739H7.11401V20.3517Z" fill="#10298E"/>
<path d="M8.4513 20.3513V20.6301H8.21128V21.1632C8.21128 21.2709 8.21362 21.334 8.21831 21.3517L8.24944 21.396L8.30903 21.4134C8.3415 21.4134 8.38836 21.402 8.44996 21.3797L8.48009 21.6512C8.39841 21.6859 8.30601 21.7032 8.20257 21.7032C8.1393 21.7032 8.08239 21.6929 8.03151 21.6716C7.98063 21.6505 7.94347 21.6232 7.9197 21.5895C7.89593 21.5558 7.87953 21.5104 7.87016 21.4531C7.86279 21.4127 7.85911 21.3303 7.85911 21.2066V20.6301H7.69775V20.3513H7.85911V20.0884L8.21128 19.8843V20.3513H8.4513Z" fill="#10298E"/>
<path d="M8.71289 19.8486H9.06406V21.6739H8.71289V19.8486Z" fill="#10298E"/>
<path d="M9.44214 19.8486H9.7933V20.1722H9.44214V19.8486ZM9.44214 20.3517H9.7933V21.6739H9.44214V20.3517Z" fill="#10298E"/>
<path d="M11.3279 20.7418L10.9817 20.8041C10.97 20.7351 10.9436 20.6834 10.9024 20.6484C10.8612 20.6137 10.8076 20.596 10.742 20.596C10.6543 20.596 10.5847 20.6264 10.5325 20.6864C10.4806 20.7464 10.4545 20.8472 10.4545 20.9883C10.4545 21.1451 10.4809 21.2561 10.5338 21.3208C10.5867 21.3856 10.6577 21.4176 10.7467 21.4176C10.8137 21.4176 10.8679 21.3989 10.9104 21.3612C10.9529 21.3235 10.9831 21.2585 11.0005 21.1664L11.3453 21.2248C11.3094 21.3826 11.2408 21.5016 11.1391 21.582C11.0376 21.6628 10.9014 21.7028 10.7306 21.7028C10.5365 21.7028 10.3818 21.6417 10.2663 21.52C10.1512 21.3979 10.0933 21.2291 10.0933 21.0133C10.0933 20.7948 10.1512 20.625 10.267 20.5033C10.3828 20.3818 10.5395 20.3208 10.737 20.3208C10.8984 20.3208 11.0269 20.3555 11.1223 20.4249C11.2177 20.4943 11.2863 20.5997 11.3279 20.7418Z" fill="#10298E"/>
<path d="M11.9615 19.8486V20.5198C12.0747 20.3877 12.2102 20.3216 12.3676 20.3216C12.4483 20.3216 12.5212 20.3366 12.5862 20.3667C12.6511 20.3964 12.7 20.4347 12.7331 20.4811C12.7659 20.5275 12.7884 20.5792 12.8004 20.6355C12.8125 20.6919 12.8185 20.7796 12.8185 20.8984V21.6739H12.4677V20.9754C12.4677 20.8367 12.461 20.7489 12.4476 20.7112C12.4342 20.6742 12.4108 20.6445 12.377 20.6225C12.3431 20.6005 12.301 20.5895 12.2501 20.5895C12.1918 20.5895 12.1396 20.6035 12.0941 20.6315C12.0482 20.6599 12.0144 20.7026 11.9933 20.7593C11.9722 20.8163 11.9615 20.9004 11.9615 21.0115V21.6739H11.6104V19.8486H11.9615Z" fill="#10298E"/>
<path d="M13.961 21.2521L14.3109 21.3108C14.266 21.4386 14.1947 21.5357 14.098 21.6027C14.0009 21.6694 13.8794 21.7028 13.7337 21.7028C13.5028 21.7028 13.332 21.6277 13.2212 21.4773C13.1339 21.3572 13.0903 21.2054 13.0903 21.022C13.0903 20.8028 13.1476 20.631 13.2627 20.5069C13.3776 20.3828 13.5228 20.3208 13.6986 20.3208C13.8961 20.3208 14.0518 20.3858 14.1659 20.5156C14.2801 20.6457 14.3346 20.8445 14.3296 21.1127H13.4499C13.4525 21.2164 13.4807 21.2972 13.5349 21.3549C13.5891 21.4126 13.6567 21.4413 13.7374 21.4413C13.7923 21.4413 13.8385 21.4266 13.876 21.3966C13.9135 21.3665 13.942 21.3185 13.961 21.2521ZM13.9811 20.8985C13.9785 20.7971 13.9523 20.7204 13.9025 20.6677C13.8522 20.615 13.7917 20.5887 13.72 20.5887C13.6434 20.5887 13.5801 20.6163 13.5299 20.6721C13.48 20.7274 13.4556 20.8031 13.4562 20.8985H13.9811Z" fill="#10298E"/>
<path d="M14.9698 21.6728H14.6187V20.3505H14.9447V20.5386C15.0006 20.4499 15.0508 20.3912 15.0954 20.3632C15.1399 20.3348 15.1904 20.3208 15.2473 20.3208C15.3273 20.3208 15.4043 20.3428 15.4783 20.3865L15.3695 20.6917C15.3106 20.6534 15.2554 20.6344 15.2048 20.6344C15.1556 20.6344 15.1138 20.648 15.0796 20.6751C15.0455 20.7017 15.0187 20.7508 14.9993 20.8212C14.9795 20.8919 14.9698 21.0393 14.9698 21.2645V21.6728Z" fill="#10298E"/>
<path d="M16.3789 21.6739V19.8486H17.737V20.1575H16.7488V20.5621H17.6684V20.8697H16.7488V21.3664H17.7722V21.6739H16.3789Z" fill="#10298E"/>
<path d="M18.9743 21.6724V21.4746C18.9261 21.5449 18.8624 21.6007 18.7838 21.641C18.7051 21.6817 18.6221 21.7024 18.5344 21.7024C18.4453 21.7024 18.3653 21.6827 18.2947 21.6437C18.2237 21.6047 18.1725 21.55 18.141 21.4796C18.1092 21.4089 18.0935 21.3114 18.0935 21.1867V20.3501H18.4447V20.9579C18.4447 21.1437 18.451 21.2574 18.4638 21.2994C18.4768 21.3415 18.5002 21.3745 18.5344 21.3992C18.5685 21.4235 18.612 21.4359 18.6643 21.4359C18.7245 21.4359 18.7781 21.4195 18.8256 21.3868C18.8732 21.3538 18.9056 21.3131 18.923 21.2647C18.9404 21.216 18.9492 21.0973 18.9492 20.9078V20.3501H19.3003V21.6724H18.9743Z" fill="#10298E"/>
<path d="M20.0182 21.6728H19.667V20.3505H19.993V20.5386C20.049 20.4499 20.0992 20.3912 20.1437 20.3632C20.1882 20.3348 20.2388 20.3208 20.2957 20.3208C20.3757 20.3208 20.4527 20.3428 20.5267 20.3865L20.4179 20.6917C20.3589 20.6534 20.304 20.6344 20.2532 20.6344C20.2039 20.6344 20.1621 20.648 20.128 20.6751C20.0938 20.7017 20.067 20.7508 20.0476 20.8212C20.0279 20.8919 20.0182 21.0393 20.0182 21.2645V21.6728Z" fill="#10298E"/>
<path d="M20.6147 20.9929C20.6147 20.8769 20.6435 20.7645 20.7011 20.6554C20.7584 20.547 20.8397 20.4639 20.9452 20.4065C21.0506 20.3495 21.1681 20.3208 21.2983 20.3208C21.4988 20.3208 21.6635 20.3855 21.7918 20.5156C21.92 20.6454 21.9842 20.8095 21.9842 21.008C21.9842 21.2078 21.9193 21.3739 21.7898 21.5053C21.6602 21.6367 21.4972 21.7025 21.3007 21.7025C21.1792 21.7025 21.063 21.6751 20.9529 21.6204C20.8424 21.5657 20.7584 21.4853 20.7011 21.3796C20.6435 21.2738 20.6147 21.1447 20.6147 20.9929ZM20.9746 21.0116C20.9746 21.1427 21.0057 21.2431 21.0683 21.3128C21.1309 21.3826 21.2079 21.4176 21.2993 21.4176C21.3911 21.4176 21.4677 21.3826 21.53 21.3128C21.5919 21.2431 21.623 21.1421 21.623 21.009C21.623 20.8795 21.5919 20.7801 21.53 20.7104C21.4677 20.6407 21.3911 20.6057 21.2993 20.6057C21.2079 20.6057 21.1309 20.6407 21.0683 20.7104C21.0057 20.7801 20.9746 20.8805 20.9746 21.0116Z" fill="#10298E"/>
<path d="M22.2371 20.8369H22.9267V21.1868H22.2371V20.8369Z" fill="#10298E"/>
<path d="M22.9905 21.6739V21.3417L23.9526 20.1575H23.0993V19.8486H24.44V20.1352L23.4367 21.3664H24.4785V21.6739H22.9905Z" fill="#10298E"/>
<path d="M24.9901 20.7541L24.6714 20.6967C24.7072 20.569 24.7688 20.4742 24.8565 20.4129C24.9439 20.3515 25.0738 20.3208 25.2462 20.3208C25.4029 20.3208 25.5194 20.3391 25.596 20.3762C25.6727 20.4132 25.7266 20.4602 25.7577 20.5169C25.7892 20.574 25.8046 20.6784 25.8046 20.8298L25.8009 21.2385C25.8009 21.3549 25.8066 21.4403 25.818 21.4953C25.829 21.5507 25.8501 21.6097 25.8809 21.6731H25.5337C25.5244 21.6497 25.5133 21.6154 25.4999 21.5697L25.4872 21.5287C25.4273 21.5867 25.3634 21.6304 25.2951 21.6594C25.2268 21.6881 25.1538 21.7028 25.0765 21.7028C24.9396 21.7028 24.8321 21.6661 24.7534 21.592C24.6748 21.5183 24.6353 21.4249 24.6353 21.3118C24.6353 21.2371 24.653 21.1707 24.6888 21.112C24.7246 21.0537 24.7748 21.0086 24.8395 20.9776C24.9041 20.9466 24.9971 20.9192 25.1186 20.8962C25.283 20.8652 25.3965 20.8368 25.4598 20.8101V20.7751C25.4598 20.7081 25.4434 20.66 25.4099 20.6314C25.3764 20.603 25.3138 20.5887 25.2211 20.5887C25.1588 20.5887 25.1099 20.6007 25.0751 20.6254C25.04 20.6497 25.0119 20.6927 24.9901 20.7541ZM25.4598 21.038C25.4149 21.053 25.3436 21.071 25.2462 21.0917C25.1488 21.1124 25.0852 21.1327 25.055 21.1524C25.0092 21.1848 24.9864 21.2261 24.9864 21.2758C24.9864 21.3249 25.0048 21.3672 25.0413 21.4026C25.0781 21.4386 25.1247 21.4563 25.1812 21.4563C25.2445 21.4563 25.3051 21.4356 25.3624 21.3939C25.4049 21.3625 25.433 21.3239 25.446 21.2782C25.4554 21.2481 25.4598 21.1914 25.4598 21.1077V21.038Z" fill="#10298E"/>
<path d="M26.5186 19.8486V20.5198C26.6318 20.3877 26.767 20.3216 26.9247 20.3216C27.0054 20.3216 27.0784 20.3366 27.1433 20.3667C27.2082 20.3964 27.2571 20.4347 27.2903 20.4811C27.3231 20.5275 27.3455 20.5792 27.3576 20.6355C27.3696 20.6919 27.3756 20.7796 27.3756 20.8984V21.6739H27.0245V20.9754C27.0245 20.8367 27.0178 20.7489 27.0047 20.7112C26.9913 20.6742 26.9679 20.6445 26.9341 20.6225C26.9003 20.6005 26.8581 20.5895 26.8072 20.5895C26.749 20.5895 26.6967 20.6035 26.6509 20.6315C26.6053 20.6599 26.5715 20.7026 26.5504 20.7593C26.529 20.8163 26.5186 20.9004 26.5186 21.0115V21.6739H26.1675V19.8486H26.5186Z" fill="#10298E"/>
<path d="M27.7498 19.8486H28.1009V21.6739H27.7498V19.8486Z" fill="#10298E"/>
<path d="M29.3517 21.6724V21.4746C29.3035 21.5449 29.2399 21.6007 29.1612 21.641C29.0826 21.6817 28.9992 21.7024 28.9118 21.7024C28.8228 21.7024 28.7428 21.6827 28.6721 21.6437C28.6012 21.6047 28.55 21.55 28.5181 21.4796C28.4867 21.4089 28.4709 21.3114 28.4709 21.1867V20.3501H28.8218V20.9579C28.8218 21.1437 28.8285 21.2574 28.8412 21.2994C28.8539 21.3415 28.8777 21.3745 28.9118 21.3992C28.946 21.4235 28.9895 21.4359 29.0417 21.4359C29.1016 21.4359 29.1555 21.4195 29.2031 21.3868C29.2506 21.3538 29.2827 21.3131 29.3005 21.2647C29.3179 21.216 29.3266 21.0973 29.3266 20.9078V20.3501H29.6778V21.6724H29.3517Z" fill="#10298E"/>
<path d="M31.2666 21.6728H30.9155V20.998C30.9155 20.8552 30.9081 20.7628 30.893 20.7208C30.878 20.6791 30.8535 20.6467 30.8197 20.6234C30.7862 20.6 30.7454 20.5883 30.6982 20.5883C30.6373 20.5883 30.5827 20.605 30.5342 20.6384C30.486 20.6714 30.4531 20.7154 30.4351 20.7701C30.417 20.8248 30.4083 20.9262 30.4083 21.0737V21.6728H30.0571V20.3505H30.3832V20.5446C30.499 20.3955 30.6446 20.3208 30.8204 20.3208C30.898 20.3208 30.9687 20.3345 31.033 20.3625C31.0969 20.3902 31.1454 20.4259 31.1786 20.4689C31.2114 20.5119 31.2341 20.561 31.2472 20.6157C31.2599 20.6704 31.2666 20.7491 31.2666 20.8512V21.6728Z" fill="#10298E"/>
<path d="M31.608 21.7602L32.009 21.8089C32.0157 21.8552 32.0311 21.8873 32.0552 21.9046C32.0883 21.9296 32.1409 21.942 32.2125 21.942C32.3043 21.942 32.3729 21.9283 32.4188 21.9006C32.4496 21.8826 32.473 21.8532 32.4887 21.8125C32.4994 21.7835 32.5048 21.7298 32.5048 21.6518V21.4589C32.4 21.6017 32.2678 21.6731 32.1078 21.6731C31.9293 21.6731 31.7881 21.598 31.684 21.4476C31.6026 21.3292 31.5618 21.1814 31.5618 21.0043C31.5618 20.7828 31.615 20.6137 31.7221 20.4963C31.8292 20.3795 31.9621 20.3208 32.1215 20.3208C32.2855 20.3208 32.4211 20.3929 32.5276 20.5363V20.3508H32.856V21.5373C32.856 21.6931 32.8432 21.8099 32.8175 21.8873C32.7913 21.9643 32.7552 22.025 32.7087 22.069C32.6621 22.1131 32.5995 22.1474 32.5219 22.1725C32.4439 22.1971 32.3454 22.2095 32.2263 22.2095C32.0013 22.2095 31.842 22.1711 31.7479 22.0944C31.6535 22.0177 31.6066 21.9203 31.6066 21.8025L31.608 21.7602ZM31.9216 20.9843C31.9216 21.1247 31.9488 21.2274 32.0033 21.2928C32.0579 21.3579 32.1252 21.3906 32.2052 21.3906C32.2909 21.3906 32.3632 21.3569 32.4224 21.2902C32.4817 21.2234 32.5111 21.1244 32.5111 20.9933C32.5111 20.8562 32.483 20.7548 32.4261 20.6884C32.3695 20.622 32.2979 20.5887 32.2112 20.5887C32.1272 20.5887 32.0579 20.6213 32.0033 20.6864C31.9488 20.7514 31.9216 20.8508 31.9216 20.9843Z" fill="#10298E"/>
<path d="M33.0977 21.2958L33.4502 21.2421C33.4649 21.3102 33.4954 21.3619 33.5412 21.3972C33.5871 21.4326 33.651 21.4503 33.7337 21.4503C33.8244 21.4503 33.8927 21.4336 33.9386 21.4006C33.9694 21.3772 33.9848 21.3459 33.9848 21.3068L33.9597 21.2411C33.9423 21.2244 33.9031 21.2091 33.8422 21.1948C33.5593 21.1327 33.3795 21.076 33.3039 21.0243C33.1991 20.9529 33.1462 20.8538 33.1462 20.7268C33.1462 20.6123 33.1917 20.5159 33.2824 20.4379C33.3735 20.3598 33.5141 20.3208 33.7049 20.3208C33.8864 20.3208 34.0216 20.3505 34.1096 20.4095C34.198 20.4682 34.2589 20.5553 34.2921 20.6707L33.961 20.7318C33.9469 20.6804 33.9198 20.6407 33.8803 20.6137C33.8408 20.586 33.7842 20.5723 33.7109 20.5723C33.6189 20.5723 33.5526 20.5853 33.5124 20.611L33.4726 20.6821L33.5074 20.7454C33.5392 20.7688 33.6483 20.8015 33.8355 20.8438C34.0223 20.8862 34.1532 20.9382 34.2271 20.9993C34.3004 21.0617 34.3373 21.1484 34.3373 21.2595C34.3373 21.3809 34.2864 21.485 34.1846 21.572C34.0832 21.6594 33.9325 21.7028 33.7337 21.7028C33.5529 21.7028 33.41 21.6664 33.3045 21.5934C33.1991 21.5203 33.1301 21.4213 33.0977 21.2958Z" fill="#10298E"/>
<path d="M35.0273 21.6724L34.4927 20.3501H34.8612L35.111 21.0249L35.1836 21.2504C35.2027 21.193 35.2148 21.1553 35.2198 21.137C35.2315 21.0996 35.2439 21.0623 35.2573 21.0249L35.5097 20.3501H35.8709L35.3436 21.6724H35.0273Z" fill="#10298E"/>
<path d="M36.8719 21.2521L37.2218 21.3108C37.1769 21.4386 37.1056 21.5357 37.0088 21.6027C36.9118 21.6694 36.7902 21.7028 36.6446 21.7028C36.4136 21.7028 36.2429 21.6277 36.1321 21.4773C36.0447 21.3572 36.0012 21.2054 36.0012 21.022C36.0012 20.8028 36.0585 20.631 36.1733 20.5069C36.2884 20.3828 36.4337 20.3208 36.6095 20.3208C36.807 20.3208 36.9627 20.3858 37.0768 20.5156C37.191 20.6457 37.2455 20.8445 37.2405 21.1127H36.3611C36.3634 21.2164 36.3915 21.2972 36.4458 21.3549C36.5 21.4126 36.5676 21.4413 36.6483 21.4413C36.7032 21.4413 36.7494 21.4266 36.7869 21.3966C36.8244 21.3665 36.8528 21.3185 36.8719 21.2521ZM36.892 20.8985C36.8893 20.7971 36.8632 20.7204 36.813 20.6677C36.7631 20.615 36.7025 20.5887 36.6309 20.5887C36.5542 20.5887 36.491 20.6163 36.4411 20.6721C36.3909 20.7274 36.3664 20.8031 36.3671 20.8985H36.892Z" fill="#10298E"/>
<path d="M37.8807 21.6728H37.5295V20.3505H37.8556V20.5386C37.9115 20.4499 37.9617 20.3912 38.0062 20.3632C38.0508 20.3348 38.1013 20.3208 38.1579 20.3208C38.2379 20.3208 38.3152 20.3428 38.3892 20.3865L38.2804 20.6917C38.2215 20.6534 38.1663 20.6344 38.1157 20.6344C38.0665 20.6344 38.0247 20.648 37.9905 20.6751C37.9564 20.7017 37.9296 20.7508 37.9102 20.8212C37.8904 20.8919 37.8807 21.0393 37.8807 21.2645V21.6728Z" fill="#10298E"/>
<path d="M38.5457 21.6739V19.8486H38.8968V20.8173L39.3079 20.3517H39.7401L39.2868 20.8347L39.7729 21.6739H39.3943L39.0605 21.0798L38.8968 21.2506V21.6739H38.5457Z" fill="#10298E"/>
<path d="M40.768 21.2521L41.1178 21.3108C41.073 21.4386 41.002 21.5357 40.9049 21.6027C40.8075 21.6694 40.6863 21.7028 40.5407 21.7028C40.3097 21.7028 40.139 21.6277 40.0282 21.4773C39.9408 21.3572 39.897 21.2054 39.897 21.022C39.897 20.8028 39.9546 20.631 40.0697 20.5069C40.1845 20.3828 40.3298 20.3208 40.5056 20.3208C40.7031 20.3208 40.8587 20.3858 40.9729 20.5156C41.087 20.6457 41.1416 20.8445 41.1366 21.1127H40.2568C40.2595 21.2164 40.288 21.2972 40.3419 21.3549C40.3961 21.4126 40.4634 21.4413 40.5444 21.4413C40.5993 21.4413 40.6455 21.4266 40.683 21.3966C40.7205 21.3665 40.7489 21.3185 40.768 21.2521ZM40.7881 20.8985C40.7854 20.7971 40.7593 20.7204 40.7094 20.6677C40.6596 20.615 40.5983 20.5887 40.5267 20.5887C40.45 20.5887 40.3867 20.6163 40.3368 20.6721C40.287 20.7274 40.2625 20.8031 40.2632 20.8985H40.7881Z" fill="#10298E"/>
<path d="M41.7904 19.8486V20.5198C41.9035 20.3877 42.0388 20.3216 42.1964 20.3216C42.2771 20.3216 42.3501 20.3366 42.415 20.3667C42.48 20.3964 42.5289 20.4347 42.562 20.4811C42.5948 20.5275 42.6172 20.5792 42.6293 20.6355C42.6413 20.6919 42.6474 20.7796 42.6474 20.8984V21.6739H42.2962V20.9754C42.2962 20.8367 42.2895 20.7489 42.2764 20.7112C42.2631 20.6742 42.2396 20.6445 42.2058 20.6225C42.172 20.6005 42.1298 20.5895 42.0789 20.5895C42.0207 20.5895 41.9685 20.6035 41.9226 20.6315C41.8771 20.6599 41.8433 20.7026 41.8222 20.7593C41.8007 20.8163 41.7904 20.9004 41.7904 21.0115V21.6739H41.4392V19.8486H41.7904Z" fill="#10298E"/>
<path d="M43.3575 21.6728H43.0063V20.3505H43.3324V20.5386C43.3883 20.4499 43.4385 20.3912 43.483 20.3632C43.5276 20.3348 43.5781 20.3208 43.635 20.3208C43.7147 20.3208 43.7917 20.3428 43.866 20.3865L43.7572 20.6917C43.6983 20.6534 43.6431 20.6344 43.5925 20.6344C43.5433 20.6344 43.5015 20.648 43.4673 20.6751C43.4332 20.7017 43.4064 20.7508 43.387 20.8212C43.3672 20.8919 43.3575 21.0393 43.3575 21.2645V21.6728Z" fill="#10298E"/>
<path d="M43.9114 21.2958L44.2635 21.2421C44.2786 21.3102 44.3091 21.3619 44.3549 21.3972C44.4008 21.4326 44.4647 21.4503 44.5474 21.4503C44.6381 21.4503 44.7064 21.4336 44.7523 21.4006C44.7831 21.3772 44.7985 21.3459 44.7985 21.3068L44.7734 21.2411C44.756 21.2244 44.7168 21.2091 44.6559 21.1948C44.3727 21.1327 44.1932 21.076 44.1176 21.0243C44.0128 20.9529 43.9599 20.8538 43.9599 20.7268C43.9599 20.6123 44.0054 20.5159 44.0962 20.4379C44.1872 20.3598 44.3278 20.3208 44.5186 20.3208C44.7001 20.3208 44.835 20.3505 44.9234 20.4095C45.0117 20.4682 45.0727 20.5553 45.1058 20.6707L44.7747 20.7318C44.7607 20.6804 44.7336 20.6407 44.694 20.6137C44.6545 20.586 44.598 20.5723 44.5247 20.5723C44.4326 20.5723 44.3663 20.5853 44.3261 20.611L44.2863 20.6821L44.3211 20.7454C44.3529 20.7688 44.4621 20.8015 44.6492 20.8438C44.836 20.8862 44.9669 20.9382 45.0409 20.9993C45.1142 21.0617 45.151 21.1484 45.151 21.2595C45.151 21.3809 45.1001 21.485 44.9983 21.572C44.8969 21.6594 44.7463 21.7028 44.5474 21.7028C44.3663 21.7028 44.2237 21.6664 44.1183 21.5934C44.0128 21.5203 43.9438 21.4213 43.9114 21.2958Z" fill="#10298E"/>
<path d="M45.8121 21.6728H45.4609V20.3505H45.787V20.5386C45.8429 20.4499 45.8931 20.3912 45.9376 20.3632C45.9822 20.3348 46.0327 20.3208 46.0896 20.3208C46.1696 20.3208 46.2466 20.3428 46.3206 20.3865L46.2118 20.6917C46.1529 20.6534 46.098 20.6344 46.0471 20.6344C45.9979 20.6344 45.9564 20.648 45.9219 20.6751C45.8881 20.7017 45.861 20.7508 45.8416 20.8212C45.8218 20.8919 45.8121 21.0393 45.8121 21.2645V21.6728Z" fill="#10298E"/>
<path d="M46.7521 20.7541L46.4334 20.6967C46.4695 20.569 46.5311 20.4742 46.6185 20.4129C46.7059 20.3515 46.8358 20.3208 47.0082 20.3208C47.1648 20.3208 47.2817 20.3391 47.358 20.3762C47.4346 20.4132 47.4889 20.4602 47.52 20.5169C47.5511 20.574 47.5665 20.6784 47.5665 20.8298L47.5628 21.2385C47.5628 21.3549 47.5685 21.4403 47.5799 21.4953C47.5913 21.5507 47.6121 21.6097 47.6429 21.6731H47.2957C47.2863 21.6497 47.2753 21.6154 47.2619 21.5697L47.2495 21.5287C47.1896 21.5867 47.1253 21.6304 47.057 21.6594C46.9887 21.6881 46.9158 21.7028 46.8384 21.7028C46.7018 21.7028 46.5941 21.6661 46.5154 21.592C46.4367 21.5183 46.3972 21.4249 46.3972 21.3118C46.3972 21.2371 46.4153 21.1707 46.4511 21.112C46.4869 21.0537 46.5368 21.0086 46.6018 20.9776C46.666 20.9466 46.7591 20.9192 46.8809 20.8962C47.045 20.8652 47.1585 20.8368 47.2217 20.8101V20.7751C47.2217 20.7081 47.2053 20.66 47.1719 20.6314C47.1387 20.603 47.0758 20.5887 46.9834 20.5887C46.9208 20.5887 46.8719 20.6007 46.8371 20.6254C46.8019 20.6497 46.7738 20.6927 46.7521 20.7541ZM47.2217 21.038C47.1769 21.053 47.1056 21.071 47.0082 21.0917C46.9107 21.1124 46.8471 21.1327 46.817 21.1524C46.7715 21.1848 46.7484 21.2261 46.7484 21.2758C46.7484 21.3249 46.7668 21.3672 46.8033 21.4026C46.8401 21.4386 46.8866 21.4563 46.9432 21.4563C47.0065 21.4563 47.0671 21.4356 47.1246 21.3939C47.1668 21.3625 47.1949 21.3239 47.2083 21.2782C47.2174 21.2481 47.2217 21.1914 47.2217 21.1077V21.038Z" fill="#10298E"/>
<path d="M48.8042 21.6724V21.4746C48.756 21.5449 48.6924 21.6007 48.6137 21.641C48.535 21.6817 48.452 21.7024 48.3643 21.7024C48.2753 21.7024 48.1953 21.6827 48.1246 21.6437C48.0537 21.6047 48.0024 21.55 47.971 21.4796C47.9392 21.4089 47.9231 21.3114 47.9231 21.1867V20.3501H48.2743V20.9579C48.2743 21.1437 48.2806 21.2574 48.2937 21.2994C48.3067 21.3415 48.3302 21.3745 48.3643 21.3992C48.3985 21.4235 48.442 21.4359 48.4942 21.4359C48.5545 21.4359 48.608 21.4195 48.6556 21.3868C48.7028 21.3538 48.7356 21.3131 48.753 21.2647C48.7704 21.216 48.7791 21.0973 48.7791 20.9078V20.3501H49.1302V21.6724H48.8042Z" fill="#10298E"/>
<path d="M49.4856 20.3508H49.809V20.5313C49.9251 20.3912 50.0627 20.3208 50.2227 20.3208C50.3078 20.3208 50.3814 20.3385 50.4437 20.3732C50.5066 20.4082 50.5575 20.4609 50.5977 20.5313C50.6559 20.4609 50.7189 20.4082 50.7865 20.3732C50.8538 20.3385 50.9257 20.3208 51.0024 20.3208C51.0998 20.3208 51.1822 20.3408 51.2498 20.3802C51.3174 20.4195 51.3676 20.4776 51.4011 20.554C51.4252 20.6103 51.4372 20.7017 51.4372 20.8278V21.6731H51.0861V20.9176C51.0861 20.7861 51.074 20.7017 51.0499 20.6634C51.0175 20.6137 50.9676 20.5887 50.9 20.5887C50.8507 20.5887 50.8046 20.6037 50.7614 20.6337C50.7182 20.6634 50.6867 20.7071 50.6676 20.7648C50.6486 20.8225 50.6388 20.9136 50.6388 21.038V21.6731H50.2877V20.9486C50.2877 20.8198 50.2817 20.7368 50.2689 20.6994C50.2565 20.662 50.2371 20.6344 50.211 20.616C50.1846 20.598 50.1491 20.5887 50.1039 20.5887C50.05 20.5887 50.0011 20.603 49.9579 20.6324C49.9144 20.6614 49.8836 20.7034 49.8649 20.7581C49.8461 20.8128 49.8368 20.9036 49.8368 21.0306V21.6731H49.4856V20.3508Z" fill="#10298E"/>
<path d="M0.015625 17.588L0.543542 17.5369C0.57501 17.7134 0.639618 17.8428 0.736699 17.9259C0.833779 18.0086 0.965005 18.05 1.12971 18.05C1.30445 18.05 1.43601 18.013 1.52472 17.9396C1.6131 17.8658 1.65762 17.7798 1.65762 17.681C1.65762 17.618 1.63888 17.564 1.60172 17.5193C1.56423 17.4752 1.49928 17.4365 1.40655 17.4035C1.34295 17.3815 1.19833 17.3425 0.972035 17.2868C0.681463 17.2147 0.47726 17.1267 0.360093 17.0219C0.195057 16.8748 0.112706 16.695 0.112706 16.4832C0.112706 16.3471 0.151538 16.2193 0.229202 16.1009C0.306532 15.9818 0.418342 15.8918 0.564632 15.8294C0.710253 15.7674 0.886671 15.7363 1.09322 15.7363C1.43032 15.7363 1.68407 15.81 1.85446 15.9575C2.02486 16.1046 2.11457 16.3014 2.12294 16.5472L1.58063 16.5709C1.5572 16.4332 1.50765 16.3344 1.43133 16.274C1.355 16.214 1.24018 16.1836 1.08753 16.1836C0.93019 16.1836 0.806664 16.216 0.717617 16.2807C0.660039 16.3217 0.631249 16.3775 0.631249 16.4468C0.631249 16.5099 0.65803 16.5643 0.711927 16.6093C0.780218 16.6667 0.946594 16.726 1.21038 16.7881C1.47418 16.8501 1.66934 16.9145 1.79588 16.9809C1.92242 17.0473 2.02117 17.138 2.09281 17.2527C2.16412 17.3682 2.19994 17.5103 2.19994 17.6794C2.19994 17.8328 2.15709 17.9763 2.07172 18.1104C1.98602 18.2441 1.86518 18.3435 1.70884 18.4089C1.55251 18.4739 1.35768 18.5066 1.12435 18.5066C0.78457 18.5066 0.523791 18.4282 0.341682 18.2718C0.159572 18.1154 0.0511096 17.8875 0.015625 17.588Z" fill="#10298E"/>
<path d="M2.76562 15.7798H3.28049V16.2545H2.76562V15.7798ZM2.76562 16.5173H3.28049V18.4567H2.76562V16.5173Z" fill="#10298E"/>
<path d="M5.69113 18.4557H5.17627V17.466C5.17627 17.2565 5.16522 17.1211 5.14313 17.0597C5.12137 16.9984 5.08555 16.9503 5.03601 16.9163C4.98646 16.8823 4.92687 16.8653 4.85724 16.8653C4.7682 16.8653 4.68819 16.8896 4.61722 16.9383C4.54625 16.987 4.49771 17.0514 4.4716 17.1318C4.44515 17.2122 4.4321 17.3606 4.4321 17.5774V18.4557H3.91724V16.5164H4.39561V16.8012C4.56533 16.5821 4.77924 16.4727 5.03701 16.4727C5.15049 16.4727 5.25427 16.493 5.34834 16.5337C5.44241 16.5747 5.51371 16.6268 5.56191 16.6898C5.61012 16.7532 5.6436 16.8252 5.66268 16.9053C5.68176 16.9857 5.69113 17.1008 5.69113 17.2505V18.4557Z" fill="#10298E"/>
<path d="M6.27816 18.5835L6.86634 18.6549C6.87604 18.7229 6.89881 18.7696 6.93429 18.7953C6.98317 18.832 7.05983 18.85 7.16528 18.85C7.29952 18.85 7.40028 18.83 7.46757 18.79C7.51276 18.763 7.5469 18.7199 7.57 18.6602C7.58574 18.6175 7.59377 18.5391 7.59377 18.4247V18.1415C7.44011 18.351 7.24562 18.4557 7.01129 18.4557C6.74984 18.4557 6.54262 18.3453 6.38997 18.1252C6.27013 17.951 6.21021 17.7346 6.21021 17.475C6.21021 17.1501 6.28887 16.9016 6.44588 16.7302C6.60288 16.5584 6.79804 16.4727 7.03137 16.4727C7.27207 16.4727 7.47058 16.5777 7.62691 16.7885V16.5164H8.10897V18.2566C8.10897 18.4854 8.08988 18.6565 8.05206 18.7696C8.01423 18.883 7.961 18.9718 7.89271 19.0365C7.82408 19.1009 7.7327 19.1512 7.61854 19.1879C7.50439 19.2243 7.35977 19.2426 7.18536 19.2426C6.85529 19.2426 6.62129 19.1863 6.48337 19.0738C6.34545 18.9611 6.27649 18.8183 6.27649 18.6455L6.27816 18.5835ZM6.73812 17.446C6.73812 17.6515 6.77796 17.8023 6.8583 17.898C6.93797 17.9934 7.03673 18.0411 7.15423 18.0411C7.27976 18.0411 7.38622 17.9921 7.47292 17.8943C7.55962 17.7963 7.60314 17.6512 7.60314 17.4587C7.60314 17.2579 7.56163 17.1088 7.47861 17.0114C7.39526 16.914 7.29014 16.8653 7.16327 16.8653C7.03974 16.8653 6.93797 16.913 6.8583 17.0084C6.77796 17.1041 6.73812 17.2499 6.73812 17.446Z" fill="#10298E"/>
<path d="M8.7312 15.7798H9.24606V18.4567H8.7312V15.7798Z" fill="#10298E"/>
<path d="M11.0134 17.8386L11.5266 17.9244C11.4607 18.1118 11.3562 18.2546 11.214 18.3527C11.0717 18.4507 10.8936 18.4998 10.68 18.4998C10.3416 18.4998 10.0912 18.3894 9.92848 18.1692C9.80027 17.9927 9.73633 17.7699 9.73633 17.5007C9.73633 17.1795 9.82035 16.9276 9.98907 16.7455C10.1578 16.5637 10.3707 16.4727 10.6285 16.4727C10.918 16.4727 11.1467 16.5681 11.3141 16.7585C11.4814 16.949 11.5614 17.2409 11.5541 17.6342H10.2639C10.2676 17.7863 10.3091 17.9047 10.3884 17.9894C10.4678 18.0738 10.5669 18.1162 10.6854 18.1162C10.7661 18.1162 10.834 18.0941 10.8889 18.0504C10.9438 18.0068 10.9853 17.936 11.0134 17.8386ZM11.0429 17.3199C11.0392 17.1715 11.0007 17.0584 10.9274 16.9814C10.8541 16.904 10.7647 16.8653 10.6596 16.8653C10.5475 16.8653 10.4544 16.9063 10.3811 16.9877C10.3078 17.0691 10.2719 17.1802 10.2729 17.3199H11.0429Z" fill="#10298E"/>
<path d="M13.2451 18.4567V15.7798H15.2369V16.2324H13.7874V16.8262H15.1362V17.2772H13.7874V18.0057H15.2885V18.4567H13.2451Z" fill="#10298E"/>
<path d="M17.138 18.4579V18.1677C17.0671 18.2711 16.974 18.3525 16.8585 18.4122C16.743 18.472 16.6212 18.5016 16.4929 18.5016C16.3621 18.5016 16.2449 18.4733 16.1411 18.4159C16.0373 18.3585 15.962 18.2785 15.9158 18.1747C15.8693 18.0713 15.8462 17.9282 15.8462 17.7458V16.5186H16.3611V17.4099C16.3611 17.6824 16.3704 17.8495 16.3895 17.9112C16.4083 17.9726 16.4427 18.0213 16.4929 18.0573C16.5432 18.093 16.6068 18.111 16.6834 18.111C16.7715 18.111 16.8505 18.087 16.9201 18.039C16.9897 17.9909 17.0373 17.9309 17.063 17.8598C17.0885 17.7885 17.1015 17.6143 17.1015 17.3368V16.5186H17.6164V18.4579H17.138Z" fill="#10298E"/>
<path d="M18.7553 18.4557H18.2405V16.5164H18.7189V16.7922C18.8005 16.6618 18.8742 16.5761 18.9395 16.5347C19.0047 16.4933 19.0791 16.4727 19.1621 16.4727C19.2796 16.4727 19.3924 16.505 19.5012 16.5694L19.3418 17.0167C19.2548 16.961 19.1745 16.933 19.0998 16.933C19.0278 16.933 18.9666 16.9527 18.9167 16.9924C18.8665 17.0317 18.827 17.1034 18.7985 17.2068C18.7697 17.3103 18.7553 17.5271 18.7553 17.8566V18.4557Z" fill="#10298E"/>
<path d="M19.7166 17.4587C19.7166 17.2882 19.7587 17.1235 19.8431 16.964C19.9275 16.8042 20.0466 16.6825 20.2013 16.5987C20.3556 16.5147 20.5283 16.4727 20.7188 16.4727C21.0134 16.4727 21.2548 16.5681 21.4429 16.7585C21.6307 16.949 21.7251 17.1895 21.7251 17.4807C21.7251 17.7739 21.63 18.0171 21.4399 18.2099C21.2501 18.403 21.0111 18.4994 20.7225 18.4994C20.5441 18.4994 20.374 18.4594 20.2123 18.379C20.0503 18.2986 19.9275 18.1809 19.8431 18.0258C19.7587 17.8703 19.7166 17.6815 19.7166 17.4587ZM20.2445 17.486C20.2445 17.6785 20.29 17.8256 20.3817 17.928C20.4734 18.0301 20.5863 18.0815 20.7208 18.0815C20.8551 18.0815 20.9679 18.0301 21.0589 17.928C21.1497 17.8256 21.1955 17.6772 21.1955 17.4824C21.1955 17.2926 21.1497 17.1465 21.0589 17.0441C20.9679 16.942 20.8551 16.891 20.7208 16.891C20.5863 16.891 20.4734 16.942 20.3817 17.0441C20.29 17.1465 20.2445 17.2936 20.2445 17.486Z" fill="#10298E"/>
<path d="M23.3997 18.4567V15.7798H24.27C24.6001 15.7798 24.815 15.7931 24.9151 15.8198C25.0691 15.8602 25.198 15.9476 25.3018 16.082C25.4055 16.2164 25.4574 16.3902 25.4574 16.6034C25.4574 16.7675 25.4276 16.9056 25.3677 17.0177C25.3078 17.1297 25.2318 17.2178 25.1397 17.2819C25.0473 17.3456 24.9536 17.3879 24.8582 17.4086C24.729 17.434 24.5412 17.447 24.2958 17.447H23.942V18.4567H23.3997ZM23.942 16.2324V16.9923H24.2389C24.4528 16.9923 24.5958 16.9783 24.6677 16.9503C24.7397 16.9223 24.7963 16.8782 24.8371 16.8189C24.8783 16.7592 24.8987 16.6898 24.8987 16.6107C24.8987 16.5133 24.8699 16.4329 24.8127 16.3695C24.7551 16.3062 24.6825 16.2665 24.5944 16.2508C24.5298 16.2388 24.3996 16.2324 24.2041 16.2324H23.942Z" fill="#10298E"/>
<path d="M26.3964 17.1081L25.9294 17.024C25.9817 16.8366 26.0724 16.6978 26.2006 16.6078C26.3288 16.5177 26.5193 16.4727 26.7724 16.4727C27.0017 16.4727 27.1728 16.4997 27.2852 16.554C27.3977 16.6081 27.4767 16.6768 27.5226 16.7602C27.5684 16.8436 27.5912 16.9967 27.5912 17.2195L27.5858 17.8183C27.5858 17.9891 27.5942 18.1145 27.6106 18.1955C27.627 18.2763 27.6578 18.3633 27.7033 18.4557H27.1938C27.1801 18.4217 27.1637 18.371 27.144 18.3043C27.1356 18.2739 27.1296 18.2536 27.1259 18.2439C27.0378 18.329 26.9438 18.393 26.8437 18.4357C26.7436 18.4784 26.6368 18.4994 26.523 18.4994C26.3225 18.4994 26.1648 18.4454 26.0493 18.337C25.9338 18.2286 25.8762 18.0918 25.8762 17.926C25.8762 17.8166 25.9023 17.7189 25.9549 17.6331C26.0071 17.5474 26.0808 17.4817 26.1758 17.4357C26.2702 17.3903 26.4068 17.3503 26.5852 17.3163C26.8259 17.2712 26.9926 17.2292 27.0854 17.1902V17.1391C27.0854 17.0404 27.0613 16.9703 27.0121 16.9283C26.9632 16.8863 26.8711 16.8653 26.7356 16.8653C26.6438 16.8653 26.5722 16.8833 26.521 16.9193C26.4698 16.955 26.4282 17.018 26.3964 17.1081ZM27.0854 17.5244C27.0194 17.5464 26.9153 17.5724 26.7724 17.6031C26.6294 17.6335 26.5357 17.6632 26.4918 17.6925C26.4246 17.7399 26.3911 17.8003 26.3911 17.8733C26.3911 17.945 26.4179 18.0071 26.4718 18.0595C26.5253 18.1118 26.5936 18.1378 26.677 18.1378C26.7697 18.1378 26.8581 18.1075 26.9424 18.0468C27.0047 18.0004 27.0459 17.9437 27.0656 17.877C27.0787 17.833 27.0854 17.7496 27.0854 17.6268V17.5244Z" fill="#10298E"/>
<path d="M27.9675 16.5186H28.5155L28.9812 17.8955L29.4355 16.5186H29.9687L29.2815 18.3849L29.1586 18.7225C29.1134 18.8359 29.0702 18.9223 29.0297 18.982C28.9885 19.0414 28.9417 19.0901 28.8885 19.1271C28.8352 19.1641 28.7699 19.1931 28.6923 19.2138C28.6146 19.2345 28.5272 19.2448 28.4292 19.2448C28.3304 19.2448 28.2333 19.2345 28.1383 19.2138L28.0921 18.8122C28.1727 18.8279 28.2454 18.8359 28.3103 18.8359C28.4298 18.8359 28.5185 18.8009 28.5758 18.7308C28.6334 18.6608 28.6772 18.5717 28.708 18.4633L27.9675 16.5186Z" fill="#10298E"/>
<path d="M30.3728 16.5164H30.8475V16.7812C31.0172 16.5754 31.2194 16.4727 31.4541 16.4727C31.5786 16.4727 31.6867 16.498 31.7785 16.549C31.8698 16.6004 31.9452 16.6778 32.0038 16.7812C32.0891 16.6778 32.1815 16.6004 32.2806 16.549C32.3794 16.498 32.4851 16.4727 32.5976 16.4727C32.7406 16.4727 32.8614 16.5013 32.9602 16.5591C33.0593 16.6171 33.1332 16.7018 33.1821 16.8139C33.2173 16.897 33.2353 17.0307 33.2353 17.2159V18.4557H32.7201V17.3473C32.7201 17.1548 32.7027 17.0307 32.6672 16.9747C32.6194 16.9016 32.5461 16.8653 32.4473 16.8653C32.375 16.8653 32.3074 16.887 32.2438 16.931C32.1802 16.9747 32.1346 17.0391 32.1065 17.1235C32.0781 17.2082 32.0643 17.3416 32.0643 17.5244V18.4557H31.5491V17.393C31.5491 17.2042 31.5401 17.0824 31.5217 17.0277C31.5036 16.973 31.4752 16.932 31.4367 16.9053C31.3982 16.8786 31.3459 16.8653 31.28 16.8653C31.2003 16.8653 31.129 16.8863 31.0654 16.929C31.0022 16.9717 30.9563 17.0331 30.9292 17.1134C30.9014 17.1938 30.8877 17.3273 30.8877 17.5134V18.4557H30.3728V16.5164Z" fill="#10298E"/>
<path d="M34.9879 17.8386L35.5011 17.9244C35.4351 18.1118 35.3307 18.2546 35.1884 18.3527C35.0461 18.4507 34.868 18.4998 34.6545 18.4998C34.3157 18.4998 34.0656 18.3894 33.9029 18.1692C33.7747 17.9927 33.7104 17.7699 33.7104 17.5007C33.7104 17.1795 33.7948 16.9276 33.9635 16.7455C34.1322 16.5637 34.3452 16.4727 34.6029 16.4727C34.8925 16.4727 35.1211 16.5681 35.2885 16.7585C35.4556 16.949 35.5359 17.2409 35.5285 17.6342H34.2384C34.242 17.7863 34.2836 17.9047 34.3629 17.9894C34.4426 18.0738 34.5413 18.1162 34.6598 18.1162C34.7405 18.1162 34.8085 18.0941 34.8634 18.0504C34.9183 18.0068 34.9598 17.936 34.9879 17.8386ZM35.0174 17.3199C35.0137 17.1715 34.9752 17.0584 34.9019 16.9814C34.8285 16.904 34.7392 16.8653 34.634 16.8653C34.5219 16.8653 34.4288 16.9063 34.3555 16.9877C34.2822 17.0691 34.2461 17.1802 34.2474 17.3199H35.0174Z" fill="#10298E"/>
<path d="M37.831 18.4557H37.3162V17.466C37.3162 17.2565 37.3051 17.1211 37.283 17.0597C37.2609 16.9984 37.2254 16.9503 37.1759 16.9163C37.1264 16.8823 37.0668 16.8653 36.9971 16.8653C36.9081 16.8653 36.8281 16.8896 36.7571 16.9383C36.6861 16.987 36.6376 17.0514 36.6115 17.1318C36.5854 17.2122 36.572 17.3606 36.572 17.5774V18.4557H36.0571V16.5164H36.5355V16.8012C36.7052 16.5821 36.9191 16.4727 37.1769 16.4727C37.2904 16.4727 37.3942 16.493 37.4882 16.5337C37.5823 16.5747 37.6533 16.6268 37.7018 16.6898C37.75 16.7532 37.7838 16.8252 37.8026 16.9053C37.8216 16.9857 37.831 17.1008 37.831 17.2505V18.4557Z" fill="#10298E"/>
<path d="M39.3587 16.5188V16.9278H39.0069V17.7093C39.0069 17.8674 39.0102 17.9598 39.0169 17.9859L39.0628 18.0509C39.0865 18.0679 39.1153 18.0763 39.1498 18.0763C39.1973 18.0763 39.2663 18.0599 39.3567 18.0272L39.4005 18.4252C39.281 18.4762 39.1455 18.5019 38.9938 18.5019C38.9011 18.5019 38.8174 18.4862 38.7431 18.4555C38.6684 18.4242 38.6139 18.3841 38.5791 18.3348C38.5442 18.2854 38.5198 18.2187 38.5064 18.135C38.4954 18.0753 38.49 17.9548 38.49 17.7734V16.9278H38.2537V16.5188H38.49V16.1335L39.0069 15.834V16.5188H39.3587Z" fill="#10298E"/>
<path d="M39.6467 17.9023L40.1636 17.824C40.1854 17.9237 40.2299 17.9994 40.2972 18.0511C40.3645 18.1028 40.4585 18.1288 40.5794 18.1288C40.7126 18.1288 40.8127 18.1045 40.88 18.0558C40.9252 18.0218 40.9479 17.9761 40.9479 17.9187C40.9479 17.8797 40.9356 17.8476 40.9111 17.822C40.8857 17.7976 40.8278 17.7753 40.7391 17.7546C40.3233 17.6632 40.0602 17.5798 39.949 17.5044C39.795 17.3997 39.718 17.2542 39.718 17.0677C39.718 16.9 39.7846 16.7585 39.9179 16.6441C40.0508 16.5297 40.2573 16.4727 40.5375 16.4727C40.8037 16.4727 41.0015 16.5157 41.1311 16.6021C41.2603 16.6888 41.3497 16.8166 41.3985 16.9857L40.9128 17.0751C40.892 16.9997 40.8529 16.942 40.7946 16.9016C40.7367 16.8616 40.654 16.8416 40.5462 16.8416C40.4107 16.8416 40.3139 16.8603 40.255 16.898C40.2158 16.9246 40.1964 16.9593 40.1964 17.002C40.1964 17.0387 40.2135 17.0697 40.248 17.0951C40.2942 17.1291 40.4545 17.1775 40.7287 17.2395C41.0028 17.3016 41.1943 17.3776 41.3035 17.4677C41.4106 17.5591 41.4645 17.6862 41.4645 17.8493C41.4645 18.0271 41.3902 18.1799 41.2412 18.3076C41.0919 18.4354 40.8713 18.4994 40.5794 18.4994C40.3142 18.4994 40.1047 18.4457 39.95 18.3387C39.7954 18.2316 39.6943 18.0861 39.6467 17.9023Z" fill="#10298E"/>
<path d="M45.4704 18.4567H44.8802L44.6459 17.8486H43.572L43.35 18.4567H42.7749L43.821 15.7798H44.3948L45.4704 18.4567ZM44.4718 17.3976L44.1016 16.4042L43.7387 17.3976H44.4718Z" fill="#10298E"/>
<path d="M46.3601 18.4557H45.8452V16.5164H46.3236V16.7922C46.4053 16.6618 46.4789 16.5761 46.5442 16.5347C46.6095 16.4933 46.6838 16.4727 46.7668 16.4727C46.8843 16.4727 46.9971 16.505 47.1059 16.5694L46.9466 17.0167C46.8595 16.961 46.7792 16.933 46.7045 16.933C46.6326 16.933 46.5713 16.9527 46.5214 16.9924C46.4712 17.0317 46.4317 17.1034 46.4029 17.2068C46.3745 17.3103 46.3601 17.5271 46.3601 17.8566V18.4557Z" fill="#10298E"/>
<path d="M48.567 17.8386L49.0802 17.9244C49.0142 18.1118 48.9101 18.2546 48.7679 18.3527C48.6252 18.4507 48.4472 18.4998 48.2336 18.4998C47.8951 18.4998 47.6447 18.3894 47.482 18.1692C47.3538 17.9927 47.2896 17.7699 47.2896 17.5007C47.2896 17.1795 47.3739 16.9276 47.5426 16.7455C47.711 16.5637 47.9246 16.4727 48.182 16.4727C48.4716 16.4727 48.7002 16.5681 48.8676 16.7585C49.035 16.949 49.115 17.2409 49.1076 17.6342H47.8175C47.8212 17.7863 47.8627 17.9047 47.942 17.9894C48.0213 18.0738 48.1204 18.1162 48.2389 18.1162C48.3196 18.1162 48.3876 18.0941 48.4425 18.0504C48.4974 18.0068 48.5389 17.936 48.567 17.8386ZM48.5965 17.3199C48.5928 17.1715 48.5543 17.0584 48.481 16.9814C48.4076 16.904 48.3183 16.8653 48.2132 16.8653C48.101 16.8653 48.0079 16.9063 47.9346 16.9877C47.8613 17.0691 47.8255 17.1802 47.8265 17.3199H48.5965Z" fill="#10298E"/>
<path d="M50.0245 17.1081L49.5575 17.024C49.6097 16.8366 49.7004 16.6978 49.8286 16.6078C49.9568 16.5177 50.1473 16.4727 50.4004 16.4727C50.6297 16.4727 50.8008 16.4997 50.9136 16.554C51.0257 16.6081 51.1047 16.6768 51.1506 16.7602C51.1965 16.8436 51.2192 16.9967 51.2192 17.2195L51.2139 17.8183C51.2139 17.9891 51.2222 18.1145 51.2386 18.1955C51.255 18.2763 51.2858 18.3633 51.3314 18.4557H50.8219C50.8081 18.4217 50.7917 18.371 50.7723 18.3043C50.7636 18.2739 50.7576 18.2536 50.7539 18.2439C50.6659 18.329 50.5718 18.393 50.4717 18.4357C50.3716 18.4784 50.2648 18.4994 50.151 18.4994C49.9505 18.4994 49.7928 18.4454 49.6773 18.337C49.5618 18.2286 49.5039 18.0918 49.5039 17.926C49.5039 17.8166 49.5304 17.7189 49.5829 17.6331C49.6355 17.5474 49.7088 17.4817 49.8039 17.4357C49.8983 17.3903 50.0348 17.3503 50.2133 17.3163C50.454 17.2712 50.6207 17.2292 50.7134 17.1902V17.1391C50.7134 17.0404 50.6893 16.9703 50.6401 16.9283C50.5912 16.8863 50.4991 16.8653 50.3636 16.8653C50.2722 16.8653 50.2005 16.8833 50.149 16.9193C50.0978 16.955 50.0563 17.018 50.0245 17.1081ZM50.7134 17.5244C50.6474 17.5464 50.5433 17.5724 50.4004 17.6031C50.2575 17.6335 50.1637 17.6632 50.1199 17.6925C50.0526 17.7399 50.0191 17.8003 50.0191 17.8733C50.0191 17.945 50.0459 18.0071 50.0998 18.0595C50.1533 18.1118 50.2216 18.1378 50.305 18.1378C50.3977 18.1378 50.4864 18.1075 50.5705 18.0468C50.6331 18.0004 50.6739 17.9437 50.6936 17.877C50.7067 17.833 50.7134 17.7496 50.7134 17.6268V17.5244Z" fill="#10298E"/>
<path d="M11.4321 5.26071H7.91139C7.91139 4.68496 7.84344 4.29869 7.70819 4.10188C7.49863 3.811 6.9205 3.66523 5.97413 3.66523C5.05488 3.66523 4.44562 3.74896 4.14835 3.91675C3.85108 4.0852 3.70212 4.45113 3.70212 5.01453C3.70212 5.52456 3.83401 5.8608 4.09814 6.02158C4.28728 6.136 4.53734 6.20305 4.84867 6.22306L5.5587 6.2731C7.08052 6.3735 8.0309 6.44455 8.40985 6.48491C9.61331 6.60567 10.4857 6.92456 11.027 7.44126C11.4528 7.84455 11.7069 8.37159 11.7879 9.02206C11.8355 9.41134 11.8589 9.85198 11.8589 10.3413C11.8589 11.4695 11.7508 12.2954 11.5348 12.8188C11.1428 13.7795 10.2621 14.3862 8.89191 14.6411C8.31779 14.7488 7.43971 14.8025 6.25835 14.8025C4.28661 14.8025 2.91275 14.6858 2.13678 14.4506C1.18472 14.1627 0.556707 13.5793 0.253079 12.701C0.0836901 12.212 0 11.3974 0 10.2573H3.52067C3.52067 10.3844 3.52101 10.4818 3.52101 10.5488C3.52101 11.1573 3.69642 11.5482 4.04692 11.7227C4.28962 11.8427 4.58253 11.9058 4.927 11.9135H6.22152C6.882 11.9135 7.30347 11.8798 7.48524 11.8121C7.80896 11.6853 8.02153 11.4811 8.12296 11.1986C8.17686 11.0245 8.20364 10.7997 8.20364 10.5241C8.20364 9.90736 7.97767 9.53209 7.52642 9.39733C7.35736 9.34429 6.57269 9.2699 5.17138 9.17617C4.04591 9.09611 3.26425 9.01906 2.82672 8.94434C1.67414 8.72952 0.905862 8.28753 0.522561 7.61672C0.185457 7.04698 0.0170728 6.1847 0.0170728 5.03088C0.0170728 4.15258 0.108128 3.44808 0.290237 2.91837C0.472347 2.38832 0.765932 1.98603 1.17099 1.71084C1.76452 1.2882 2.52409 1.04036 3.44837 0.966307C4.21765 0.899259 5.07095 0.865234 6.00962 0.865234C7.48725 0.865234 8.54041 0.949962 9.16808 1.11775C10.7003 1.52804 11.4662 2.67686 11.4662 4.56488C11.4662 4.71965 11.4548 4.95115 11.4321 5.26071Z" fill="#10298E"/>
<path d="M26.9143 14.8014V0.790039H32.4302H33.2958H33.965C34.9322 0.790039 35.67 0.868428 36.1771 1.02587C37.3367 1.3878 38.1147 2.12933 38.5134 3.24946C38.719 3.83755 38.8221 4.72285 38.8221 5.90502C38.8221 7.32637 38.7079 8.34743 38.482 8.96954C38.0297 10.1991 37.0991 10.9076 35.6934 11.0911C35.528 11.1187 34.8247 11.1431 33.5831 11.1631L32.9551 11.1838H30.6988V14.8014H26.9143ZM30.6988 7.93347H33.0578C33.806 7.90678 34.261 7.84941 34.4247 7.75968C34.6483 7.63726 34.7986 7.39175 34.8732 7.02382C34.9211 6.77898 34.9449 6.41472 34.9449 5.93104C34.9449 5.33828 34.8973 4.89897 34.8019 4.6121C34.666 4.21015 34.34 3.96564 33.8238 3.87657C33.7213 3.86323 33.477 3.85589 33.0896 3.85589H30.6988V7.93347Z" fill="#10298E"/>
<path d="M46.9 12.38H41.8401L41.1602 14.8014H37.2449L41.4699 0.790039H47.1786L51.4551 14.8014H47.6221L46.9 12.38ZM46.1485 9.65036L44.3753 3.57669L42.6546 9.65036H46.1485Z" fill="#10298E"/>
<path d="M21.6907 2.75974C23.2514 2.75974 24.6447 3.47625 25.5602 4.59838L26.376 2.85547C25.1003 1.65395 23.3639 0.913086 21.4487 0.913086C18.4667 0.913086 15.9158 2.7077 14.869 5.24818H13.2782L12.3389 7.25461H14.3853C14.3699 7.44074 14.3598 7.62688 14.3598 7.81701C14.3598 8.04684 14.3719 8.27434 14.3946 8.49883H13.3662L12.4272 10.5059H14.9179C15.9945 12.982 18.5135 14.7203 21.4487 14.7203C22.928 14.7203 24.3005 14.2786 25.437 13.5241V11.0643C24.5218 12.1027 23.1831 12.7589 21.6907 12.7589C19.9463 12.7589 18.4118 11.8626 17.5183 10.5059H22.7332L23.6725 8.49883H16.751C16.7152 8.25733 16.6961 8.01048 16.6961 7.75897C16.6961 7.58885 16.7048 7.42073 16.7216 7.25461H24.2547L25.1937 5.24818H17.3727C18.2377 3.76078 19.8472 2.75974 21.6907 2.75974Z" fill="#FFBE00"/>
<path d="M21.6907 2.81928C23.1781 2.81928 24.5714 3.48175 25.5134 4.63591L25.5743 4.71063L25.6155 4.62356L26.431 2.88065L26.449 2.84096L26.4179 2.81094C25.0768 1.54804 23.312 0.852539 21.4487 0.852539C19.9935 0.852539 18.5935 1.27617 17.3995 2.07775C16.2335 2.86031 15.339 3.94875 14.8134 5.22466L14.869 5.1873H13.2782H13.2394L13.2233 5.22199L12.2843 7.22876L12.2441 7.31448H12.3389H14.3853L14.325 7.2491C14.3079 7.45759 14.2996 7.64272 14.2996 7.81651C14.2996 8.04167 14.3113 8.2735 14.3344 8.50433L14.3946 8.43829H13.3663H13.3281L13.312 8.47298L12.3724 10.4797L12.3325 10.5655H12.4273H14.9179L14.8623 10.5291C15.9851 13.1113 18.5704 14.7798 21.4487 14.7798C22.8915 14.7798 24.2818 14.3632 25.4705 13.574L25.497 13.5563V13.5236V11.0638V10.904L25.3915 11.0241C24.4539 12.0879 23.1051 12.6977 21.6907 12.6977C20.027 12.6977 18.4861 11.8654 17.5685 10.4721L17.5183 10.5655H22.7332H22.772L22.7881 10.5311L23.7274 8.52368L23.7676 8.43829H23.6725H16.751L16.8109 8.48966C16.7751 8.24648 16.7567 8.00097 16.7567 7.75847C16.7567 7.59335 16.7651 7.4259 16.7818 7.26011L16.7216 7.31448H24.2547H24.2935L24.3096 7.27979L25.2486 5.27303L25.2891 5.1873H25.1937H17.3727L17.4249 5.2777C18.3067 3.76128 19.9416 2.81928 21.6907 2.81928ZM17.3727 5.30772H25.1937L25.1388 5.22199L24.2001 7.22876L24.2547 7.19407H16.7216H16.667L16.661 7.24844C16.6442 7.41789 16.6359 7.58968 16.6359 7.75847C16.6359 8.00664 16.6546 8.25882 16.6911 8.50734L16.6991 8.55871H16.751H23.6725L23.618 8.47298L22.679 10.4797L22.7332 10.4451H17.5183H17.4061L17.4677 10.5378C18.4074 11.9661 19.9865 12.8177 21.6907 12.8177C23.1396 12.8177 24.5218 12.1933 25.4826 11.1035L25.3765 11.0638V13.5236L25.4032 13.4739C24.2346 14.2494 22.8674 14.6594 21.4487 14.6594C18.6183 14.6594 16.0768 13.0192 14.9734 10.4811L14.9574 10.4451H14.9179H12.4273L12.4825 10.5311L13.4212 8.52368L13.3663 8.55871H14.3946H14.4613L14.4549 8.49232C14.4321 8.2655 14.4201 8.03767 14.4201 7.81651C14.4201 7.64639 14.4285 7.46392 14.4455 7.25911L14.4509 7.19407H14.3853H12.3389L12.3934 7.27979L13.3328 5.27303L13.2782 5.30772H14.869H14.9095L14.9246 5.27036C15.4418 4.01646 16.3209 2.94703 17.4671 2.17748C18.6407 1.38992 20.0179 0.973292 21.4487 0.973292C23.2812 0.973292 25.0159 1.65678 26.3345 2.89867L26.3212 2.82928L25.506 4.57253L25.6074 4.55985C24.6417 3.37734 23.2146 2.69886 21.6907 2.69886C19.8981 2.69886 18.224 3.66388 17.3201 5.21732L17.2676 5.30772H17.3727Z" fill="#FFBE00"/>
</svg>
