<svg width="64" height="23" viewBox="0 0 64 23" fill="none" xmlns="http://www.w3.org/2000/svg">
<g clip-path="url(#clip0_1_8040)">
<path d="M11.291 0.5C9.14899 0.5 7.06999 1.13768 5.30599 2.34928C3.54199 3.56087 2.15599 5.28261 1.33699 7.25942C0.517993 9.3 0.328993 11.4681 0.706993 13.6362C1.08499 15.8043 2.09299 17.7174 3.60499 19.2478C5.11699 20.7783 7.06999 21.8623 9.14899 22.2449C11.228 22.6913 13.433 22.4362 15.386 21.6072C17.339 20.7783 19.04 19.3754 20.237 17.5261C21.434 15.7406 22.064 13.5725 22.064 11.4043C22.064 8.47101 20.93 5.66522 18.914 3.62464C16.898 1.64783 14.126 0.5 11.291 0.5ZM1.21099 11.9145H4.54999C4.54999 13.4449 4.80199 14.9754 5.24299 16.442H2.47099C1.71499 15.0391 1.27399 13.4449 1.21099 11.9145ZM11.669 5.79275V1.32899C13.559 1.52029 15.197 3.24203 16.205 5.79275H11.669ZM16.457 6.55797C16.898 8.02464 17.15 9.55507 17.213 11.0855H11.669V6.55797H16.457ZM10.85 1.32899V5.79275H6.31399C7.32199 3.24203 9.02299 1.52029 10.85 1.32899ZM10.85 6.55797V11.0855H5.30599C5.30599 9.55507 5.55799 8.02464 6.06199 6.55797H10.85ZM4.54999 11.0855H1.21099C1.27399 9.49131 1.71499 7.96087 2.47099 6.55797H5.24299C4.80199 8.02464 4.61299 9.55507 4.54999 11.0855ZM5.30599 11.9145H10.85V16.442H6.06199C5.62099 14.9754 5.36899 13.4449 5.30599 11.9145ZM10.85 17.2072V21.671C8.95999 21.4797 7.32199 19.758 6.31399 17.2072H10.85ZM11.669 21.671V17.1435H16.205C15.197 19.758 13.559 21.4797 11.669 21.671ZM11.669 16.3783V11.8507H17.213C17.213 13.3812 16.961 14.9116 16.457 16.3783H11.669ZM17.969 11.9145H21.308C21.245 13.5087 20.804 15.0391 20.048 16.442H17.276C17.717 14.9116 17.969 13.4449 17.969 11.9145ZM17.969 11.0855C17.969 9.55507 17.717 8.02464 17.276 6.55797H20.048C20.804 7.96087 21.245 9.49131 21.308 11.0855H17.969ZM19.607 5.79275H17.024C16.772 5.0913 16.457 4.45362 16.079 3.81594C15.638 3.05072 15.134 2.41304 14.504 1.83913C16.583 2.54058 18.347 3.94348 19.607 5.79275ZM8.01499 1.83913C7.44799 2.41304 6.88099 3.05072 6.43999 3.81594C6.06199 4.45362 5.74699 5.0913 5.49499 5.79275H2.91199C4.17199 3.94348 5.93599 2.54058 8.01499 1.83913ZM2.91199 17.2072H5.49499C5.74699 17.9087 6.06199 18.5464 6.43999 19.1841C6.88099 19.8855 7.38499 20.587 8.01499 21.1609C5.93599 20.4594 4.17199 19.0565 2.91199 17.2072ZM14.504 21.1609C15.134 20.587 15.638 19.9493 16.079 19.1841C16.457 18.5464 16.772 17.8449 17.024 17.2072H19.607C18.347 19.0565 16.583 20.4594 14.504 21.1609ZM51.8 8.34348H50.036V18.1638H51.8V8.34348ZM50.918 7.00435C51.548 7.00435 52.115 6.4942 52.115 5.79275C52.115 5.0913 51.611 4.58116 50.918 4.58116C50.288 4.58116 49.721 5.0913 49.721 5.79275C49.721 6.4942 50.288 7.00435 50.918 7.00435ZM55.391 10.958H57.974V9.42754H55.391V8.02464C55.391 7.00435 56.084 6.43044 57.281 6.43044H57.974V4.64493H57.281C55.013 4.64493 53.627 5.92029 53.627 7.96087V18.2275H55.391V10.958ZM62.762 18.2275H63.455V16.442H62.762C61.565 16.442 60.872 15.8681 60.872 14.8478V10.958H63.455V9.42754H60.872V4.64493H59.108V14.9116C59.108 16.8884 60.494 18.1638 62.762 18.2275ZM40.46 18.2275L42.224 10.8942L43.988 18.2275H46.004L48.713 8.40725H46.886L44.996 15.9319L43.169 8.40725H41.216L39.389 15.9319L37.499 8.40725H35.735L38.444 18.2275H40.46ZM30.884 16.5696C29.372 16.5696 28.112 15.613 27.671 14.6565L26.033 15.5493C26.789 17.271 28.679 18.4188 30.821 18.4188C33.593 18.4188 35.546 16.8246 35.546 14.529C35.546 9.23623 28.175 11.4681 28.175 8.40725C28.175 7.06812 29.309 6.43044 30.884 6.43044C32.144 6.43044 33.278 7.13188 33.971 8.02464L35.357 6.81304C34.412 5.47391 32.711 4.7087 30.884 4.7087C28.049 4.7087 26.285 6.4942 26.285 8.40725C26.285 13.5725 33.719 11.0217 33.719 14.5928C33.719 15.7406 32.585 16.5696 30.884 16.5696Z" fill="#333D3E"/>
</g>
<defs>
<clipPath id="clip0_1_8040">
<rect width="63" height="22" fill="white" transform="translate(0.455078 0.5)"/>
</clipPath>
</defs>
</svg>
