<svg width="25" height="24" viewBox="0 0 25 24" fill="none" xmlns="http://www.w3.org/2000/svg">
<path d="M18.4008 4.5C19.4531 4.5 20.2798 5.325 20.2798 6.375C20.2798 7.425 19.4531 8.25 18.4008 8.25C17.3485 8.25 16.5218 7.425 16.5218 6.375C16.5218 6.3 16.5218 6.225 16.5218 6.15L14.8682 5.85C14.7931 5.85 14.7179 5.85 14.5676 5.85C13.6656 5.85 12.914 6.525 12.914 7.425V7.575V8.325C16.5969 8.55 19.4531 10.8 19.4531 13.575C19.4531 16.5 16.2211 18.825 12.3127 18.825C8.40431 18.825 5.17236 16.5 5.17236 13.575C5.17236 10.8 8.10367 8.55 11.7866 8.325V7.575C11.7866 6 13.0643 4.8 14.6427 4.8C14.7179 4.8 14.8682 4.8 14.9434 4.8H15.0937L16.9727 5.1C16.9727 5.1 16.9727 5.1 17.0479 5.1C17.3485 4.725 17.8747 4.5 18.4008 4.5ZM15.0937 14.7C14.1918 15.15 13.2898 15.375 12.3879 15.375C11.4859 15.375 10.584 15.15 9.68206 14.7C9.30625 14.55 8.85528 14.7 8.70496 15C8.55464 15.3 8.70496 15.825 9.00561 15.975C10.133 16.5 11.2605 16.8 12.3127 16.8C13.365 16.8 14.5676 16.5 15.6198 15.975C15.9956 15.825 16.146 15.375 15.9205 15C15.8453 14.7 15.3943 14.55 15.0937 14.7ZM9.75722 11.625C9.15593 11.625 8.6298 12.15 8.6298 12.75C8.6298 13.35 9.15593 13.875 9.75722 13.875C10.3585 13.875 10.8846 13.35 10.8846 12.75C10.8846 12.15 10.3585 11.625 9.75722 11.625ZM15.0185 11.625C14.4172 11.625 13.8911 12.15 13.8911 12.75C13.8911 13.35 14.4172 13.875 15.0185 13.875C15.6198 13.875 16.146 13.35 16.146 12.75C16.146 12.15 15.6198 11.625 15.0185 11.625Z" fill="url(#paint0_linear_2001_550)"/>
<defs>
<linearGradient id="paint0_linear_2001_550" x1="20.2798" y1="4.5" x2="2.38485" y2="10.4714" gradientUnits="userSpaceOnUse">
<stop stop-color="#000756"/>
<stop offset="1" stop-color="#0042B8"/>
</linearGradient>
</defs>
</svg>
